<svg version="1.1" xmlns="http://www.w3.org/2000/svg" viewBox="0 0 306.51963172276555 668.2835363024478" width="613.0392634455311" height="1336.5670726048957">
  <!-- svg-source:excalidraw -->
  
  <defs>
    <style>
      @font-face {
        font-family: "Virgil";
        src: url("https://excalidraw.com/Virgil.woff2");
      }
    </style>
  </defs>
  <rect x="0" y="0" width="306.51963172276555" height="668.2835363024478" fill="#ffffff"></rect><g stroke-linecap="round" transform="translate(54.700040509922474 72.8058245903631) rotate(0 30.425743842648444 30.42574384264819)"><path d="M44.52 2.47 C50.33 4.89, 56.18 11.67, 58.64 17.7 C61.09 23.73, 61.37 32.42, 59.27 38.64 C57.18 44.85, 51.55 51.47, 46.07 54.99 C40.6 58.52, 32.87 60.32, 26.45 59.78 C20.04 59.23, 12.05 56.33, 7.59 51.71 C3.12 47.09, -0.16 38.79, -0.31 32.05 C-0.47 25.32, 2.6 16.51, 6.67 11.29 C10.73 6.07, 16.95 1.69, 24.07 0.73 C31.19 -0.22, 44.78 4, 49.4 5.56 C54.01 7.12, 52.34 9.54, 51.75 10.11 M19.66 2.72 C25.28 0.54, 33.77 0.51, 39.85 2.37 C45.93 4.22, 52.62 8.25, 56.12 13.86 C59.61 19.48, 61.62 29.51, 60.84 36.05 C60.05 42.58, 56.43 48.92, 51.4 53.08 C46.38 57.25, 37.25 60.99, 30.69 61.04 C24.12 61.1, 17.2 57.63, 12 53.44 C6.8 49.24, 0.99 42.26, -0.51 35.88 C-2.01 29.5, -0.49 20.74, 3 15.15 C6.5 9.57, 17.77 4.43, 20.46 2.37 C23.16 0.31, 19.06 2.19, 19.18 2.79" stroke="#000000" stroke-width="1" fill="none"></path></g><g stroke-linecap="round" transform="translate(85.08502199087525 171.0994911777144) rotate(0 30.425743842648444 30.42574384264816)"><path d="M38.61 1.4 C44.74 2.87, 52.66 8.77, 56.3 14.16 C59.94 19.55, 61.16 27.42, 60.45 33.74 C59.74 40.06, 56.66 47.49, 52.05 52.06 C47.44 56.64, 39.5 60.68, 32.79 61.19 C26.09 61.71, 17.07 59.28, 11.83 55.16 C6.59 51.04, 2.82 42.91, 1.35 36.46 C-0.11 30.01, 0.04 22.15, 3.02 16.47 C6 10.78, 12.44 4.36, 19.23 2.35 C26.02 0.34, 38.74 3.77, 43.75 4.42 C48.77 5.06, 49.41 6.09, 49.32 6.23 M40.84 3.33 C46.47 5.47, 52.49 11.11, 55.8 16.73 C59.11 22.36, 61.63 30.82, 60.68 37.09 C59.73 43.36, 55.07 50.58, 50.07 54.37 C45.08 58.17, 37.19 59.88, 30.71 59.85 C24.22 59.82, 16.26 58.06, 11.19 54.18 C6.12 50.3, 1.53 42.88, 0.3 36.58 C-0.94 30.28, 0.21 22.02, 3.79 16.38 C7.37 10.74, 15.47 5.25, 21.76 2.75 C28.06 0.24, 38.53 1.62, 41.55 1.35 C44.57 1.09, 40.26 0.81, 39.87 1.16" stroke="#000000" stroke-width="1" fill="none"></path></g><g stroke-linecap="round"><g transform="translate(92.78006703624669 134.45178818307693) rotate(0 7.042071904084878 18.829601499574096)"><path d="M-0.5 -0.78 C1.79 5.42, 12.19 31.07, 14.58 37.46 M1.44 1.42 C3.52 7.71, 11.88 32.28, 13.79 38.44" stroke="#000000" stroke-width="1" fill="none"></path></g></g><g transform="translate(10 10) rotate(0 81.5 12.5)"><text x="0" y="18" font-family="Virgil, Segoe UI Emoji" font-size="20px" fill="#000000" text-anchor="start" style="white-space: pre;" direction="ltr">Without Context</text></g><g stroke-linecap="round"><g transform="translate(125.01603515892202 84.04101668731437) rotate(0 12.869988450622259 46.441959601720896)"><path d="M-0.63 -0.16 C3.27 5.95, 19.24 22.31, 23.67 37.82 C28.1 53.33, 25.67 83.6, 25.96 92.89 M1.24 -1.29 C4.93 5.55, 18.53 23.53, 22.58 39.44 C26.64 55.35, 25.05 85.52, 25.58 94.18" stroke="#364fc7" stroke-width="1" fill="none"></path></g><g transform="translate(125.01603515892202 84.04101668731437) rotate(0 12.869988450622259 46.441959601720896)"><path d="M27.52 95.1 L17.81 81.73 L31.59 81.21 L25.68 95.73" stroke="none" stroke-width="0" fill="#364fc7" fill-rule="evenodd"></path><path d="M25.38 93.84 C23.56 90.68, 21.19 85.64, 19.91 80.8 M25.75 94.34 C22.69 88.31, 20.12 82.93, 19.72 81.31 M19.19 79.45 C23.02 80.38, 25.64 80.7, 32.02 81.61 M19.04 80.27 C22.26 80.46, 25.07 80.12, 31.77 80.73 M31.76 79.3 C29.41 85.57, 25.63 91.77, 25.38 94.98 M31.71 80.23 C30.4 82.9, 29.28 85.67, 24.84 94.68 M25.58 94.18 C25.58 94.18, 25.58 94.18, 25.58 94.18 M25.58 94.18 C25.58 94.18, 25.58 94.18, 25.58 94.18" stroke="#364fc7" stroke-width="1" fill="none"></path></g></g><g transform="translate(158.54625480108552 97.18312371315926) rotate(0 51 25)"><text x="0" y="18" font-family="Virgil, Segoe UI Emoji" font-size="20px" fill="#000000" text-anchor="start" style="white-space: pre;" direction="ltr">Pass down</text><text x="0" y="43" font-family="Virgil, Segoe UI Emoji" font-size="20px" fill="#000000" text-anchor="start" style="white-space: pre;" direction="ltr">prop A </text></g><g stroke-linecap="round"><g transform="translate(160.98941208060387 192.8833420226855) rotate(0 12.670400425166918 46.40994668862419)"><path d="M0.22 0.16 C4.27 6.15, 19.97 21.29, 24.22 36.68 C28.46 52.08, 25.33 82.97, 25.68 92.53 M-1.13 -0.8 C2.79 5.25, 19.03 21.97, 23.41 37.7 C27.79 53.44, 25.15 84.57, 25.15 93.62" stroke="#364fc7" stroke-width="1" fill="none"></path></g><g transform="translate(160.98941208060387 192.8833420226855) rotate(0 12.670400425166918 46.40994668862419)"><path d="M23.81 92.04 L18.29 81.5 L33.81 80.96 L24.91 93.52" stroke="none" stroke-width="0" fill="#364fc7" fill-rule="evenodd"></path><path d="M25.35 93.97 C22.11 90.13, 21.07 86.81, 20.63 80.93 M25.28 92.96 C24.15 90.71, 22.69 86.61, 19.22 80.17 M19.36 80.2 C24.66 78.8, 28.5 80.05, 32.77 80.02 M19.64 79.69 C23.71 79.77, 28.25 80.29, 32.4 79.96 M31.47 79.83 C29.39 85.12, 29.68 86.28, 25.56 94.07 M31.67 80.24 C30.19 84.86, 27.18 88.06, 25.49 93.84 M25.15 93.62 C25.15 93.62, 25.15 93.62, 25.15 93.62 M25.15 93.62 C25.15 93.62, 25.15 93.62, 25.15 93.62" stroke="#364fc7" stroke-width="1" fill="none"></path></g></g><g transform="translate(194.51963172276555 206.0254490485305) rotate(0 51 25)"><text x="0" y="18" font-family="Virgil, Segoe UI Emoji" font-size="20px" fill="#000000" text-anchor="start" style="white-space: pre;" direction="ltr">Pass down</text><text x="0" y="43" font-family="Virgil, Segoe UI Emoji" font-size="20px" fill="#000000" text-anchor="start" style="white-space: pre;" direction="ltr">prop A </text></g><g stroke-linecap="round" transform="translate(119.56154111087744 269.06858944797966) rotate(0 30.425743842648444 30.42574384264816)"><path d="M33.5 -0.73 C39.87 -0.47, 48.82 4.54, 53.3 9.42 C57.77 14.3, 60.1 22.09, 60.35 28.56 C60.6 35.03, 58.7 43.06, 54.77 48.24 C50.85 53.41, 43.23 58.06, 36.82 59.63 C30.41 61.2, 22.01 60.57, 16.31 57.66 C10.6 54.75, 5.18 48.27, 2.61 42.19 C0.03 36.11, -1.15 27.53, 0.88 21.18 C2.9 14.83, 8.53 7.34, 14.76 4.08 C20.98 0.81, 33.81 1.86, 38.23 1.59 C42.66 1.33, 41.45 2.13, 41.3 2.47 M21.79 1.4 C27.57 -0.7, 37.19 -1.3, 43.06 1.48 C48.93 4.26, 54.09 11.99, 57.02 18.07 C59.95 24.14, 62.07 31.6, 60.64 37.93 C59.2 44.26, 53.69 52.32, 48.4 56.04 C43.1 59.75, 35.3 60.78, 28.85 60.22 C22.4 59.66, 14.43 56.98, 9.69 52.66 C4.94 48.34, 1.22 40.62, 0.4 34.3 C-0.43 27.98, 1 20.41, 4.72 14.73 C8.43 9.05, 19.85 2.14, 22.68 0.22 C25.51 -1.7, 21.41 2.43, 21.68 3.2" stroke="#000000" stroke-width="1" fill="none"></path></g><g stroke-linecap="round"><g transform="translate(127.2565861562507 232.42088645334218) rotate(0 6.0106936994952775 19.21098300187458)"><path d="M-0.18 0.29 C2.1 6.85, 11.47 32.84, 13.76 39.02 M-1.74 -0.6 C0.34 5.62, 9.57 30.72, 12.54 37.17" stroke="#000000" stroke-width="1" fill="none"></path></g></g><g transform="translate(40.21329363741279 38.134210413633866) rotate(0 46.5 9.5)"><text x="0" y="13" font-family="Virgil, Segoe UI Emoji" font-size="14.610571364209179px" fill="#000000" text-anchor="start" style="white-space: pre;" direction="ltr">Props Drilling</text></g><g stroke-linecap="round" transform="translate(66.14510116115707 499.9658905190189) rotate(0 30.425743842648444 30.42574384264816)"><path d="M25.67 0.58 C31.78 -0.63, 39.6 1.6, 45.19 4.76 C50.79 7.92, 56.94 13.47, 59.25 19.54 C61.57 25.61, 61.22 35.03, 59.07 41.17 C56.91 47.32, 52.01 53.31, 46.31 56.43 C40.62 59.55, 31.48 61.1, 24.9 59.88 C18.31 58.65, 11.06 54.04, 6.81 49.08 C2.56 44.12, -0.5 36.46, -0.59 30.12 C-0.68 23.77, 0.91 16.07, 6.27 11 C11.62 5.93, 26.39 1.35, 31.56 -0.32 C36.72 -1.99, 37.44 0.42, 37.24 0.99 M19.06 1.34 C24.59 -1.25, 32.51 0.49, 38.59 2.47 C44.67 4.46, 51.61 7.93, 55.52 13.25 C59.42 18.58, 62.44 28.11, 62.01 34.43 C61.57 40.76, 57.83 46.73, 52.92 51.2 C48 55.67, 39.07 60.45, 32.52 61.27 C25.96 62.09, 18.86 60.08, 13.58 56.15 C8.31 52.22, 2.67 44.05, 0.86 37.7 C-0.96 31.36, -0.35 23.77, 2.69 18.11 C5.73 12.44, 16.76 6.25, 19.1 3.73 C21.44 1.21, 16.78 2.89, 16.74 2.96" stroke="#000000" stroke-width="1" fill="none"></path></g><g stroke-linecap="round"><g transform="translate(73.84014620653033 463.3181875243814) rotate(0 7.658421129594899 18.471761340699913)"><path d="M0.99 -0.42 C3.14 5.89, 10.84 31.06, 13.15 37.58 M0.05 -1.68 C2.53 4.78, 12.88 31.67, 15.27 38.62" stroke="#000000" stroke-width="1" fill="none"></path></g></g><g stroke-linecap="round"><g transform="translate(108.31666532653253 561.2872857946467) rotate(0 6.98471658363178 19.62855279972382)"><path d="M-0.58 0.79 C1.75 7.08, 12.06 31.54, 14.55 37.89 M1.31 0.16 C3.46 6.59, 11.69 33, 13.74 39.1" stroke="#000000" stroke-width="1" fill="none"></path></g></g><g transform="translate(25.72613152845406 361.4022950976382) rotate(0 65 12.5)"><text x="0" y="18" font-family="Virgil, Segoe UI Emoji" font-size="20px" fill="#000000" text-anchor="start" style="white-space: pre;" direction="ltr">With Context</text></g><g stroke-linecap="round" transform="translate(37.67574334064375 401.1348133837997) rotate(0 30.425743842648444 30.42574384264816)"><path d="M3.75 16.51 C3.75 16.51, 3.75 16.51, 3.75 16.51 M3.75 16.51 C3.75 16.51, 3.75 16.51, 3.75 16.51 M1.33 23.75 C7.49 19.48, 12.34 11.96, 21.82 2.25 M1.65 24.82 C7.54 19.29, 12.33 13.09, 18.96 3.06 M1.98 32.09 C10.5 20.03, 19.92 12.4, 24.16 5.02 M0.45 31.37 C9.95 21.78, 17.59 11.86, 26.44 4.22 M0.06 39.8 C7.8 31.39, 13.79 22.98, 32.49 4.81 M0.68 36.99 C11.34 26.79, 20.46 15.05, 31.66 3.43 M2.75 40.83 C9.6 31.41, 18.63 23.84, 38.11 2.1 M3.9 41.68 C14.67 28.22, 24.87 14.52, 36.99 3.9 M5.8 44.24 C16.5 33.63, 24.56 24.18, 40.78 4.65 M5.42 45.62 C14.95 34.51, 21.93 24.9, 41.93 4.11 M9.57 46.14 C15.68 38.04, 25.8 29.84, 45.61 4.48 M8.58 47.28 C17.12 37.09, 25.24 26, 45.31 6.06 M11.24 50.85 C24.69 34.33, 40.96 18.72, 47.78 9.02 M10.26 51.84 C23.83 35.43, 36.49 21.02, 48.29 8.57 M13.59 55.14 C19.09 45.68, 29.7 35.49, 50.73 8.52 M11.96 55.6 C24.82 42.09, 36.14 28.44, 51.79 10 M17.77 56.08 C30.78 39.11, 47.99 23.95, 54.95 12.32 M17.85 55.1 C28.14 43.13, 37.9 31.1, 53.68 12.63 M22.25 58.11 C32.06 43.1, 41.85 30.61, 57.53 14.23 M21.97 56.37 C33.9 42.43, 48.24 26.65, 57.43 15.35 M26.88 57.11 C36.41 44.61, 47.41 32.49, 59.56 18.24 M25.57 58.24 C39.46 43.8, 52.44 28.38, 59.97 19.54 M30.3 59.88 C39.39 51.19, 47.81 41.07, 60.32 24.93 M28.86 60.05 C41.45 46.53, 53.3 32.56, 61.03 24.71 M32.88 62.83 C42.36 54.46, 47.51 45.14, 60.03 29.91 M33.16 61.53 C40.48 54.3, 47.11 45.23, 62.25 29.18 M43.41 57.41 C45.1 53.38, 52.2 46.13, 61.42 35.57 M41.91 58.43 C48.57 51.25, 56.87 42.28, 62 34.99" stroke="#4c6ef5" stroke-width="0.5" fill="none"></path><path d="M39.88 1.16 C45.87 2.31, 51.78 7.49, 55.3 13.12 C58.83 18.76, 61.71 28.33, 61.03 34.99 C60.35 41.65, 55.99 48.82, 51.22 53.07 C46.44 57.31, 38.9 60.32, 32.36 60.48 C25.83 60.65, 17.36 57.83, 11.98 54.05 C6.6 50.28, 1.49 44.08, 0.1 37.84 C-1.29 31.6, 0.72 22.62, 3.65 16.62 C6.58 10.62, 11.33 4.12, 17.67 1.86 C24.01 -0.41, 37.24 2.79, 41.69 3.06 C46.14 3.33, 44.52 3.01, 44.35 3.49 M25.86 0.18 C32.1 -0.89, 41.76 1.81, 47.34 5.39 C52.91 8.96, 57.58 15.67, 59.29 21.62 C61 27.58, 60.02 35.01, 57.61 41.11 C55.2 47.22, 50.5 55.07, 44.83 58.27 C39.16 61.48, 29.94 62, 23.6 60.32 C17.26 58.64, 10.61 53.37, 6.79 48.2 C2.96 43.03, 0.42 35.91, 0.64 29.31 C0.86 22.71, 3.69 13.43, 8.11 8.6 C12.52 3.76, 23.93 1.49, 27.12 0.29 C30.32 -0.91, 27.11 0.77, 27.29 1.41" stroke="#364fc7" stroke-width="1" fill="none"></path></g><g stroke-linecap="round" transform="translate(98.87602649977453 598.2835363024479) rotate(0 30 29.999999999999943)"><path d="M22.79 0.19 C28.46 -1.8, 37.34 -0.25, 42.92 2.48 C48.49 5.21, 53.6 10.54, 56.25 16.6 C58.89 22.65, 60.15 32.49, 58.8 38.8 C57.45 45.11, 53.52 50.88, 48.16 54.46 C42.79 58.04, 33.25 60.92, 26.63 60.28 C20 59.64, 12.84 55.27, 8.43 50.65 C4.02 46.03, 0.48 38.94, 0.16 32.56 C-0.17 26.18, 2.11 17.67, 6.46 12.39 C10.8 7.1, 22.39 2.83, 26.2 0.87 C30.01 -1.09, 29.38 0.18, 29.31 0.65 M32.6 -0.26 C39.07 -0.32, 47.51 2.46, 51.95 6.88 C56.39 11.3, 58.63 19.62, 59.24 26.27 C59.85 32.92, 59.3 41.35, 55.6 46.77 C51.89 52.19, 43.22 57.12, 37.03 58.8 C30.83 60.49, 24.17 59.69, 18.43 56.89 C12.68 54.1, 5.52 47.75, 2.56 42.02 C-0.41 36.29, -1.21 28.75, 0.64 22.51 C2.49 16.27, 8.27 8.16, 13.65 4.61 C19.04 1.06, 29.82 1.61, 32.94 1.19 C36.07 0.78, 32.73 1.74, 32.39 2.11" stroke="#364fc7" stroke-width="2" fill="none"></path></g><g stroke-linecap="round"><g transform="translate(157.86010638248445 603.5073998022401) rotate(0 -26.296153945924743 -89.63089596469115)"><path d="M0.89 -0.36 C-0.25 -16.27, 3.16 -64.79, -5.79 -94.55 C-14.75 -124.3, -44.85 -164.85, -52.84 -178.9 M-0.11 -1.6 C-1.46 -17.45, 2.3 -64.04, -6.6 -93.43 C-15.49 -122.82, -45.6 -163.83, -53.48 -177.92" stroke="#364fc7" stroke-width="1" fill="none"></path></g><g transform="translate(157.86010638248445 603.5073998022401) rotate(0 -26.296153945924743 -89.63089596469115)"><path d="M-53.3 -177.5 L-42.4 -168.64 L-49.95 -164.43 L-52.96 -177.86" stroke="none" stroke-width="0" fill="#364fc7" fill-rule="evenodd"></path><path d="M-53.93 -177.58 C-49.6 -174.59, -44.59 -172.63, -41.58 -170.77 M-53.79 -178.3 C-48.62 -175.54, -45.53 -172.04, -40.58 -169.05 M-40.11 -170.5 C-43.73 -167.85, -45.49 -167.41, -52.23 -162.41 M-40.24 -169.75 C-43.84 -167.84, -46.98 -166.1, -51.19 -163.55 M-52.88 -163.36 C-53.05 -168.32, -52 -173.87, -53.93 -179.06 M-51.16 -163.77 C-51.42 -167.37, -52.38 -172.45, -52.8 -177.48 M-53.48 -177.92 C-53.48 -177.92, -53.48 -177.92, -53.48 -177.92 M-53.48 -177.92 C-53.48 -177.92, -53.48 -177.92, -53.48 -177.92" stroke="#364fc7" stroke-width="1" fill="none"></path></g></g><g transform="translate(148.58572112214642 448.5756631460772) rotate(0 70 37.5)"><text x="70" y="18" font-family="Virgil, Segoe UI Emoji" font-size="20px" fill="#000000" text-anchor="middle" style="white-space: pre;" direction="ltr">Consume value</text><text x="70" y="43" font-family="Virgil, Segoe UI Emoji" font-size="20px" fill="#000000" text-anchor="middle" style="white-space: pre;" direction="ltr">from Context</text><text x="70" y="68" font-family="Virgil, Segoe UI Emoji" font-size="20px" fill="#000000" text-anchor="middle" style="white-space: pre;" direction="ltr">Provider</text></g></svg>
