<svg version="1.1" xmlns="http://www.w3.org/2000/svg" viewBox="0 0 738.5217052000207 967.8780309780509" width="1477.0434104000415" height="1935.7560619561018">
  <!-- svg-source:excalidraw -->
  
  <defs>
    <style>
      @font-face {
        font-family: "Virgil";
        src: url("https://excalidraw.com/Virgil.woff2");
      }
      @font-face {
        font-family: "Cascadia";
        src: url("https://excalidraw.com/Cascadia.woff2");
      }
    </style>
  </defs>
  <rect x="0" y="0" width="738.5217052000207" height="967.8780309780509" fill="#ffffff"></rect><g stroke-linecap="round" transform="translate(233.92131965665067 10) rotate(0 27.81460987140781 25.60069298867586)"><path d="M22.08 0.95 C27.32 -0.66, 34.88 -0.41, 39.95 2.16 C45.02 4.74, 50.13 11.18, 52.5 16.39 C54.87 21.6, 55.81 28.48, 54.16 33.44 C52.52 38.4, 47.56 43.37, 42.64 46.15 C37.73 48.93, 30.42 50.54, 24.67 50.13 C18.92 49.73, 12.31 47.62, 8.11 43.7 C3.91 39.79, 0.03 32.37, -0.52 26.65 C-1.07 20.93, 0.24 13.71, 4.81 9.38 C9.39 5.05, 22.3 2.23, 26.92 0.67 C31.55 -0.9, 32.44 -0.25, 32.58 -0.02 M21.6 2.35 C26.77 0.89, 34.12 0.27, 39.52 2.54 C44.92 4.8, 51.31 11.12, 53.99 15.96 C56.68 20.8, 57.38 26.51, 55.64 31.56 C53.89 36.62, 48.31 43.17, 43.52 46.28 C38.74 49.39, 32.87 50.82, 26.93 50.24 C20.99 49.67, 12.45 46.68, 7.87 42.83 C3.29 38.98, 0.11 32.22, -0.55 27.12 C-1.21 22.01, 0.29 16.69, 3.92 12.17 C7.55 7.66, 18.7 2.05, 21.22 0.02 C23.75 -2.02, 19.11 -0.66, 19.06 -0.03" stroke="#000000" stroke-width="2" fill="none"></path></g><g stroke-linecap="round"><g transform="translate(258.5711683531499 60.91760922836215) rotate(0 -1.282618486935462 31.6471595454002)"><path d="M0.02 -0.53 C-0.22 9.65, -1.63 51.72, -2.01 62.22 M-1.43 1.8 C-1.71 12.72, -2.36 54.08, -2.58 63.83" stroke="#000000" stroke-width="2" fill="none"></path></g></g><g stroke-linecap="round"><g transform="translate(256.0850087391427 124.58037536947882) rotate(0 12.090452517232734 19.19133859339763)"><path d="M-0.53 0.72 C3.4 7.1, 20.47 32.26, 24.71 38.33 M1.39 0.05 C5.08 6.07, 20.01 30.12, 23.84 36.46" stroke="#000000" stroke-width="2" fill="none"></path></g></g><g stroke-linecap="round"><g transform="translate(254.82959793061855 123.28587704969823) rotate(0 -11.383813471461508 16.780745891456377)"><path d="M0.72 0.14 C-3.08 5.96, -18.67 28.88, -22.79 34.39 M-0.36 -0.83 C-4.28 4.67, -19.97 26.65, -23.49 32.47" stroke="#000000" stroke-width="2" fill="none"></path></g></g><g stroke-linecap="round"><g transform="translate(224.6369606005337 96.19011433150308) rotate(0 15.811987552982828 -10.528542046018629)"><path d="M0.14 0.48 C5.71 -3.23, 27.61 -17.79, 32.87 -21.53 M-1.24 -0.32 C4.25 -3.95, 26.22 -16.89, 32.12 -20.38" stroke="#000000" stroke-width="2" fill="none"></path></g></g><g stroke-linecap="round"><g transform="translate(258.9570734070985 75.98629807634734) rotate(0 10.754367310672933 12.859171650931103)"><path d="M0.48 0.38 C3.68 4.53, 16.74 20.69, 19.91 25.08 M-0.73 -0.47 C2.79 3.81, 18.49 21.98, 22.24 26.19" stroke="#000000" stroke-width="2" fill="none"></path></g></g><g stroke-linecap="round"><g transform="translate(323.23046875 76.93271847805067) rotate(0 95.2997653521561 0.15599517399084561)"><path d="M0 0 C31.77 0.05, 158.83 0.26, 190.6 0.31 M0 0 C31.77 0.05, 158.83 0.26, 190.6 0.31" stroke="#495057" stroke-width="2" fill="none"></path></g><g transform="translate(323.23046875 76.93271847805067) rotate(0 95.2997653521561 0.15599517399084561)"><path d="M190.6 0.31 L176.99 6.63 L177.02 -6.05 L190.6 0.31" stroke="none" stroke-width="0" fill="#495057" fill-rule="evenodd"></path><path d="M190.6 0.31 C185.98 2.46, 181.36 4.6, 176.99 6.63 M190.6 0.31 C187.69 1.66, 184.78 3.01, 176.99 6.63 M176.99 6.63 C177 1.86, 177.01 -2.91, 177.02 -6.05 M176.99 6.63 C177 2.1, 177.01 -2.44, 177.02 -6.05 M177.02 -6.05 C181.97 -3.73, 186.93 -1.4, 190.6 0.31 M177.02 -6.05 C182.14 -3.65, 187.27 -1.25, 190.6 0.31 M190.6 0.31 C190.6 0.31, 190.6 0.31, 190.6 0.31 M190.6 0.31 C190.6 0.31, 190.6 0.31, 190.6 0.31" stroke="#495057" stroke-width="2" fill="none"></path></g></g><g transform="translate(548.8124962665297 132.7795148776081) rotate(0 87.10378641761872 15.890555630241238)"><text x="87.10378641761875" y="22.7811112604825" font-family="Virgil, Segoe UI Emoji" font-size="23.54156389665373px" fill="#000000" text-anchor="middle" style="white-space: pre;" direction="ltr">Web Application</text></g><g stroke-linecap="round" transform="translate(543.3108601682725 20.324342068010537) rotate(0 92.60542251587412 55.42330132516872)"><path d="M1.88 1.83 L184.71 -1.92 L183.27 109.79 L-0.46 109.9" stroke="none" stroke-width="0" fill="#ffffff"></path><path d="M-0.17 0.5 C42.81 0.72, 88.24 2.36, 186.76 0.52 M-0.05 0.79 C65.12 -0.66, 131.4 -0.73, 186.18 -0.66 M183.48 -1.01 C184.76 23.06, 184.4 47.36, 183.87 109.35 M184.71 0.48 C185.74 42.43, 185.75 86.78, 185.22 111.38 M187.15 108.93 C133.25 110.99, 76.9 108.61, 0.14 112.38 M186.08 111.77 C115.83 112.44, 47.74 111.92, -0.54 111.62 M-1.36 112.76 C1.41 82.4, -0.5 48.94, 1.06 -0.43 M-0.94 110.12 C0.41 87.02, -0.55 60.94, -0.56 -0.22" stroke="#000000" stroke-width="1" fill="none"></path></g><g stroke-linecap="round" transform="translate(543.5686740066667 20.355882657248912) rotate(0 91.99424580372852 9.028612983389735)"><path d="M1.83 -0.51 L182.07 -1.94 L182.93 17.6 L-0.95 18.82" stroke="none" stroke-width="0" fill="#ced4da"></path><path d="M0.5 -1.07 C37.51 0.64, 77.76 1.7, 184.5 1.08 M0.79 -0.46 C62.58 0.33, 126.02 1.06, 183.33 -0.94 M183.07 -0.66 C184.21 4.89, 185.56 10.51, 182.63 19.63 M184.42 0.73 C183.45 5.7, 184.74 9.93, 184.47 17.95 M182.07 19.47 C140.52 18.28, 93.57 19.98, 1.53 19.47 M184.92 17.31 C136.96 19.45, 88.47 19.11, 0.77 17.77 M1.73 19.08 C1.42 12.39, -1.66 9.07, -0.39 -1.4 M-0.65 18.3 C0.7 12.24, -0.58 7.16, -0.2 0.85" stroke="#000000" stroke-width="1" fill="none"></path></g><g stroke-linecap="round" transform="translate(549.810765625276 25.256957072401974) rotate(0 3.6220995397370643 3.6220995397372917)"><path d="M7.24 3.62 C7.24 3.83, 7.23 4.04, 7.19 4.25 C7.15 4.46, 7.1 4.66, 7.03 4.86 C6.95 5.06, 6.86 5.25, 6.76 5.43 C6.65 5.61, 6.53 5.79, 6.4 5.95 C6.26 6.11, 6.11 6.26, 5.95 6.4 C5.79 6.53, 5.61 6.65, 5.43 6.76 C5.25 6.86, 5.06 6.95, 4.86 7.03 C4.66 7.1, 4.46 7.15, 4.25 7.19 C4.04 7.23, 3.83 7.24, 3.62 7.24 C3.41 7.24, 3.2 7.23, 2.99 7.19 C2.79 7.15, 2.58 7.1, 2.38 7.03 C2.19 6.95, 1.99 6.86, 1.81 6.76 C1.63 6.65, 1.45 6.53, 1.29 6.4 C1.13 6.26, 0.98 6.11, 0.85 5.95 C0.71 5.79, 0.59 5.61, 0.49 5.43 C0.38 5.25, 0.29 5.06, 0.22 4.86 C0.15 4.66, 0.09 4.46, 0.06 4.25 C0.02 4.04, 0 3.83, 0 3.62 C0 3.41, 0.02 3.2, 0.06 2.99 C0.09 2.79, 0.15 2.58, 0.22 2.38 C0.29 2.19, 0.38 1.99, 0.49 1.81 C0.59 1.63, 0.71 1.45, 0.85 1.29 C0.98 1.13, 1.13 0.98, 1.29 0.85 C1.45 0.71, 1.63 0.59, 1.81 0.49 C1.99 0.38, 2.19 0.29, 2.38 0.22 C2.58 0.15, 2.79 0.09, 2.99 0.06 C3.2 0.02, 3.41 0, 3.62 0 C3.83 0, 4.04 0.02, 4.25 0.06 C4.46 0.09, 4.66 0.15, 4.86 0.22 C5.06 0.29, 5.25 0.38, 5.43 0.49 C5.61 0.59, 5.79 0.71, 5.95 0.85 C6.11 0.98, 6.26 1.13, 6.4 1.29 C6.53 1.45, 6.65 1.63, 6.76 1.81 C6.86 1.99, 6.95 2.19, 7.03 2.38 C7.1 2.58, 7.15 2.79, 7.19 2.99 C7.23 3.2, 7.24 3.52, 7.24 3.62 C7.25 3.73, 7.25 3.52, 7.24 3.62" stroke="none" stroke-width="0" fill="#fa5252"></path><path d="M7.24 3.62 C7.24 3.83, 7.23 4.04, 7.19 4.25 C7.15 4.46, 7.1 4.66, 7.03 4.86 C6.95 5.06, 6.86 5.25, 6.76 5.43 C6.65 5.61, 6.53 5.79, 6.4 5.95 C6.26 6.11, 6.11 6.26, 5.95 6.4 C5.79 6.53, 5.61 6.65, 5.43 6.76 C5.25 6.86, 5.06 6.95, 4.86 7.03 C4.66 7.1, 4.46 7.15, 4.25 7.19 C4.04 7.23, 3.83 7.24, 3.62 7.24 C3.41 7.24, 3.2 7.23, 2.99 7.19 C2.79 7.15, 2.58 7.1, 2.38 7.03 C2.19 6.95, 1.99 6.86, 1.81 6.76 C1.63 6.65, 1.45 6.53, 1.29 6.4 C1.13 6.26, 0.98 6.11, 0.85 5.95 C0.71 5.79, 0.59 5.61, 0.49 5.43 C0.38 5.25, 0.29 5.06, 0.22 4.86 C0.15 4.66, 0.09 4.46, 0.06 4.25 C0.02 4.04, 0 3.83, 0 3.62 C0 3.41, 0.02 3.2, 0.06 2.99 C0.09 2.79, 0.15 2.58, 0.22 2.38 C0.29 2.19, 0.38 1.99, 0.49 1.81 C0.59 1.63, 0.71 1.45, 0.85 1.29 C0.98 1.13, 1.13 0.98, 1.29 0.85 C1.45 0.71, 1.63 0.59, 1.81 0.49 C1.99 0.38, 2.19 0.29, 2.38 0.22 C2.58 0.15, 2.79 0.09, 2.99 0.06 C3.2 0.02, 3.41 0, 3.62 0 C3.83 0, 4.04 0.02, 4.25 0.06 C4.46 0.09, 4.66 0.15, 4.86 0.22 C5.06 0.29, 5.25 0.38, 5.43 0.49 C5.61 0.59, 5.79 0.71, 5.95 0.85 C6.11 0.98, 6.26 1.13, 6.4 1.29 C6.53 1.45, 6.65 1.63, 6.76 1.81 C6.86 1.99, 6.95 2.19, 7.03 2.38 C7.1 2.58, 7.15 2.79, 7.19 2.99 C7.23 3.2, 7.24 3.52, 7.24 3.62 C7.25 3.73, 7.25 3.52, 7.24 3.62" stroke="#000000" stroke-width="1" fill="none"></path></g><g stroke-linecap="round" transform="translate(564.673961276636 25.256957072401974) rotate(0 3.6220995397370643 3.6220995397372917)"><path d="M7.24 3.62 C7.24 3.83, 7.23 4.04, 7.19 4.25 C7.15 4.46, 7.1 4.66, 7.03 4.86 C6.95 5.06, 6.86 5.25, 6.76 5.43 C6.65 5.61, 6.53 5.79, 6.4 5.95 C6.26 6.11, 6.11 6.26, 5.95 6.4 C5.79 6.53, 5.61 6.65, 5.43 6.76 C5.25 6.86, 5.06 6.95, 4.86 7.03 C4.66 7.1, 4.46 7.15, 4.25 7.19 C4.04 7.23, 3.83 7.24, 3.62 7.24 C3.41 7.24, 3.2 7.23, 2.99 7.19 C2.79 7.15, 2.58 7.1, 2.38 7.03 C2.19 6.95, 1.99 6.86, 1.81 6.76 C1.63 6.65, 1.45 6.53, 1.29 6.4 C1.13 6.26, 0.98 6.11, 0.85 5.95 C0.71 5.79, 0.59 5.61, 0.49 5.43 C0.38 5.25, 0.29 5.06, 0.22 4.86 C0.15 4.66, 0.09 4.46, 0.06 4.25 C0.02 4.04, 0 3.83, 0 3.62 C0 3.41, 0.02 3.2, 0.06 2.99 C0.09 2.79, 0.15 2.58, 0.22 2.38 C0.29 2.19, 0.38 1.99, 0.49 1.81 C0.59 1.63, 0.71 1.45, 0.85 1.29 C0.98 1.13, 1.13 0.98, 1.29 0.85 C1.45 0.71, 1.63 0.59, 1.81 0.49 C1.99 0.38, 2.19 0.29, 2.38 0.22 C2.58 0.15, 2.79 0.09, 2.99 0.06 C3.2 0.02, 3.41 0, 3.62 0 C3.83 0, 4.04 0.02, 4.25 0.06 C4.46 0.09, 4.66 0.15, 4.86 0.22 C5.06 0.29, 5.25 0.38, 5.43 0.49 C5.61 0.59, 5.79 0.71, 5.95 0.85 C6.11 0.98, 6.26 1.13, 6.4 1.29 C6.53 1.45, 6.65 1.63, 6.76 1.81 C6.86 1.99, 6.95 2.19, 7.03 2.38 C7.1 2.58, 7.15 2.79, 7.19 2.99 C7.23 3.2, 7.24 3.52, 7.24 3.62 C7.25 3.73, 7.25 3.52, 7.24 3.62" stroke="none" stroke-width="0" fill="#fab005"></path><path d="M7.24 3.62 C7.24 3.83, 7.23 4.04, 7.19 4.25 C7.15 4.46, 7.1 4.66, 7.03 4.86 C6.95 5.06, 6.86 5.25, 6.76 5.43 C6.65 5.61, 6.53 5.79, 6.4 5.95 C6.26 6.11, 6.11 6.26, 5.95 6.4 C5.79 6.53, 5.61 6.65, 5.43 6.76 C5.25 6.86, 5.06 6.95, 4.86 7.03 C4.66 7.1, 4.46 7.15, 4.25 7.19 C4.04 7.23, 3.83 7.24, 3.62 7.24 C3.41 7.24, 3.2 7.23, 2.99 7.19 C2.79 7.15, 2.58 7.1, 2.38 7.03 C2.19 6.95, 1.99 6.86, 1.81 6.76 C1.63 6.65, 1.45 6.53, 1.29 6.4 C1.13 6.26, 0.98 6.11, 0.85 5.95 C0.71 5.79, 0.59 5.61, 0.49 5.43 C0.38 5.25, 0.29 5.06, 0.22 4.86 C0.15 4.66, 0.09 4.46, 0.06 4.25 C0.02 4.04, 0 3.83, 0 3.62 C0 3.41, 0.02 3.2, 0.06 2.99 C0.09 2.79, 0.15 2.58, 0.22 2.38 C0.29 2.19, 0.38 1.99, 0.49 1.81 C0.59 1.63, 0.71 1.45, 0.85 1.29 C0.98 1.13, 1.13 0.98, 1.29 0.85 C1.45 0.71, 1.63 0.59, 1.81 0.49 C1.99 0.38, 2.19 0.29, 2.38 0.22 C2.58 0.15, 2.79 0.09, 2.99 0.06 C3.2 0.02, 3.41 0, 3.62 0 C3.83 0, 4.04 0.02, 4.25 0.06 C4.46 0.09, 4.66 0.15, 4.86 0.22 C5.06 0.29, 5.25 0.38, 5.43 0.49 C5.61 0.59, 5.79 0.71, 5.95 0.85 C6.11 0.98, 6.26 1.13, 6.4 1.29 C6.53 1.45, 6.65 1.63, 6.76 1.81 C6.86 1.99, 6.95 2.19, 7.03 2.38 C7.1 2.58, 7.15 2.79, 7.19 2.99 C7.23 3.2, 7.24 3.52, 7.24 3.62 C7.25 3.73, 7.25 3.52, 7.24 3.62" stroke="#000000" stroke-width="1" fill="none"></path></g><g stroke-linecap="round" transform="translate(580.1899246941157 25.90972483854648) rotate(0 3.6220995397370643 3.6220995397372917)"><path d="M7.24 3.62 C7.24 3.83, 7.23 4.04, 7.19 4.25 C7.15 4.46, 7.1 4.66, 7.03 4.86 C6.95 5.06, 6.86 5.25, 6.76 5.43 C6.65 5.61, 6.53 5.79, 6.4 5.95 C6.26 6.11, 6.11 6.26, 5.95 6.4 C5.79 6.53, 5.61 6.65, 5.43 6.76 C5.25 6.86, 5.06 6.95, 4.86 7.03 C4.66 7.1, 4.46 7.15, 4.25 7.19 C4.04 7.23, 3.83 7.24, 3.62 7.24 C3.41 7.24, 3.2 7.23, 2.99 7.19 C2.79 7.15, 2.58 7.1, 2.38 7.03 C2.19 6.95, 1.99 6.86, 1.81 6.76 C1.63 6.65, 1.45 6.53, 1.29 6.4 C1.13 6.26, 0.98 6.11, 0.85 5.95 C0.71 5.79, 0.59 5.61, 0.49 5.43 C0.38 5.25, 0.29 5.06, 0.22 4.86 C0.15 4.66, 0.09 4.46, 0.06 4.25 C0.02 4.04, 0 3.83, 0 3.62 C0 3.41, 0.02 3.2, 0.06 2.99 C0.09 2.79, 0.15 2.58, 0.22 2.38 C0.29 2.19, 0.38 1.99, 0.49 1.81 C0.59 1.63, 0.71 1.45, 0.85 1.29 C0.98 1.13, 1.13 0.98, 1.29 0.85 C1.45 0.71, 1.63 0.59, 1.81 0.49 C1.99 0.38, 2.19 0.29, 2.38 0.22 C2.58 0.15, 2.79 0.09, 2.99 0.06 C3.2 0.02, 3.41 0, 3.62 0 C3.83 0, 4.04 0.02, 4.25 0.06 C4.46 0.09, 4.66 0.15, 4.86 0.22 C5.06 0.29, 5.25 0.38, 5.43 0.49 C5.61 0.59, 5.79 0.71, 5.95 0.85 C6.11 0.98, 6.26 1.13, 6.4 1.29 C6.53 1.45, 6.65 1.63, 6.76 1.81 C6.86 1.99, 6.95 2.19, 7.03 2.38 C7.1 2.58, 7.15 2.79, 7.19 2.99 C7.23 3.2, 7.24 3.52, 7.24 3.62 C7.25 3.73, 7.25 3.52, 7.24 3.62" stroke="none" stroke-width="0" fill="#40c057"></path><path d="M7.24 3.62 C7.24 3.83, 7.23 4.04, 7.19 4.25 C7.15 4.46, 7.1 4.66, 7.03 4.86 C6.95 5.06, 6.86 5.25, 6.76 5.43 C6.65 5.61, 6.53 5.79, 6.4 5.95 C6.26 6.11, 6.11 6.26, 5.95 6.4 C5.79 6.53, 5.61 6.65, 5.43 6.76 C5.25 6.86, 5.06 6.95, 4.86 7.03 C4.66 7.1, 4.46 7.15, 4.25 7.19 C4.04 7.23, 3.83 7.24, 3.62 7.24 C3.41 7.24, 3.2 7.23, 2.99 7.19 C2.79 7.15, 2.58 7.1, 2.38 7.03 C2.19 6.95, 1.99 6.86, 1.81 6.76 C1.63 6.65, 1.45 6.53, 1.29 6.4 C1.13 6.26, 0.98 6.11, 0.85 5.95 C0.71 5.79, 0.59 5.61, 0.49 5.43 C0.38 5.25, 0.29 5.06, 0.22 4.86 C0.15 4.66, 0.09 4.46, 0.06 4.25 C0.02 4.04, 0 3.83, 0 3.62 C0 3.41, 0.02 3.2, 0.06 2.99 C0.09 2.79, 0.15 2.58, 0.22 2.38 C0.29 2.19, 0.38 1.99, 0.49 1.81 C0.59 1.63, 0.71 1.45, 0.85 1.29 C0.98 1.13, 1.13 0.98, 1.29 0.85 C1.45 0.71, 1.63 0.59, 1.81 0.49 C1.99 0.38, 2.19 0.29, 2.38 0.22 C2.58 0.15, 2.79 0.09, 2.99 0.06 C3.2 0.02, 3.41 0, 3.62 0 C3.83 0, 4.04 0.02, 4.25 0.06 C4.46 0.09, 4.66 0.15, 4.86 0.22 C5.06 0.29, 5.25 0.38, 5.43 0.49 C5.61 0.59, 5.79 0.71, 5.95 0.85 C6.11 0.98, 6.26 1.13, 6.4 1.29 C6.53 1.45, 6.65 1.63, 6.76 1.81 C6.86 1.99, 6.95 2.19, 7.03 2.38 C7.1 2.58, 7.15 2.79, 7.19 2.99 C7.23 3.2, 7.24 3.52, 7.24 3.62 C7.25 3.73, 7.25 3.52, 7.24 3.62" stroke="#000000" stroke-width="1" fill="none"></path></g><g transform="translate(593.2220041712444 53.49317102577902) rotate(0 7.782137591817445 12.645973586703462)"><text x="0" y="17.291947173406985" font-family="Virgil, Segoe UI Emoji" font-size="19.45534397954384px" fill="#228be6" text-anchor="start" style="white-space: pre;" direction="ltr">G</text></g><g transform="translate(611.7045809518131 53.49317102577902) rotate(0 5.350219594374721 12.645973586703462)"><text x="0" y="17.291947173406985" font-family="Virgil, Segoe UI Emoji" font-size="19.45534397954383px" fill="#d9480f" text-anchor="start" style="white-space: pre;" direction="ltr">o</text></g><g transform="translate(626.2960889364695 53.49317102577902) rotate(0 5.350219594374721 12.645973586703462)"><text x="0" y="17.291947173406985" font-family="Virgil, Segoe UI Emoji" font-size="19.45534397954383px" fill="#fab005" text-anchor="start" style="white-space: pre;" direction="ltr">o</text></g><g transform="translate(639.9148297221509 53.49317102577902) rotate(0 4.863835994886358 12.645973586703462)"><text x="0" y="17.291947173406985" font-family="Virgil, Segoe UI Emoji" font-size="19.455343979543834px" fill="#228be6" text-anchor="start" style="white-space: pre;" direction="ltr">g</text></g><g transform="translate(651.5880361098752 53.49317102577902) rotate(0 2.4319179974427243 12.645973586703462)"><text x="0" y="17.291947173406985" font-family="Virgil, Segoe UI Emoji" font-size="19.455343979543834px" fill="#5c940d" text-anchor="start" style="white-space: pre;" direction="ltr">l</text></g><g transform="translate(659.3701737016945 53.49317102577902) rotate(0 5.350219594374721 12.645973586703462)"><text x="0" y="17.291947173406985" font-family="Virgil, Segoe UI Emoji" font-size="19.45534397954383px" fill="#d9480f" text-anchor="start" style="white-space: pre;" direction="ltr">e</text></g><g stroke-linecap="round" transform="translate(574.6313421463474 84.00563550036327) rotate(0 59.55496962626967 8.776521839660859)"><path d="M4.39 0 M4.39 0 C43.36 1.74, 81.6 -1.7, 114.72 0 M4.39 0 C39.59 -2.02, 76.34 -1.19, 114.72 0 M114.72 0 C115.92 -1.01, 118.38 1.73, 119.11 4.39 M114.72 0 C116.41 2.03, 117.57 -0.26, 119.11 4.39 M119.11 4.39 C118.64 8.21, 119.8 10.75, 119.11 13.16 M119.11 4.39 C119.42 7.69, 118.94 10.86, 119.11 13.16 M119.11 13.16 C121.05 14.17, 119.06 18.66, 114.72 17.55 M119.11 13.16 C117.31 14.62, 117.81 19.31, 114.72 17.55 M114.72 17.55 C75.57 19.8, 31.45 19.83, 4.39 17.55 M114.72 17.55 C84.63 16.67, 52.75 17.08, 4.39 17.55 M4.39 17.55 C0.1 19.47, 1.13 17.69, 0 13.16 M4.39 17.55 C0.57 15.47, 1.22 15.59, 0 13.16 M0 13.16 C-0.82 10.58, 0.25 10, 0 4.39 M0 13.16 C-0.05 11.55, 0.45 8.99, 0 4.39 M0 4.39 C-1.92 -0.48, 0.41 -0.46, 4.39 0 M0 4.39 C-1.09 2.34, 2.43 -1.66, 4.39 0" stroke="#000000" stroke-width="1" fill="none"></path></g><g stroke-linecap="round" transform="translate(679.3227098051575 88.39389642019341) rotate(0 3.4779019614043136 2.989775370329994)"><path d="M1.69 1.05 C2.41 0.68, 3.52 -0.73, 4.39 -0.62 C5.27 -0.51, 6.66 1.04, 6.92 1.7 C7.18 2.37, 6.26 2.7, 5.94 3.35 C5.63 4, 5.59 5.04, 5.02 5.62 C4.45 6.21, 3.31 7.06, 2.52 6.84 C1.73 6.62, 0.54 4.94, 0.27 4.28 C0 3.63, 0.88 3.5, 0.88 2.9 C0.87 2.3, -0.28 1.04, 0.23 0.69 C0.74 0.34, 3.34 0.77, 3.92 0.81 C4.49 0.86, 3.6 1.02, 3.68 0.94 M3.61 1.56 C4.1 2.01, 4.2 2.25, 4.9 2.34 C5.59 2.43, 7.76 1.61, 7.77 2.09 C7.78 2.56, 5.44 4.39, 4.97 5.21 C4.49 6.04, 5.6 6.9, 4.92 7.03 C4.24 7.15, 1.47 6.28, 0.88 5.96 C0.3 5.65, 1.69 5.62, 1.41 5.14 C1.13 4.67, -0.84 3.84, -0.79 3.13 C-0.74 2.42, 0.99 1.21, 1.72 0.9 C2.44 0.59, 3.21 1.45, 3.58 1.26 C3.95 1.08, 3.79 0.11, 3.94 -0.21" stroke="#000000" stroke-width="1" fill="none"></path></g><g stroke-linecap="round"><g transform="translate(686.1272494422683 94.32024849826121) rotate(0 2.94390087485408 1.9648901085591888)"><path d="M2.21 -1.28 C2.43 -0.39, 1.18 3.79, 0.94 5.21 M-0.04 4.19 C1.05 4.2, 4.91 0.75, 5.93 0.58" stroke="#000000" stroke-width="1" fill="none"></path></g></g><g transform="translate(194.0859375 186.26865597805067) rotate(0 57 10)"><text x="0" y="14" font-family="Virgil, Segoe UI Emoji" font-size="16px" fill="#000000" text-anchor="start" style="white-space: pre;" direction="ltr">The Dev (You)</text></g><g transform="translate(358.3828125 25.221780978050674) rotate(0 65.5 20)"><text x="65.5" y="14" font-family="Virgil, Segoe UI Emoji" font-size="16px" fill="#000000" text-anchor="middle" style="white-space: pre;" direction="ltr">"I want my App </text><text x="65.5" y="34" font-family="Virgil, Segoe UI Emoji" font-size="16px" fill="#000000" text-anchor="middle" style="white-space: pre;" direction="ltr">to look like this"</text></g><g transform="translate(364.55859375 564.0441614927563) rotate(0 38.69140625 50.07123161764707)"><text x="38.69140625000004" y="72.1424632352942" font-family="Virgil, Segoe UI Emoji" font-size="72.8308823529412px" fill="#000000" text-anchor="middle" style="white-space: pre;" direction="ltr">⚛️</text></g><g stroke-linecap="round" transform="translate(227.94475715665067 266.97265625) rotate(0 27.81460987140781 25.60069298867586)"><path d="M24.62 0.63 C30.23 -0.36, 38.12 0.52, 43.18 3.45 C48.23 6.38, 53.12 12.76, 54.95 18.18 C56.78 23.61, 56.52 31.06, 54.17 35.99 C51.82 40.93, 46.12 45.35, 40.85 47.79 C35.59 50.23, 28.3 51.91, 22.58 50.65 C16.86 49.39, 10.41 44.7, 6.52 40.24 C2.64 35.79, -1.01 29.25, -0.74 23.9 C-0.48 18.56, 3.16 12.22, 8.13 8.16 C13.11 4.09, 24.63 0.77, 29.12 -0.51 C33.6 -1.79, 34.92 -0.19, 35.06 0.47 M29.62 1.27 C35.4 1.01, 43.74 2.34, 48.19 5.81 C52.65 9.27, 55.9 16.14, 56.34 22.06 C56.79 27.99, 54.2 36.53, 50.85 41.35 C47.51 46.17, 41.88 49.57, 36.29 50.97 C30.71 52.37, 23 52.14, 17.34 49.77 C11.68 47.4, 4.98 41.77, 2.33 36.75 C-0.32 31.73, -0.28 25, 1.44 19.63 C3.16 14.26, 7.94 7.64, 12.65 4.54 C17.36 1.45, 26.65 1.53, 29.7 1.05 C32.74 0.57, 31.07 1.39, 30.92 1.67" stroke="#000000" stroke-width="2" fill="none"></path></g><g stroke-linecap="round"><g transform="translate(252.59460585314991 317.8902654783624) rotate(0 -1.6596449019098145 30.501349716165123)"><path d="M0.21 -0.31 C-0.15 9.83, -2.21 50.88, -2.63 61.36 M-1.14 -1.52 C-1.6 8.71, -3.25 52.18, -3.53 62.52" stroke="#000000" stroke-width="2" fill="none"></path></g></g><g stroke-linecap="round"><g transform="translate(250.10844623914272 381.55303161947904) rotate(0 12.94177330167895 18.70008104496287)"><path d="M-0.31 0.1 C3.58 6.45, 19.63 31.93, 23.86 38.29 M1.73 -0.89 C5.96 5.07, 22.39 30.23, 26.19 36.4" stroke="#000000" stroke-width="2" fill="none"></path></g></g><g stroke-linecap="round"><g transform="translate(248.85303543061855 380.25853329969823) rotate(0 -11.722025967904301 16.89839001524524)"><path d="M0.1 -0.72 C-3.74 5.09, -19 28.84, -22.83 34.51 M-1.31 1.52 C-5.28 6.99, -19.87 27.2, -23.54 32.65" stroke="#000000" stroke-width="2" fill="none"></path></g></g><g stroke-linecap="round"><g transform="translate(218.6603981005337 353.1627705815031) rotate(0 16.136399068772334 -10.915776518259804)"><path d="M-0.72 0.44 C4.83 -2.97, 27.57 -16.95, 32.99 -20.38 M1.11 -0.38 C6.57 -4.16, 26.77 -18.66, 32.3 -22.27" stroke="#000000" stroke-width="2" fill="none"></path></g></g><g stroke-linecap="round"><g transform="translate(252.98051090710032 332.95895432634734) rotate(0 10.139757553449272 13.033572011273236)"><path d="M0.44 0.5 C3.93 4.82, 17.58 20.91, 21.07 25.18 M-0.79 -0.28 C2.58 4.24, 16.72 21.7, 20.35 26.35" stroke="#000000" stroke-width="2" fill="none"></path></g></g><g stroke-linecap="round" transform="translate(352.55078125 378.7452184780507) rotate(0 105.455078125 23.007812499999886)"><path d="M0 0 C63.14 0, 126.28 0, 210.91 0 M0 0 C67.91 0, 135.81 0, 210.91 0 M210.91 0 C210.91 13.11, 210.91 26.23, 210.91 46.02 M210.91 0 C210.91 15.9, 210.91 31.79, 210.91 46.02 M210.91 46.02 C157.91 46.02, 104.92 46.02, 0 46.02 M210.91 46.02 C133.19 46.02, 55.47 46.02, 0 46.02 M0 46.02 C0 31.19, 0 16.37, 0 0 M0 46.02 C0 36.44, 0 26.87, 0 0" stroke="#000000" stroke-width="2" fill="none"></path></g><g transform="translate(363.92578125 353.9874059780507) rotate(0 93 40)"><text x="0" y="14" font-family="Virgil, Segoe UI Emoji" font-size="16px" fill="#000000" text-anchor="start" style="white-space: pre;" direction="ltr"></text><text x="0" y="34" font-family="Virgil, Segoe UI Emoji" font-size="16px" fill="#000000" text-anchor="start" style="white-space: pre;" direction="ltr"></text><text x="0" y="54" font-family="Virgil, Segoe UI Emoji" font-size="16px" fill="#000000" text-anchor="start" style="white-space: pre;" direction="ltr">&lt;Title&gt;My Title&lt;/Title&gt;</text><text x="0" y="74" font-family="Virgil, Segoe UI Emoji" font-size="16px" fill="#000000" text-anchor="start" style="white-space: pre;" direction="ltr"> </text></g><g stroke-linecap="round"><g transform="translate(288.27734375 395.2959997280507) rotate(0 39.294921875 75.046875)"><path d="M0 0 C13.1 25.02, 65.49 125.08, 78.59 150.09 M0 0 C13.1 25.02, 65.49 125.08, 78.59 150.09" stroke="#000000" stroke-width="2" fill="none"></path></g><g transform="translate(288.27734375 395.2959997280507) rotate(0 39.294921875 75.046875)"><path d="M78.59 150.09 L66.67 140.99 L77.9 135.11 L78.59 150.09" stroke="none" stroke-width="0" fill="#000000" fill-rule="evenodd"></path><path d="M78.59 150.09 C75.18 147.49, 71.78 144.89, 66.67 140.99 M78.59 150.09 C75.26 147.55, 71.93 145.01, 66.67 140.99 M66.67 140.99 C70.07 139.21, 73.47 137.43, 77.9 135.11 M66.67 140.99 C70.22 139.13, 73.78 137.27, 77.9 135.11 M77.9 135.11 C78.18 141.1, 78.45 147.08, 78.59 150.09 M77.9 135.11 C78.06 138.57, 78.22 142.03, 78.59 150.09 M78.59 150.09 C78.59 150.09, 78.59 150.09, 78.59 150.09 M78.59 150.09 C78.59 150.09, 78.59 150.09, 78.59 150.09" stroke="#000000" stroke-width="2" fill="none"></path></g></g><g transform="translate(372.0234375 470.6944372280507) rotate(0 149 25)"><text x="0" y="18" font-family="Virgil, Segoe UI Emoji" font-size="20px" fill="#000000" text-anchor="start" style="white-space: pre;" direction="ltr">"React, please update </text><text x="0" y="43" font-family="Virgil, Segoe UI Emoji" font-size="20px" fill="#000000" text-anchor="start" style="white-space: pre;" direction="ltr">the DOM so it looks like this"</text></g><g stroke-linecap="round" transform="translate(199.5571157813156 792.4947362296216) rotate(0 22.084879712901966 20.32702338216245)"><path d="M14.61 1.82 C18.77 0.1, 26.41 -0.78, 30.91 0.85 C35.41 2.48, 39.61 7.66, 41.6 11.6 C43.6 15.54, 43.84 20.49, 42.9 24.47 C41.95 28.46, 39.55 32.93, 35.93 35.5 C32.3 38.07, 25.89 39.77, 21.17 39.92 C16.44 40.07, 11.21 39.29, 7.59 36.4 C3.97 33.5, 0.04 27.05, -0.55 22.55 C-1.13 18.06, 0.66 13.12, 4.09 9.43 C7.52 5.74, 16.35 1.95, 20.04 0.43 C23.72 -1.09, 25.97 0.01, 26.23 0.31 M25.92 -0.43 C30.37 -0.44, 35.7 2.8, 38.74 6.21 C41.78 9.63, 44.14 15.6, 44.18 20.06 C44.21 24.52, 41.84 29.6, 38.94 32.97 C36.05 36.33, 31.48 39.51, 26.78 40.25 C22.09 40.99, 15.16 39.27, 10.77 37.41 C6.38 35.54, 1.93 33.07, 0.44 29.09 C-1.05 25.1, 0.2 17.93, 1.84 13.5 C3.48 9.06, 6.48 4.67, 10.27 2.48 C14.07 0.3, 22.18 0.83, 24.6 0.36 C27.01 -0.11, 24.69 -0.77, 24.78 -0.36" stroke="#000000" stroke-width="2" fill="none"></path></g><g stroke-linecap="round"><g transform="translate(219.8236600531327 832.922618490461) rotate(0 -0.3397283965487077 24.529522077163165)"><path d="M0.99 -0.77 C0.64 7.45, -0.59 41.33, -1.22 49.83 M0.04 1.44 C-0.45 9.26, -1.01 40.17, -1.67 47.99" stroke="#000000" stroke-width="2" fill="none"></path></g></g><g stroke-linecap="round"><g transform="translate(217.23949027134404 884.1864724077777) rotate(0 9.641512988935574 15.513941474029707)"><path d="M-0.77 0.95 C2.49 5.69, 16.51 24.44, 20.05 29.42 M1.03 0.4 C4.13 5.21, 16.19 25.87, 19.39 30.62" stroke="#000000" stroke-width="2" fill="none"></path></g></g><g stroke-linecap="round"><g transform="translate(216.63191296531295 883.324741314957) rotate(0 -9.234693880594932 13.226980219887082)"><path d="M0.95 0.54 C-2.45 5.11, -16.26 22.59, -19.42 26.67 M-0.01 -0.22 C-3.1 4.1, -13.99 20.68, -17.04 25.05" stroke="#000000" stroke-width="2" fill="none"></path></g></g><g stroke-linecap="round"><g transform="translate(200.29106992699417 842.6108606964158) rotate(0 9.629532628978268 9.177941628508279)"><path d="M0.54 -0.64 C3.98 2.37, 16.94 15.84, 19.89 18.99 M-0.63 1.64 C2.8 4.23, 15.87 14.29, 19.44 17.29" stroke="#000000" stroke-width="2" fill="none"></path></g></g><g stroke-linecap="round"><g transform="translate(220.7916940899795 860.9344779568382) rotate(0 13.738027757073723 -7.584629149310558)"><path d="M-0.64 0.94 C3.89 -1.83, 23.44 -13.57, 28.11 -16.11 M1.23 0.39 C5.59 -2.29, 23.34 -12.2, 27.59 -14.95" stroke="#000000" stroke-width="2" fill="none"></path></g></g><g stroke-linecap="round"><g transform="translate(192.4762074025657 796.3507818644421) rotate(0 32.5354274604897 7.3866204303808445)"><path d="M0.94 0.8 C11.31 3.08, 52.15 11.15, 62.75 13.01 M-0.02 0.18 C10.69 2.72, 54.36 12.5, 65.09 14.6" stroke="#000000" stroke-width="2" fill="none"></path></g></g><g stroke-linecap="round" transform="translate(212.67424299308368 755.1039170988638) rotate(10.74366233694554 16.35750011333039 22.990451630855887)"><path d="M0.02 -0.22 L34.21 0.97 L31.09 47.21 L0.98 47.74" stroke="none" stroke-width="0" fill="#fff"></path><path d="M-1.18 0.16 C9.91 -1.85, 16.23 0.07, 31.17 -0.55 M-0.78 -0.72 C8.25 -0.52, 14.05 0.11, 32.33 -0.53 M33.2 1.98 C33.6 15.48, 32.99 31.87, 32.73 46.37 M32.72 -0.54 C32.18 11.69, 33.57 25.33, 32.44 45.82 M32.09 44.68 C24.28 46.86, 16.95 45.93, -1.08 46.22 M31.84 45.62 C21.05 45.52, 12.04 45.16, -0.04 46.54 M0 47.42 C0.61 33.99, 1.37 22.77, -0.33 1.51 M-0.25 46.57 C0.61 36.4, -0.8 25.05, -0.53 0.5" stroke="#000000" stroke-width="2" fill="none"></path></g><g stroke-linecap="round"><g transform="translate(221.84893505155742 821.6808097365351) rotate(0 -0.14805088228422392 4.979506238890281)" fill-rule="evenodd"><path d="M0.8 -0.87 L20.15 5.52 L27.41 2.41 L23.26 10.18 L20.93 11.18 L-1.23 5.47 L-17.98 10.45 L-21.82 2.71 L-26.14 -2.5 L-17.44 4 L-0.62 -1.3" stroke="none" stroke-width="0" fill="#000" fill-rule="evenodd"></path><path d="M-0.71 0.1 C1.99 0.81, 13.29 4.15, 17.16 5.07 C21.03 5.99, 20.98 6.2, 22.53 5.64 C24.08 5.07, 26.39 0.89, 26.47 1.68 C26.54 2.48, 24.59 9.06, 22.98 10.39 C21.38 11.73, 20.84 10.18, 16.84 9.7 C12.84 9.22, 4.57 7.83, -1.03 7.5 C-6.63 7.17, -12.71 9.36, -16.77 7.73 C-20.82 6.1, -25.28 -1.72, -25.34 -2.26 C-25.4 -2.81, -21.39 4.05, -17.13 4.48 C-12.87 4.92, -2.68 0.9, 0.22 0.35 M1.12 -0.9 C3.68 -0.14, 13.35 4.77, 16.79 6.09 C20.23 7.42, 20.21 7.62, 21.78 7.04 C23.36 6.46, 25.74 1.97, 26.23 2.61 C26.72 3.26, 26.56 9.37, 24.72 10.91 C22.87 12.44, 19.41 12.54, 15.15 11.83 C10.89 11.12, 4.68 6.88, -0.84 6.66 C-6.35 6.44, -13.61 11.67, -17.93 10.52 C-22.25 9.37, -26.97 0.79, -26.76 -0.23 C-26.55 -1.25, -21.26 4.09, -16.69 4.38 C-12.12 4.67, -1.96 2.02, 0.66 1.52" stroke="#000000" stroke-width="1" fill="none"></path></g></g><g stroke-linecap="round" transform="translate(204.34883315849765 805.0142801381639) rotate(0 7.2351621642319515 5.761438751069591)"><path d="M3.59 0.2 C4.78 -0.33, 6.82 0.16, 8.58 0.43 C10.34 0.7, 13.31 0.68, 14.16 1.81 C15.02 2.94, 14.07 6.01, 13.7 7.23 C13.34 8.44, 12.92 8.45, 11.98 9.1 C11.04 9.75, 9.66 10.82, 8.06 11.13 C6.46 11.43, 3.67 11.56, 2.39 10.94 C1.11 10.32, 0.61 8.52, 0.38 7.39 C0.15 6.26, 0 5.47, 1.01 4.17 C2.02 2.88, 5.3 0.39, 6.45 -0.36 C7.6 -1.1, 7.93 -0.48, 7.89 -0.28 M6.17 -0.74 C7.48 -1.22, 8.68 -1.16, 10.21 -0.26 C11.75 0.63, 14.82 3.32, 15.37 4.64 C15.93 5.95, 14.43 6.72, 13.56 7.63 C12.69 8.54, 11.43 9.55, 10.16 10.11 C8.89 10.66, 7.53 11.04, 5.94 10.94 C4.34 10.84, 1.48 10.22, 0.6 9.52 C-0.29 8.83, 0.45 8.18, 0.64 6.79 C0.83 5.39, 0.8 2.18, 1.75 1.13 C2.7 0.09, 5.72 0.81, 6.34 0.52 C6.96 0.22, 5.7 -0.56, 5.47 -0.64" stroke="#000000" stroke-width="1" fill="none"></path></g><g stroke-linecap="round" transform="translate(210.91511935599738 809.5589152265989) rotate(0 0.37748672161251307 0.49568963444016845)"><path d="M0.11 -0.72 C0.19 -0.45, 0.84 0.94, 0.82 1.01 C0.79 1.08, -0.14 -0.22, -0.03 -0.3 C0.09 -0.38, 1.56 0.25, 1.51 0.53 C1.45 0.8, -0.07 1.38, -0.34 1.36 C-0.62 1.34, -0.3 0.5, -0.14 0.42 C0.01 0.35, 0.53 0.88, 0.6 0.92 C0.68 0.96, 0.21 0.71, 0.3 0.64 C0.39 0.58, 1.19 0.6, 1.13 0.51 C1.08 0.42, 0.16 0.18, -0.03 0.09 C-0.21 0.01, -0.09 0.08, 0.02 0.02 M-0.43 -0.8 C-0.58 -0.59, -0.8 1.26, -0.49 1.4 C-0.18 1.53, 1.3 0.2, 1.46 0 C1.61 -0.2, 0.74 0.03, 0.46 0.22 C0.18 0.4, -0.1 1.14, -0.21 1.1 C-0.33 1.06, -0.29 -0.06, -0.22 -0.02 C-0.15 0.03, -0.01 1.32, 0.22 1.38 C0.46 1.44, 1.33 0.52, 1.18 0.34 C1.03 0.16, -0.62 0.47, -0.68 0.29 C-0.73 0.12, 0.79 -0.45, 0.83 -0.71 C0.87 -0.98, -0.27 -1.21, -0.44 -1.3" stroke="#000000" stroke-width="1" fill="none"></path></g><g stroke-linecap="round" transform="translate(230.77702170830344 811.2709509640113) rotate(0 0.3812997187997098 0.6482095219600978)"><path d="M-0.31 0.19 C0.04 0.11, 1.48 -0.8, 1.53 -0.6 C1.59 -0.4, 0.22 1.26, 0.04 1.39 C-0.14 1.51, 0.33 0.25, 0.47 0.17 C0.61 0.08, 1.01 0.61, 0.88 0.89 C0.75 1.16, -0.2 1.74, -0.31 1.79 C-0.42 1.85, 0.13 1.28, 0.22 1.23 C0.32 1.17, 0.2 1.74, 0.25 1.48 C0.31 1.23, 0.51 0, 0.56 -0.31 C0.61 -0.63, 0.55 -0.49, 0.54 -0.4 C0.53 -0.31, 0.56 0.15, 0.49 0.23 M-0.39 -1.11 C-0.1 -0.85, 1.81 0.65, 1.93 0.9 C2.05 1.14, 0.64 0.45, 0.35 0.35 C0.06 0.25, 0.12 0.23, 0.17 0.3 C0.21 0.38, 0.77 0.62, 0.62 0.81 C0.47 0.99, -0.76 1.19, -0.76 1.41 C-0.75 1.63, 0.55 2.39, 0.67 2.1 C0.79 1.81, 0 -0.08, -0.05 -0.33 C-0.11 -0.58, 0.38 0.65, 0.34 0.57 C0.3 0.49, -0.09 -0.63, -0.3 -0.81 C-0.51 -1, -0.8 -0.61, -0.89 -0.53" stroke="#000000" stroke-width="1" fill="none"></path></g><g transform="translate(177.39453125 937.8780309780509) rotate(0 37.5 10)"><text x="0" y="14" font-family="Virgil, Segoe UI Emoji" font-size="16px" fill="#000000" text-anchor="start" style="white-space: pre;" direction="ltr">The DOM</text></g><g stroke-linecap="round"><g transform="translate(364.34375 660.2022497280507) rotate(0 -49.427734375 52.064453125000114)"><path d="M0 0 C-16.48 17.35, -82.38 86.77, -98.86 104.13 M0 0 C-16.48 17.35, -82.38 86.77, -98.86 104.13" stroke="#000000" stroke-width="2" fill="none"></path></g><g transform="translate(364.34375 660.2022497280507) rotate(0 -49.427734375 52.064453125000114)"><path d="M-98.86 104.13 L-94.09 89.91 L-84.9 98.63 L-98.86 104.13" stroke="none" stroke-width="0" fill="#000000" fill-rule="evenodd"></path><path d="M-98.86 104.13 C-97.79 100.95, -96.73 97.78, -94.09 89.91 M-98.86 104.13 C-97.48 100.03, -96.11 95.92, -94.09 89.91 M-94.09 89.91 C-92.05 91.84, -90.01 93.78, -84.9 98.63 M-94.09 89.91 C-91.37 92.49, -88.66 95.07, -84.9 98.63 M-84.9 98.63 C-89.31 100.37, -93.73 102.11, -98.86 104.13 M-84.9 98.63 C-89.41 100.41, -93.93 102.19, -98.86 104.13 M-98.86 104.13 C-98.86 104.13, -98.86 104.13, -98.86 104.13 M-98.86 104.13 C-98.86 104.13, -98.86 104.13, -98.86 104.13" stroke="#000000" stroke-width="2" fill="none"></path></g></g><g transform="translate(10 649.9249059780507) rotate(0 153 25)"><text x="0" y="18" font-family="Virgil, Segoe UI Emoji" font-size="20px" fill="#000000" text-anchor="start" style="white-space: pre;" direction="ltr">"Hey, DOM, you need to change</text><text x="0" y="43" font-family="Virgil, Segoe UI Emoji" font-size="20px" fill="#000000" text-anchor="start" style="white-space: pre;" direction="ltr">this h1 title to 'My title' now" </text></g><g transform="translate(540.6188698323858 852.6994367526086) rotate(0 87.10378641761872 15.890555630241352)"><text x="87.10378641761875" y="22.7811112604825" font-family="Virgil, Segoe UI Emoji" font-size="23.54156389665373px" fill="#000000" text-anchor="middle" style="white-space: pre;" direction="ltr">Web Application</text></g><g stroke-linecap="round" transform="translate(535.1172337341268 740.244263943011) rotate(0 92.60542251587412 55.42330132516872)"><path d="M1.36 -1.26 L185.93 1.56 L186.68 110.49 L-1.14 110.07" stroke="none" stroke-width="0" fill="#ffffff"></path><path d="M-0.47 -1.29 C69.37 -3.47, 141.85 -2.17, 184.94 1.77 M-0.06 -0.1 C68.62 1.35, 138.8 1.25, 184.96 -0.76 M183.75 0.3 C185.68 31.27, 184.11 65.17, 185.45 110.44 M184.43 0.35 C184.55 27.39, 184.26 53.05, 184.94 110.45 M186.72 110.42 C121.3 110.63, 58.94 108.87, 0.59 111.88 M185.03 110.2 C129.81 111.24, 76.11 111.68, -0.29 110.49 M1.25 112.42 C-2.03 70.06, -1.18 28.41, 1.47 0.65 M0.28 110.59 C-1.41 78.15, -1.8 44.94, -0.7 0.18" stroke="#000000" stroke-width="1" fill="none"></path></g><g stroke-linecap="round" transform="translate(535.375047572521 740.2758045322494) rotate(0 91.99424580372852 9.028612983389849)"><path d="M-1.26 0.72 L185.55 1.47 L183.63 16.92 L-0.78 18.43" stroke="none" stroke-width="0" fill="#ced4da"></path><path d="M-1.29 -1.17 C43.36 1.22, 89.69 0.16, 185.76 1.51 M-0.1 -0.96 C37.94 -0.23, 75.63 -0.14, 183.23 -0.09 M184.26 0.75 C183.16 4.16, 184.66 9.89, 183.62 16.96 M184.3 -0.64 C184.73 4.59, 183.94 10.74, 183.63 18.44 M183.56 17.47 C120.95 19.82, 55.46 20.04, 1.03 17.98 M183.35 17.51 C112.17 18.32, 41.38 17.43, -0.36 18.83 M1.42 16.35 C0.92 11.48, 1.09 8.11, 0.58 0.02 M-0.23 17.62 C0.73 10.34, 0.9 3.55, 0.16 0.61" stroke="#000000" stroke-width="1" fill="none"></path></g><g stroke-linecap="round" transform="translate(541.6171391911303 745.1768789474022) rotate(0 3.6220995397370643 3.6220995397372917)"><path d="M7.24 3.62 C7.24 3.83, 7.23 4.04, 7.19 4.25 C7.15 4.46, 7.1 4.66, 7.03 4.86 C6.95 5.06, 6.86 5.25, 6.76 5.43 C6.65 5.61, 6.53 5.79, 6.4 5.95 C6.26 6.11, 6.11 6.26, 5.95 6.4 C5.79 6.53, 5.61 6.65, 5.43 6.76 C5.25 6.86, 5.06 6.95, 4.86 7.03 C4.66 7.1, 4.46 7.15, 4.25 7.19 C4.04 7.23, 3.83 7.24, 3.62 7.24 C3.41 7.24, 3.2 7.23, 2.99 7.19 C2.79 7.15, 2.58 7.1, 2.38 7.03 C2.19 6.95, 1.99 6.86, 1.81 6.76 C1.63 6.65, 1.45 6.53, 1.29 6.4 C1.13 6.26, 0.98 6.11, 0.85 5.95 C0.71 5.79, 0.59 5.61, 0.49 5.43 C0.38 5.25, 0.29 5.06, 0.22 4.86 C0.15 4.66, 0.09 4.46, 0.06 4.25 C0.02 4.04, 0 3.83, 0 3.62 C0 3.41, 0.02 3.2, 0.06 2.99 C0.09 2.79, 0.15 2.58, 0.22 2.38 C0.29 2.19, 0.38 1.99, 0.49 1.81 C0.59 1.63, 0.71 1.45, 0.85 1.29 C0.98 1.13, 1.13 0.98, 1.29 0.85 C1.45 0.71, 1.63 0.59, 1.81 0.49 C1.99 0.38, 2.19 0.29, 2.38 0.22 C2.58 0.15, 2.79 0.09, 2.99 0.06 C3.2 0.02, 3.41 0, 3.62 0 C3.83 0, 4.04 0.02, 4.25 0.06 C4.46 0.09, 4.66 0.15, 4.86 0.22 C5.06 0.29, 5.25 0.38, 5.43 0.49 C5.61 0.59, 5.79 0.71, 5.95 0.85 C6.11 0.98, 6.26 1.13, 6.4 1.29 C6.53 1.45, 6.65 1.63, 6.76 1.81 C6.86 1.99, 6.95 2.19, 7.03 2.38 C7.1 2.58, 7.15 2.79, 7.19 2.99 C7.23 3.2, 7.24 3.52, 7.24 3.62 C7.25 3.73, 7.25 3.52, 7.24 3.62" stroke="none" stroke-width="0" fill="#fa5252"></path><path d="M7.24 3.62 C7.24 3.83, 7.23 4.04, 7.19 4.25 C7.15 4.46, 7.1 4.66, 7.03 4.86 C6.95 5.06, 6.86 5.25, 6.76 5.43 C6.65 5.61, 6.53 5.79, 6.4 5.95 C6.26 6.11, 6.11 6.26, 5.95 6.4 C5.79 6.53, 5.61 6.65, 5.43 6.76 C5.25 6.86, 5.06 6.95, 4.86 7.03 C4.66 7.1, 4.46 7.15, 4.25 7.19 C4.04 7.23, 3.83 7.24, 3.62 7.24 C3.41 7.24, 3.2 7.23, 2.99 7.19 C2.79 7.15, 2.58 7.1, 2.38 7.03 C2.19 6.95, 1.99 6.86, 1.81 6.76 C1.63 6.65, 1.45 6.53, 1.29 6.4 C1.13 6.26, 0.98 6.11, 0.85 5.95 C0.71 5.79, 0.59 5.61, 0.49 5.43 C0.38 5.25, 0.29 5.06, 0.22 4.86 C0.15 4.66, 0.09 4.46, 0.06 4.25 C0.02 4.04, 0 3.83, 0 3.62 C0 3.41, 0.02 3.2, 0.06 2.99 C0.09 2.79, 0.15 2.58, 0.22 2.38 C0.29 2.19, 0.38 1.99, 0.49 1.81 C0.59 1.63, 0.71 1.45, 0.85 1.29 C0.98 1.13, 1.13 0.98, 1.29 0.85 C1.45 0.71, 1.63 0.59, 1.81 0.49 C1.99 0.38, 2.19 0.29, 2.38 0.22 C2.58 0.15, 2.79 0.09, 2.99 0.06 C3.2 0.02, 3.41 0, 3.62 0 C3.83 0, 4.04 0.02, 4.25 0.06 C4.46 0.09, 4.66 0.15, 4.86 0.22 C5.06 0.29, 5.25 0.38, 5.43 0.49 C5.61 0.59, 5.79 0.71, 5.95 0.85 C6.11 0.98, 6.26 1.13, 6.4 1.29 C6.53 1.45, 6.65 1.63, 6.76 1.81 C6.86 1.99, 6.95 2.19, 7.03 2.38 C7.1 2.58, 7.15 2.79, 7.19 2.99 C7.23 3.2, 7.24 3.52, 7.24 3.62 C7.25 3.73, 7.25 3.52, 7.24 3.62" stroke="#000000" stroke-width="1" fill="none"></path></g><g stroke-linecap="round" transform="translate(556.4803348424903 745.1768789474022) rotate(0 3.6220995397370643 3.6220995397372917)"><path d="M7.24 3.62 C7.24 3.83, 7.23 4.04, 7.19 4.25 C7.15 4.46, 7.1 4.66, 7.03 4.86 C6.95 5.06, 6.86 5.25, 6.76 5.43 C6.65 5.61, 6.53 5.79, 6.4 5.95 C6.26 6.11, 6.11 6.26, 5.95 6.4 C5.79 6.53, 5.61 6.65, 5.43 6.76 C5.25 6.86, 5.06 6.95, 4.86 7.03 C4.66 7.1, 4.46 7.15, 4.25 7.19 C4.04 7.23, 3.83 7.24, 3.62 7.24 C3.41 7.24, 3.2 7.23, 2.99 7.19 C2.79 7.15, 2.58 7.1, 2.38 7.03 C2.19 6.95, 1.99 6.86, 1.81 6.76 C1.63 6.65, 1.45 6.53, 1.29 6.4 C1.13 6.26, 0.98 6.11, 0.85 5.95 C0.71 5.79, 0.59 5.61, 0.49 5.43 C0.38 5.25, 0.29 5.06, 0.22 4.86 C0.15 4.66, 0.09 4.46, 0.06 4.25 C0.02 4.04, 0 3.83, 0 3.62 C0 3.41, 0.02 3.2, 0.06 2.99 C0.09 2.79, 0.15 2.58, 0.22 2.38 C0.29 2.19, 0.38 1.99, 0.49 1.81 C0.59 1.63, 0.71 1.45, 0.85 1.29 C0.98 1.13, 1.13 0.98, 1.29 0.85 C1.45 0.71, 1.63 0.59, 1.81 0.49 C1.99 0.38, 2.19 0.29, 2.38 0.22 C2.58 0.15, 2.79 0.09, 2.99 0.06 C3.2 0.02, 3.41 0, 3.62 0 C3.83 0, 4.04 0.02, 4.25 0.06 C4.46 0.09, 4.66 0.15, 4.86 0.22 C5.06 0.29, 5.25 0.38, 5.43 0.49 C5.61 0.59, 5.79 0.71, 5.95 0.85 C6.11 0.98, 6.26 1.13, 6.4 1.29 C6.53 1.45, 6.65 1.63, 6.76 1.81 C6.86 1.99, 6.95 2.19, 7.03 2.38 C7.1 2.58, 7.15 2.79, 7.19 2.99 C7.23 3.2, 7.24 3.52, 7.24 3.62 C7.25 3.73, 7.25 3.52, 7.24 3.62" stroke="none" stroke-width="0" fill="#fab005"></path><path d="M7.24 3.62 C7.24 3.83, 7.23 4.04, 7.19 4.25 C7.15 4.46, 7.1 4.66, 7.03 4.86 C6.95 5.06, 6.86 5.25, 6.76 5.43 C6.65 5.61, 6.53 5.79, 6.4 5.95 C6.26 6.11, 6.11 6.26, 5.95 6.4 C5.79 6.53, 5.61 6.65, 5.43 6.76 C5.25 6.86, 5.06 6.95, 4.86 7.03 C4.66 7.1, 4.46 7.15, 4.25 7.19 C4.04 7.23, 3.83 7.24, 3.62 7.24 C3.41 7.24, 3.2 7.23, 2.99 7.19 C2.79 7.15, 2.58 7.1, 2.38 7.03 C2.19 6.95, 1.99 6.86, 1.81 6.76 C1.63 6.65, 1.45 6.53, 1.29 6.4 C1.13 6.26, 0.98 6.11, 0.85 5.95 C0.71 5.79, 0.59 5.61, 0.49 5.43 C0.38 5.25, 0.29 5.06, 0.22 4.86 C0.15 4.66, 0.09 4.46, 0.06 4.25 C0.02 4.04, 0 3.83, 0 3.62 C0 3.41, 0.02 3.2, 0.06 2.99 C0.09 2.79, 0.15 2.58, 0.22 2.38 C0.29 2.19, 0.38 1.99, 0.49 1.81 C0.59 1.63, 0.71 1.45, 0.85 1.29 C0.98 1.13, 1.13 0.98, 1.29 0.85 C1.45 0.71, 1.63 0.59, 1.81 0.49 C1.99 0.38, 2.19 0.29, 2.38 0.22 C2.58 0.15, 2.79 0.09, 2.99 0.06 C3.2 0.02, 3.41 0, 3.62 0 C3.83 0, 4.04 0.02, 4.25 0.06 C4.46 0.09, 4.66 0.15, 4.86 0.22 C5.06 0.29, 5.25 0.38, 5.43 0.49 C5.61 0.59, 5.79 0.71, 5.95 0.85 C6.11 0.98, 6.26 1.13, 6.4 1.29 C6.53 1.45, 6.65 1.63, 6.76 1.81 C6.86 1.99, 6.95 2.19, 7.03 2.38 C7.1 2.58, 7.15 2.79, 7.19 2.99 C7.23 3.2, 7.24 3.52, 7.24 3.62 C7.25 3.73, 7.25 3.52, 7.24 3.62" stroke="#000000" stroke-width="1" fill="none"></path></g><g stroke-linecap="round" transform="translate(571.9962982599718 745.8296467135469) rotate(0 3.6220995397370643 3.6220995397372917)"><path d="M7.24 3.62 C7.24 3.83, 7.23 4.04, 7.19 4.25 C7.15 4.46, 7.1 4.66, 7.03 4.86 C6.95 5.06, 6.86 5.25, 6.76 5.43 C6.65 5.61, 6.53 5.79, 6.4 5.95 C6.26 6.11, 6.11 6.26, 5.95 6.4 C5.79 6.53, 5.61 6.65, 5.43 6.76 C5.25 6.86, 5.06 6.95, 4.86 7.03 C4.66 7.1, 4.46 7.15, 4.25 7.19 C4.04 7.23, 3.83 7.24, 3.62 7.24 C3.41 7.24, 3.2 7.23, 2.99 7.19 C2.79 7.15, 2.58 7.1, 2.38 7.03 C2.19 6.95, 1.99 6.86, 1.81 6.76 C1.63 6.65, 1.45 6.53, 1.29 6.4 C1.13 6.26, 0.98 6.11, 0.85 5.95 C0.71 5.79, 0.59 5.61, 0.49 5.43 C0.38 5.25, 0.29 5.06, 0.22 4.86 C0.15 4.66, 0.09 4.46, 0.06 4.25 C0.02 4.04, 0 3.83, 0 3.62 C0 3.41, 0.02 3.2, 0.06 2.99 C0.09 2.79, 0.15 2.58, 0.22 2.38 C0.29 2.19, 0.38 1.99, 0.49 1.81 C0.59 1.63, 0.71 1.45, 0.85 1.29 C0.98 1.13, 1.13 0.98, 1.29 0.85 C1.45 0.71, 1.63 0.59, 1.81 0.49 C1.99 0.38, 2.19 0.29, 2.38 0.22 C2.58 0.15, 2.79 0.09, 2.99 0.06 C3.2 0.02, 3.41 0, 3.62 0 C3.83 0, 4.04 0.02, 4.25 0.06 C4.46 0.09, 4.66 0.15, 4.86 0.22 C5.06 0.29, 5.25 0.38, 5.43 0.49 C5.61 0.59, 5.79 0.71, 5.95 0.85 C6.11 0.98, 6.26 1.13, 6.4 1.29 C6.53 1.45, 6.65 1.63, 6.76 1.81 C6.86 1.99, 6.95 2.19, 7.03 2.38 C7.1 2.58, 7.15 2.79, 7.19 2.99 C7.23 3.2, 7.24 3.52, 7.24 3.62 C7.25 3.73, 7.25 3.52, 7.24 3.62" stroke="none" stroke-width="0" fill="#40c057"></path><path d="M7.24 3.62 C7.24 3.83, 7.23 4.04, 7.19 4.25 C7.15 4.46, 7.1 4.66, 7.03 4.86 C6.95 5.06, 6.86 5.25, 6.76 5.43 C6.65 5.61, 6.53 5.79, 6.4 5.95 C6.26 6.11, 6.11 6.26, 5.95 6.4 C5.79 6.53, 5.61 6.65, 5.43 6.76 C5.25 6.86, 5.06 6.95, 4.86 7.03 C4.66 7.1, 4.46 7.15, 4.25 7.19 C4.04 7.23, 3.83 7.24, 3.62 7.24 C3.41 7.24, 3.2 7.23, 2.99 7.19 C2.79 7.15, 2.58 7.1, 2.38 7.03 C2.19 6.95, 1.99 6.86, 1.81 6.76 C1.63 6.65, 1.45 6.53, 1.29 6.4 C1.13 6.26, 0.98 6.11, 0.85 5.95 C0.71 5.79, 0.59 5.61, 0.49 5.43 C0.38 5.25, 0.29 5.06, 0.22 4.86 C0.15 4.66, 0.09 4.46, 0.06 4.25 C0.02 4.04, 0 3.83, 0 3.62 C0 3.41, 0.02 3.2, 0.06 2.99 C0.09 2.79, 0.15 2.58, 0.22 2.38 C0.29 2.19, 0.38 1.99, 0.49 1.81 C0.59 1.63, 0.71 1.45, 0.85 1.29 C0.98 1.13, 1.13 0.98, 1.29 0.85 C1.45 0.71, 1.63 0.59, 1.81 0.49 C1.99 0.38, 2.19 0.29, 2.38 0.22 C2.58 0.15, 2.79 0.09, 2.99 0.06 C3.2 0.02, 3.41 0, 3.62 0 C3.83 0, 4.04 0.02, 4.25 0.06 C4.46 0.09, 4.66 0.15, 4.86 0.22 C5.06 0.29, 5.25 0.38, 5.43 0.49 C5.61 0.59, 5.79 0.71, 5.95 0.85 C6.11 0.98, 6.26 1.13, 6.4 1.29 C6.53 1.45, 6.65 1.63, 6.76 1.81 C6.86 1.99, 6.95 2.19, 7.03 2.38 C7.1 2.58, 7.15 2.79, 7.19 2.99 C7.23 3.2, 7.24 3.52, 7.24 3.62 C7.25 3.73, 7.25 3.52, 7.24 3.62" stroke="#000000" stroke-width="1" fill="none"></path></g><g transform="translate(585.0283777370969 773.4130929007792) rotate(0 7.782137591817445 12.645973586703576)"><text x="0" y="17.291947173406985" font-family="Virgil, Segoe UI Emoji" font-size="19.45534397954384px" fill="#228be6" text-anchor="start" style="white-space: pre;" direction="ltr">G</text></g><g transform="translate(603.5109545176674 773.4130929007792) rotate(0 5.350219594374721 12.645973586703576)"><text x="0" y="17.291947173406985" font-family="Virgil, Segoe UI Emoji" font-size="19.45534397954383px" fill="#d9480f" text-anchor="start" style="white-space: pre;" direction="ltr">o</text></g><g transform="translate(618.1024625023238 773.4130929007792) rotate(0 5.350219594374721 12.645973586703576)"><text x="0" y="17.291947173406985" font-family="Virgil, Segoe UI Emoji" font-size="19.45534397954383px" fill="#fab005" text-anchor="start" style="white-space: pre;" direction="ltr">o</text></g><g transform="translate(631.7212032880052 773.4130929007792) rotate(0 4.863835994886358 12.645973586703576)"><text x="0" y="17.291947173406985" font-family="Virgil, Segoe UI Emoji" font-size="19.455343979543834px" fill="#228be6" text-anchor="start" style="white-space: pre;" direction="ltr">g</text></g><g transform="translate(643.3944096757295 773.4130929007792) rotate(0 2.4319179974427243 12.645973586703576)"><text x="0" y="17.291947173406985" font-family="Virgil, Segoe UI Emoji" font-size="19.455343979543834px" fill="#5c940d" text-anchor="start" style="white-space: pre;" direction="ltr">l</text></g><g transform="translate(651.1765472675506 773.4130929007792) rotate(0 5.350219594374721 12.645973586703576)"><text x="0" y="17.291947173406985" font-family="Virgil, Segoe UI Emoji" font-size="19.45534397954383px" fill="#d9480f" text-anchor="start" style="white-space: pre;" direction="ltr">e</text></g><g stroke-linecap="round" transform="translate(566.4377157122035 803.925557375364) rotate(0 59.55496962626967 8.776521839660745)"><path d="M4.39 0 M4.39 0 C45.71 0.5, 85.36 1.02, 114.72 0 M4.39 0 C32.84 0.19, 62.49 0.49, 114.72 0 M114.72 0 C116.18 0.3, 119.94 0.5, 119.11 4.39 M114.72 0 C116.79 0.81, 119.38 0.99, 119.11 4.39 M119.11 4.39 C118.43 6.79, 118.49 9.34, 119.11 13.16 M119.11 4.39 C118.93 6.33, 119.31 7.68, 119.11 13.16 M119.11 13.16 C120.62 15.67, 117.06 18.25, 114.72 17.55 M119.11 13.16 C119.54 14.87, 118.33 18.74, 114.72 17.55 M114.72 17.55 C81.68 16.85, 48.27 16.96, 4.39 17.55 M114.72 17.55 C74.62 18.01, 35.37 17.45, 4.39 17.55 M4.39 17.55 C2.72 19.12, -1.89 17.15, 0 13.16 M4.39 17.55 C0.27 18.99, 1.69 16.84, 0 13.16 M0 13.16 C0.17 10.29, -0.49 8.49, 0 4.39 M0 13.16 C0 11.59, -0.35 9.57, 0 4.39 M0 4.39 C1.56 2.94, 1.1 -1.14, 4.39 0 M0 4.39 C-0.9 1.9, 2.75 1.82, 4.39 0" stroke="#000000" stroke-width="1" fill="none"></path></g><g stroke-linecap="round" transform="translate(671.1290833710118 808.3138182951939) rotate(0 3.4779019614043136 2.9897753703298804)"><path d="M1.92 0.09 C2.38 -0.19, 2.8 -0.24, 3.46 -0.02 C4.13 0.19, 5.45 0.83, 5.91 1.38 C6.37 1.93, 6.13 2.74, 6.22 3.27 C6.31 3.79, 6.9 4.02, 6.46 4.53 C6.02 5.03, 4.35 6.17, 3.56 6.31 C2.78 6.44, 2.4 5.7, 1.73 5.31 C1.06 4.91, -0.17 4.64, -0.44 3.93 C-0.71 3.23, -0.4 1.81, 0.11 1.06 C0.62 0.32, 2.04 -0.2, 2.62 -0.52 C3.19 -0.84, 3.6 -0.98, 3.55 -0.86 M2.05 1.19 C2.57 0.84, 3.96 -0.24, 4.82 -0.08 C5.69 0.09, 7.05 1.43, 7.24 2.17 C7.43 2.92, 6.17 3.83, 5.98 4.38 C5.78 4.93, 6.35 5.09, 6.07 5.48 C5.78 5.88, 5.18 6.99, 4.27 6.74 C3.36 6.5, 1.44 4.77, 0.6 4.01 C-0.25 3.25, -1 2.7, -0.82 2.18 C-0.64 1.66, 1.13 1.35, 1.66 0.9 C2.19 0.46, 1.97 -0.38, 2.36 -0.48 C2.74 -0.58, 3.83 0.01, 3.96 0.3" stroke="#000000" stroke-width="1" fill="none"></path></g><g stroke-linecap="round"><g transform="translate(677.9336230081208 814.2401703732617) rotate(0 0.042184825801086845 1.9636614548824127)"><path d="M-0.29 -2.7 C0.67 -2.08, 3.31 2.45, 3.98 3.53 M-3.89 2.01 C-3.1 3.04, 1 5.87, 1.98 6.62" stroke="#000000" stroke-width="1" fill="none"></path></g></g><g stroke-linecap="round"><g transform="translate(323.8125 800.0577184780509) rotate(0 91.01171875 -1.091796875)"><path d="M0 0 C30.34 -0.36, 151.69 -1.82, 182.02 -2.18 M0 0 C30.34 -0.36, 151.69 -1.82, 182.02 -2.18" stroke="#000000" stroke-width="2" fill="none"></path></g><g transform="translate(323.8125 800.0577184780509) rotate(0 91.01171875 -1.091796875)"><path d="M182.02 -2.18 L168.51 4.32 L168.35 -8.36 L182.02 -2.18" stroke="none" stroke-width="0" fill="#000000" fill-rule="evenodd"></path><path d="M182.02 -2.18 C177.93 -0.22, 173.84 1.75, 168.51 4.32 M182.02 -2.18 C176.65 0.4, 171.28 2.98, 168.51 4.32 M168.51 4.32 C168.46 0.88, 168.42 -2.55, 168.35 -8.36 M168.51 4.32 C168.45 -0.41, 168.39 -5.13, 168.35 -8.36 M168.35 -8.36 C171.11 -7.12, 173.86 -5.87, 182.02 -2.18 M168.35 -8.36 C171.69 -6.85, 175.02 -5.35, 182.02 -2.18 M182.02 -2.18 C182.02 -2.18, 182.02 -2.18, 182.02 -2.18 M182.02 -2.18 C182.02 -2.18, 182.02 -2.18, 182.02 -2.18" stroke="#000000" stroke-width="2" fill="none"></path></g></g><g stroke-linecap="round"><g transform="translate(557.51171875 703.8624059780507) rotate(0 -46.88671875 -34.373046875)"><path d="M0 0 C-15.63 -11.46, -78.14 -57.29, -93.77 -68.75 M0 0 C-15.63 -11.46, -78.14 -57.29, -93.77 -68.75" stroke="#000000" stroke-width="2" fill="none"></path></g><g transform="translate(557.51171875 703.8624059780507) rotate(0 -46.88671875 -34.373046875)"><path d="M-93.77 -68.75 L-79.06 -65.82 L-86.56 -55.6 L-93.77 -68.75" stroke="none" stroke-width="0" fill="#000000" fill-rule="evenodd"></path><path d="M-93.77 -68.75 C-88.69 -67.74, -83.61 -66.73, -79.06 -65.82 M-93.77 -68.75 C-89.41 -67.88, -85.04 -67.01, -79.06 -65.82 M-79.06 -65.82 C-81.76 -62.14, -84.46 -58.45, -86.56 -55.6 M-79.06 -65.82 C-81.05 -63.11, -83.04 -60.39, -86.56 -55.6 M-86.56 -55.6 C-89.01 -60.07, -91.47 -64.54, -93.77 -68.75 M-86.56 -55.6 C-89.12 -60.27, -91.68 -64.94, -93.77 -68.75 M-93.77 -68.75 C-93.77 -68.75, -93.77 -68.75, -93.77 -68.75 M-93.77 -68.75 C-93.77 -68.75, -93.77 -68.75, -93.77 -68.75" stroke="#000000" stroke-width="2" fill="none"></path></g></g><g transform="translate(535.6953125 638.7647497280507) rotate(0 65 12.5)"><text x="0" y="18" font-family="Virgil, Segoe UI Emoji" font-size="20px" fill="#000000" text-anchor="start" style="white-space: pre;" direction="ltr">"Okay! Done!"</text></g><g transform="translate(240.19921875 470.9249059780507) rotate(0 33 12.5)"><text x="0" y="18" font-family="Virgil, Segoe UI Emoji" font-size="20px" fill="#087f5b" text-anchor="start" style="white-space: pre;" direction="ltr">Render</text></g><g transform="translate(322.28515625 715.7959997280507) rotate(0 33 12.5)"><text x="0" y="18" font-family="Virgil, Segoe UI Emoji" font-size="20px" fill="#087f5b" text-anchor="start" style="white-space: pre;" direction="ltr">Commit</text></g><g transform="translate(365.0390625 815.8545934780509) rotate(0 34.5 12.5)"><text x="0" y="18" font-family="Virgil, Segoe UI Emoji" font-size="20px" fill="#087f5b" text-anchor="start" style="white-space: pre;" direction="ltr">Layout</text></g><g transform="translate(580.66796875 672.0069372280507) rotate(0 26.5 12.5)"><text x="0" y="18" font-family="Virgil, Segoe UI Emoji" font-size="20px" fill="#087f5b" text-anchor="start" style="white-space: pre;" direction="ltr">Paint</text></g></svg>