<svg version="1.1" xmlns="http://www.w3.org/2000/svg" viewBox="0 0 401.6629467369494 411.7265625" width="803.3258934738988" height="823.453125">
  <!-- svg-source:excalidraw -->
  
  <defs>
    <style class="style-fonts">
      @font-face {
        font-family: "Virgil";
        src: url("https://excalidraw.com/Virgil.woff2");
      }
      @font-face {
        font-family: "Cascadia";
        src: url("https://excalidraw.com/Cascadia.woff2");
      }
      @font-face {
        font-family: "Assistant";
        src: url("https://app.excalidraw.com//dist/excalidraw-assets/Assistant-Regular.woff2");
      }
    </style>
    
  </defs>
  <rect x="0" y="0" width="401.6629467369494" height="411.7265625" fill="transparent"></rect><g stroke-linecap="round" transform="translate(126.53165435791016 43.42578125) rotate(0.546642628325672 94.5 17)"><path d="M8.5 0 C45.74 -0.2, 84.58 1.85, 180.5 0 M8.5 0 C44.77 -0.49, 81.77 0.47, 180.5 0 M180.5 0 C187.55 0.01, 189.02 1.86, 189 8.5 M180.5 0 C186.99 -0.41, 191 4.89, 189 8.5 M189 8.5 C187.93 12.22, 189.17 18.03, 189 25.5 M189 8.5 C189.2 15.2, 189.13 21.82, 189 25.5 M189 25.5 C190.77 31.06, 184.62 32.34, 180.5 34 M189 25.5 C187.81 31.12, 184.92 31.71, 180.5 34 M180.5 34 C121.36 32.99, 64.48 33.22, 8.5 34 M180.5 34 C112.7 33.58, 43.02 32.71, 8.5 34 M8.5 34 C1.69 34.03, -1.37 30.01, 0 25.5 M8.5 34 C0.57 32.41, 1.24 30.98, 0 25.5 M0 25.5 C1.1 18.43, 1.11 13.32, 0 8.5 M0 25.5 C-0.64 21.38, -0.1 16.88, 0 8.5 M0 8.5 C1.06 3.81, 4.55 -0.23, 8.5 0 M0 8.5 C-0.55 3.75, 2.79 -0.32, 8.5 0" stroke="#ffffff" stroke-width="1" fill="none"></path></g><g transform="translate(141.90372467041016 50.42578125) rotate(0.546642628325672 79.1279296875 10)"><text x="79.1279296875" y="14.016" font-family="Virgil, Segoe UI Emoji" font-size="16px" fill="#ffffff" text-anchor="middle" style="white-space: pre;" direction="ltr" dominant-baseline="alphabetic">middleware (app.use)</text></g><g stroke-linecap="round" transform="translate(254.89102935791016 49.0390625) rotate(0 0.060546875 0.060546875)"><path d="M0.03 0 C0.05 0, 0.07 0, 0.09 0 M0.03 0 C0.05 0, 0.07 0, 0.09 0 M0.09 0 C-0.01 0.41, -0.27 -0.42, 0.12 0.03 M0.09 0 C0.48 0.34, 0.19 -0.38, 0.12 0.03 M0.12 0.03 C0.12 0.05, 0.12 0.07, 0.12 0.09 M0.12 0.03 C0.12 0.05, 0.12 0.07, 0.12 0.09 M0.12 0.09 C-0.2 0.24, 0.69 0.13, 0.09 0.12 M0.12 0.09 C0.13 -0.34, 0.66 -0.58, 0.09 0.12 M0.09 0.12 C0.07 0.12, 0.06 0.12, 0.03 0.12 M0.09 0.12 C0.07 0.12, 0.06 0.12, 0.03 0.12 M0.03 0.12 C-0.16 -0.16, -0.08 0.38, 0 0.09 M0.03 0.12 C0.39 0.31, 0.45 0.83, 0 0.09 M0 0.09 C0 0.07, 0 0.05, 0 0.03 M0 0.09 C0 0.07, 0 0.05, 0 0.03 M0 0.03 C-0.47 0.28, -0.37 0.12, 0.03 0 M0 0.03 C-0.06 -0.49, 0.42 -0.16, 0.03 0" stroke="#ffffff" stroke-width="1" fill="none"></path></g><g stroke-linecap="round" transform="translate(128.27774810791016 95.1328125) rotate(0 94.5 17)"><path d="M8.5 0 C69.18 2.05, 129.74 0.91, 180.5 0 M8.5 0 C56.23 1.49, 105.69 1.1, 180.5 0 M180.5 0 C185.14 0.57, 190.16 4.55, 189 8.5 M180.5 0 C186.34 -1.93, 187.27 4.77, 189 8.5 M189 8.5 C189.42 12.04, 188.91 18.69, 189 25.5 M189 8.5 C189.05 12.79, 188.53 17.67, 189 25.5 M189 25.5 C187.17 29.81, 186.55 35.03, 180.5 34 M189 25.5 C186.73 31.45, 187.73 36.02, 180.5 34 M180.5 34 C128.7 37.05, 81.76 36.21, 8.5 34 M180.5 34 C133.79 34.28, 86.52 34.38, 8.5 34 M8.5 34 C4.71 34.63, -0.74 30.76, 0 25.5 M8.5 34 C4 35.97, -1.12 30.8, 0 25.5 M0 25.5 C-1.33 20.76, -0.34 14.43, 0 8.5 M0 25.5 C0.09 21.53, -0.63 18.14, 0 8.5 M0 8.5 C-0.42 2.43, 4.11 1.52, 8.5 0 M0 8.5 C2.2 2.37, 1.64 0.91, 8.5 0" stroke="#ffffff" stroke-width="1" fill="none"></path></g><g transform="translate(154.46580505371094 102.1328125) rotate(0 68.31194305419922 10)"><text x="68.31194305419922" y="14.016" font-family="Virgil, Segoe UI Emoji" font-size="16px" fill="#ffffff" text-anchor="middle" style="white-space: pre;" direction="ltr" dominant-baseline="alphabetic">request (app.get)</text></g><g stroke-linecap="round" transform="translate(187.59024810791016 140.51953125) rotate(0 94.5 17)"><path d="M8.5 0 C74.48 0.95, 139.4 0.72, 180.5 0 M8.5 0 C61.69 -0.34, 115.94 -1.27, 180.5 0 M180.5 0 C184.29 0.75, 187.14 3.83, 189 8.5 M180.5 0 C188.24 0.79, 187.79 0.87, 189 8.5 M189 8.5 C189.82 14.21, 189.78 16.02, 189 25.5 M189 8.5 C188.92 15.46, 188.53 21.73, 189 25.5 M189 25.5 C188.76 30.67, 186.6 33.19, 180.5 34 M189 25.5 C186.77 30.89, 185.09 36.01, 180.5 34 M180.5 34 C140.2 36.14, 100.34 36.36, 8.5 34 M180.5 34 C126.76 33.69, 72.68 33.05, 8.5 34 M8.5 34 C3.84 32.31, 0.9 29.18, 0 25.5 M8.5 34 C3.78 34.54, -1.33 29.12, 0 25.5 M0 25.5 C1.24 19.6, -1.38 12.36, 0 8.5 M0 25.5 C-0.8 21.92, 0.22 18.4, 0 8.5 M0 8.5 C1.09 2.12, 3.6 0.97, 8.5 0 M0 8.5 C1.17 1.72, 3.54 2.24, 8.5 0" stroke="#ffffff" stroke-width="1" fill="none"></path></g><g transform="translate(192.59024810791016 147.51953125) rotate(0 30.175979614257812 10)"><text x="0" y="14.016" font-family="Virgil, Segoe UI Emoji" font-size="16px" fill="#ffffff" text-anchor="start" style="white-space: pre;" direction="ltr" dominant-baseline="alphabetic"> db call</text></g><g stroke-linecap="round"><g transform="translate(271.03082819509746 182.25) rotate(0 -7.41364941859365 22.400507909997856)"><path d="M-0.31 -0.4 C-2.78 2.48, -12.18 10.26, -14.57 17.71 C-16.96 25.17, -14.63 39.87, -14.64 44.31" stroke="#ffffff" stroke-width="1.5" fill="none" stroke-dasharray="1.5 7"></path></g><g transform="translate(271.03082819509746 182.25) rotate(0 -7.41364941859365 22.400507909997856)"><path d="M-20.05 32.11 C-18.59 36.71, -16.68 40.33, -14.64 44.31" stroke="#ffffff" stroke-width="1.5" fill="none" stroke-dasharray="1.5 5"></path></g><g transform="translate(271.03082819509746 182.25) rotate(0 -7.41364941859365 22.400507909997856)"><path d="M-10.94 31.48 C-12.67 36.28, -13.95 40.12, -14.64 44.31" stroke="#ffffff" stroke-width="1.5" fill="none" stroke-dasharray="1.5 5"></path></g></g><mask></mask><g transform="translate(282.69571685791016 193.27734375) rotate(0 21.183990478515625 10)"><text x="0" y="14.016" font-family="Virgil, Segoe UI Emoji" font-size="16px" fill="#ffffff" text-anchor="start" style="white-space: pre;" direction="ltr" dominant-baseline="alphabetic">async</text></g><g stroke-linecap="round" transform="translate(185.3176735857969 238.8359375) rotate(0 103.17263657557623 15)"><path d="M7.5 0 C69.94 0.61, 131.94 -2.12, 198.85 0 M7.5 0 C65.31 -0.37, 123.31 -0.29, 198.85 0 M198.85 0 C202.39 1.93, 206.52 1.81, 206.35 7.5 M198.85 0 C205.96 -2.23, 207.28 1.89, 206.35 7.5 M206.35 7.5 C206.92 11.79, 207.56 19.2, 206.35 22.5 M206.35 7.5 C206.59 12.29, 206.86 17.3, 206.35 22.5 M206.35 22.5 C207.21 27.16, 203.07 31.51, 198.85 30 M206.35 22.5 C207.94 28.86, 203.16 30.04, 198.85 30 M198.85 30 C143.01 28.8, 91.25 30.79, 7.5 30 M198.85 30 C132.91 30.35, 65.76 30.65, 7.5 30 M7.5 30 C2.64 31.14, 1.49 28.56, 0 22.5 M7.5 30 C2.99 29.45, -0.34 28.68, 0 22.5 M0 22.5 C-1.04 19.08, -0.05 17.71, 0 7.5 M0 22.5 C-0.49 18, 0.73 12.98, 0 7.5 M0 7.5 C1.13 3.09, 2.82 1.7, 7.5 0 M0 7.5 C-2.06 0.23, 0.39 -1.97, 7.5 0" stroke="#ffffff" stroke-width="1" fill="none"></path></g><g transform="translate(190.3176735857969 243.8359375) rotate(0 66.75196075439453 10)"><text x="0" y="14.016" font-family="Virgil, Segoe UI Emoji" font-size="16px" fill="#ffffff" text-anchor="start" style="white-space: pre;" direction="ltr" dominant-baseline="alphabetic"> microservice call</text></g><g stroke-linecap="round"><g transform="translate(261.6090920720653 284.4196334930067) rotate(0 -7.41364941859365 22.400507909997856)"><path d="M0.21 0.33 C-2.27 3.35, -14.27 10.42, -14.44 17.89 C-14.61 25.35, -3.09 40.55, -0.8 45.12" stroke="#ffffff" stroke-width="1.5" fill="none" stroke-dasharray="1.5 7"></path></g><g transform="translate(261.6090920720653 284.4196334930067) rotate(0 -7.41364941859365 22.400507909997856)"><path d="M-12.59 35.76 C-7.71 39.8, -4.01 42.95, -0.8 45.12" stroke="#ffffff" stroke-width="1.5" fill="none" stroke-dasharray="1.5 5"></path></g><g transform="translate(261.6090920720653 284.4196334930067) rotate(0 -7.41364941859365 22.400507909997856)"><path d="M-3.82 30.37 C-2.25 36.47, -1.87 41.65, -0.8 45.12" stroke="#ffffff" stroke-width="1.5" fill="none" stroke-dasharray="1.5 5"></path></g></g><mask></mask><g transform="translate(273.273980734878 295.4469772430067) rotate(0 21.183990478515625 10)"><text x="0" y="14.016" font-family="Virgil, Segoe UI Emoji" font-size="16px" fill="#ffffff" text-anchor="start" style="white-space: pre;" direction="ltr" dominant-baseline="alphabetic">async</text></g><g stroke-linecap="round" transform="translate(181.95352935791016 349.59679327211313) rotate(0 101.14748818635394 15)"><path d="M7.5 0 C58.06 -0.96, 105.4 -2.55, 194.79 0 M7.5 0 C46.53 1.27, 86.02 1.02, 194.79 0 M194.79 0 C200.3 -1.07, 200.46 2.79, 202.29 7.5 M194.79 0 C201.83 -1.08, 200.59 2.49, 202.29 7.5 M202.29 7.5 C202.66 13.41, 202.11 18.95, 202.29 22.5 M202.29 7.5 C202.56 13.6, 202.34 18.38, 202.29 22.5 M202.29 22.5 C201.02 26.87, 198.74 30.51, 194.79 30 M202.29 22.5 C202.92 26.36, 201.16 29.91, 194.79 30 M194.79 30 C135.7 30.47, 77.92 29.41, 7.5 30 M194.79 30 C153.4 28.28, 111.56 28.67, 7.5 30 M7.5 30 C3.2 31.31, -0.04 27.5, 0 22.5 M7.5 30 C1.66 28.85, -1.45 26.11, 0 22.5 M0 22.5 C1.48 17.34, -1.38 12.08, 0 7.5 M0 22.5 C-0.4 16.9, 0.52 10.6, 0 7.5 M0 7.5 C0.25 2.54, 3.87 1.81, 7.5 0 M0 7.5 C2.02 4.29, 4.73 0.26, 7.5 0" stroke="#ffffff" stroke-width="1" fill="none"></path></g><g transform="translate(186.95352935791016 354.59679327211313) rotate(0 95.60794830322266 10)"><text x="0" y="14.016" font-family="Virgil, Segoe UI Emoji" font-size="16px" fill="#ffffff" text-anchor="start" style="white-space: pre;" direction="ltr" dominant-baseline="alphabetic"> return HTTP response </text></g><g stroke-linecap="round"><g transform="translate(141.85196685791016 129.9609375) rotate(0 18.779296875 118.8046875)"><path d="M0 0 C0.91 51.41, -1.04 102.97, -1.92 237.61 M-1.92 237.61 C8.19 235.4, 21.26 237.6, 39.48 236.66" stroke="#ffffff" stroke-width="1.5" fill="none" stroke-dasharray="8 9"></path></g></g><mask></mask><g stroke-linecap="round"><g transform="translate(104.41837310791016 10) rotate(0 -1.091796875 195.86328125)"><path d="M0 0 C-3.45 143.42, -3.87 286.48, -2.18 391.73 M0 0 C1.62 156.05, 0.09 312.36, -2.18 391.73" stroke="#ffffff" stroke-width="1" fill="none"></path></g><g transform="translate(104.41837310791016 10) rotate(0 -1.091796875 195.86328125)"><path d="M-10.27 368.07 C-8.38 377.29, -4.77 385.92, -2.18 391.73 M-10.27 368.07 C-5.86 377.16, -3.77 386.77, -2.18 391.73" stroke="#ffffff" stroke-width="1" fill="none"></path></g><g transform="translate(104.41837310791016 10) rotate(0 -1.091796875 195.86328125)"><path d="M6.83 368.41 C2.48 377.53, -0.16 386.03, -2.18 391.73 M6.83 368.41 C4.42 377.49, -0.31 386.97, -2.18 391.73" stroke="#ffffff" stroke-width="1" fill="none"></path></g></g><mask></mask><g transform="translate(10 98.6640625) rotate(0 36.13597869873047 60)"><text x="36.13597869873047" y="14.016" font-family="Virgil, Segoe UI Emoji" font-size="16px" fill="#ffffff" text-anchor="middle" style="white-space: pre;" direction="ltr" dominant-baseline="alphabetic">HTTP</text><text x="36.13597869873047" y="34.016" font-family="Virgil, Segoe UI Emoji" font-size="16px" fill="#ffffff" text-anchor="middle" style="white-space: pre;" direction="ltr" dominant-baseline="alphabetic">Request</text><text x="36.13597869873047" y="54.016" font-family="Virgil, Segoe UI Emoji" font-size="16px" fill="#ffffff" text-anchor="middle" style="white-space: pre;" direction="ltr" dominant-baseline="alphabetic"></text><text x="36.13597869873047" y="74.016" font-family="Virgil, Segoe UI Emoji" font-size="16px" fill="#ffffff" text-anchor="middle" style="white-space: pre;" direction="ltr" dominant-baseline="alphabetic">1 user</text><text x="36.13597869873047" y="94.016" font-family="Virgil, Segoe UI Emoji" font-size="16px" fill="#ffffff" text-anchor="middle" style="white-space: pre;" direction="ltr" dominant-baseline="alphabetic">1 request</text><text x="36.13597869873047" y="114.016" font-family="Virgil, Segoe UI Emoji" font-size="16px" fill="#ffffff" text-anchor="middle" style="white-space: pre;" direction="ltr" dominant-baseline="alphabetic">1 session</text></g><g stroke-linecap="round"><g transform="translate(142.5911056995633 159.37762406132177) rotate(0 22.805587102466234 0.1546821948028878)"><path d="M0.33 0.11 C8.02 0.14, 38.2 0.2, 45.73 0.22" stroke="#ffffff" stroke-width="1.5" fill="none" stroke-dasharray="8 9"></path></g></g><mask></mask><g stroke-linecap="round"><g transform="translate(142.43524272464765 253.26381240611227) rotate(0 21.41344734923996 0.07793148745793133)"><path d="M-0.29 0.12 C6.89 0.18, 35.83 0.25, 43.03 0.26" stroke="#ffffff" stroke-width="1.5" fill="none" stroke-dasharray="8 9"></path></g></g><mask></mask></svg>
