<svg version="1.1" xmlns="http://www.w3.org/2000/svg" viewBox="0 0 442.00748222432276 394.8629797118381" width="884.0149644486455" height="789.7259594236762">
  <!-- svg-source:excalidraw -->
  
  <defs>
    <style class="style-fonts">
      @font-face {
        font-family: "Virgil";
        src: url("https://excalidraw.com/Virgil.woff2");
      }
      @font-face {
        font-family: "Cascadia";
        src: url("https://excalidraw.com/Cascadia.woff2");
      }
      @font-face {
        font-family: "Assistant";
        src: url("https://app.excalidraw.com//dist/excalidraw-assets/Assistant-Regular.woff2");
      }
    </style>
    
  </defs>
  <rect x="0" y="0" width="442.00748222432276" height="394.8629797118381" fill="transparent"></rect><g stroke-linecap="round" transform="translate(139.42609463938152 11.472082431126864) rotate(0 94.5 17)"><path d="M8.5 0 C65.91 2.31, 121.25 0.9, 180.5 0 M8.5 0 C59.45 -0.39, 110.27 -0.24, 180.5 0 M180.5 0 C187.74 1.02, 188.32 3.31, 189 8.5 M180.5 0 C185.52 2.09, 188.69 4.08, 189 8.5 M189 8.5 C189.78 13.77, 189.91 16.44, 189 25.5 M189 8.5 C189.23 13.07, 188.93 17.28, 189 25.5 M189 25.5 C189.21 29.95, 185.32 33.6, 180.5 34 M189 25.5 C189.68 32.55, 185.06 36.15, 180.5 34 M180.5 34 C140.64 35.49, 98.5 33.16, 8.5 34 M180.5 34 C127.35 32.54, 75.11 32.57, 8.5 34 M8.5 34 C2.92 32.88, -1.46 30.82, 0 25.5 M8.5 34 C4.4 34.8, 0.18 31.31, 0 25.5 M0 25.5 C-1.15 19.23, -1.47 12.27, 0 8.5 M0 25.5 C0.06 22.62, 0.01 18.62, 0 8.5 M0 8.5 C0.28 4.43, 3.17 0.62, 8.5 0 M0 8.5 C0.55 4.96, 4.88 0.99, 8.5 0" stroke="#ffffff" stroke-width="1" fill="none"></path></g><g transform="translate(165.6141515851823 18.472082431126864) rotate(0 68.31194305419922 10)"><text x="68.31194305419922" y="14.016" font-family="Virgil, Segoe UI Emoji" font-size="16px" fill="#ffffff" text-anchor="middle" style="white-space: pre;" direction="ltr" dominant-baseline="alphabetic">request (app.get)</text></g><g stroke-linecap="round" transform="translate(175.84632380101357 56.259117548686845) rotate(0 94.5 17)"><path d="M8.5 0 C70.72 -0.52, 134.02 1.1, 180.5 0 M8.5 0 C66.32 -0.29, 122.23 -0.56, 180.5 0 M180.5 0 C185.61 1.82, 188.73 3.92, 189 8.5 M180.5 0 C184.61 -1.73, 187.43 4.06, 189 8.5 M189 8.5 C188.63 15.68, 188.12 21.66, 189 25.5 M189 8.5 C189.06 12.98, 188.61 18.33, 189 25.5 M189 25.5 C189.59 32.37, 185.21 35.87, 180.5 34 M189 25.5 C187.6 32.21, 187.62 35.5, 180.5 34 M180.5 34 C125.58 31.71, 68.89 32.39, 8.5 34 M180.5 34 C133.35 33.04, 85.4 33.43, 8.5 34 M8.5 34 C4.2 34.7, 0.15 31.3, 0 25.5 M8.5 34 C4.45 36.28, 2.18 29.84, 0 25.5 M0 25.5 C-1.24 19.84, 0.6 15.25, 0 8.5 M0 25.5 C0.13 19.39, 0.15 12.19, 0 8.5 M0 8.5 C0.48 4.68, 4.61 0.86, 8.5 0 M0 8.5 C1.53 2.89, 2.39 -0.89, 8.5 0" stroke="#ffffff" stroke-width="1" fill="none"></path></g><g transform="translate(180.84632380101357 63.259117548686845) rotate(0 30.175979614257812 10)"><text x="0" y="14.016" font-family="Virgil, Segoe UI Emoji" font-size="16px" fill="#ffffff" text-anchor="start" style="white-space: pre;" direction="ltr" dominant-baseline="alphabetic"> db call</text></g><g stroke-linecap="round" transform="translate(171.68615534881974 199.873364134457) rotate(0 103.17263657557623 15)"><path d="M7.5 0 C81.81 -2.18, 154.56 -2.06, 198.85 0 M7.5 0 C81.61 -1.79, 156.4 -0.5, 198.85 0 M198.85 0 C205.4 1.23, 206.4 1.94, 206.35 7.5 M198.85 0 C204.87 -1.33, 206.76 2.37, 206.35 7.5 M206.35 7.5 C205.35 11.1, 205.96 16.41, 206.35 22.5 M206.35 7.5 C205.82 13.24, 206.75 18.8, 206.35 22.5 M206.35 22.5 C206.75 27.83, 201.92 30.18, 198.85 30 M206.35 22.5 C205.62 25.89, 203.91 29.41, 198.85 30 M198.85 30 C122.14 28.62, 47.34 31.44, 7.5 30 M198.85 30 C135.48 31.12, 71.66 29.55, 7.5 30 M7.5 30 C2.53 28.47, -0.75 25.88, 0 22.5 M7.5 30 C1.78 30.64, 0.01 29.78, 0 22.5 M0 22.5 C1.1 18.33, 0.37 14.02, 0 7.5 M0 22.5 C0.37 16.64, -0.28 10.44, 0 7.5 M0 7.5 C-0.12 0.72, 2.03 -0.44, 7.5 0 M0 7.5 C1.7 1.4, 4.28 0.46, 7.5 0" stroke="#ffffff" stroke-width="1" fill="none"></path></g><g transform="translate(176.68615534881974 204.873364134457) rotate(0 66.75196075439453 10)"><text x="0" y="14.016" font-family="Virgil, Segoe UI Emoji" font-size="16px" fill="#ffffff" text-anchor="start" style="white-space: pre;" direction="ltr" dominant-baseline="alphabetic"> microservice call</text></g><g stroke-linecap="round" transform="translate(170.69700268243741 354.8629797118381) rotate(0 101.14748818635394 15)"><path d="M7.5 0 C59.69 -0.1, 115.96 2.83, 194.79 0 M7.5 0 C75.62 -0.05, 143.02 0.47, 194.79 0 M194.79 0 C199.44 -1.1, 202.51 1.28, 202.29 7.5 M194.79 0 C198.82 -0.46, 202.97 3.89, 202.29 7.5 M202.29 7.5 C203.12 12.22, 203.41 15.36, 202.29 22.5 M202.29 7.5 C201.91 11.72, 202.17 16.8, 202.29 22.5 M202.29 22.5 C204.19 27.04, 199.88 28.88, 194.79 30 M202.29 22.5 C200.62 27.1, 201.36 30.8, 194.79 30 M194.79 30 C139.17 33.21, 78.42 31.35, 7.5 30 M194.79 30 C152.63 28.76, 111.09 29.48, 7.5 30 M7.5 30 C2.39 31.34, 0.28 29.1, 0 22.5 M7.5 30 C2.88 30.71, 0.55 29.62, 0 22.5 M0 22.5 C-0.03 16.37, -0.65 10.74, 0 7.5 M0 22.5 C0.59 18.98, 0.61 16.32, 0 7.5 M0 7.5 C-0.2 4.4, 2.48 -1.03, 7.5 0 M0 7.5 C0.95 1.18, 1.89 -0.93, 7.5 0" stroke="#ffffff" stroke-width="1" fill="none"></path></g><g transform="translate(175.69700268243741 359.8629797118381) rotate(0 95.60794830322266 10)"><text x="0" y="14.016" font-family="Virgil, Segoe UI Emoji" font-size="16px" fill="#ffffff" text-anchor="start" style="white-space: pre;" direction="ltr" dominant-baseline="alphabetic"> return HTTP response </text></g><g stroke-linecap="round"><g transform="translate(126.99514574727755 10) rotate(0 1.0586067393364829 185.32875807226566)"><path d="M0 0 C1.85 140.65, 2.29 280.42, 2.12 370.66 M0 0 C0.28 108.66, 0.58 217.94, 2.12 370.66" stroke="#ffffff" stroke-width="1" fill="none"></path></g><g transform="translate(126.99514574727755 10) rotate(0 1.0586067393364829 185.32875807226566)"><path d="M-6.63 347.24 C-3.74 356.98, -1.03 365.3, 2.12 370.66 M-6.63 347.24 C-4 353.57, -1.95 360.86, 2.12 370.66" stroke="#ffffff" stroke-width="1" fill="none"></path></g><g transform="translate(126.99514574727755 10) rotate(0 1.0586067393364829 185.32875807226566)"><path d="M10.47 347.09 C6.89 356.89, 3.15 365.27, 2.12 370.66 M10.47 347.09 C8.07 353.37, 5.09 360.71, 2.12 370.66" stroke="#ffffff" stroke-width="1" fill="none"></path></g></g><mask></mask><g stroke-linecap="round" transform="translate(143.3767011545924 101.70025828348992) rotate(0 94.5 17)"><path d="M8.5 0 C49.27 -0.27, 88.09 1.33, 180.5 0 M8.5 0 C57.61 -0.59, 105.32 0.28, 180.5 0 M180.5 0 C186.69 1.66, 190.5 3.59, 189 8.5 M180.5 0 C185.71 -2.26, 187.8 4.38, 189 8.5 M189 8.5 C189.27 13.55, 187.45 17.07, 189 25.5 M189 8.5 C188.5 13.13, 189.29 17.79, 189 25.5 M189 25.5 C187.58 29.54, 185.6 32.67, 180.5 34 M189 25.5 C188.2 33.07, 184.2 31.88, 180.5 34 M180.5 34 C127.1 32.87, 75.65 34.17, 8.5 34 M180.5 34 C143.25 34.43, 106.51 33.25, 8.5 34 M8.5 34 C3.96 33.49, -1.57 29.62, 0 25.5 M8.5 34 C0.71 35.66, 0.81 31.03, 0 25.5 M0 25.5 C0.1 20.75, 0.21 17.78, 0 8.5 M0 25.5 C0.73 18.44, -0.23 13.4, 0 8.5 M0 8.5 C-1.66 1.45, 4.52 0.15, 8.5 0 M0 8.5 C0.51 4.84, 2.55 1.2, 8.5 0" stroke="#f08c00" stroke-width="1" fill="none"></path></g><g transform="translate(169.5647581003932 108.70025828348992) rotate(0 68.31194305419922 10)"><text x="68.31194305419922" y="14.016" font-family="Virgil, Segoe UI Emoji" font-size="16px" fill="#f08c00" text-anchor="middle" style="white-space: pre;" direction="ltr" dominant-baseline="alphabetic">request (app.get)</text></g><g stroke-linecap="round" transform="translate(175.30861493056864 146.37927585234934) rotate(0 94.5 17)"><path d="M8.5 0 C48.46 -0.05, 89.21 0.95, 180.5 0 M8.5 0 C51.19 0.24, 94.11 -0.21, 180.5 0 M180.5 0 C185.77 -1.97, 187.96 4.18, 189 8.5 M180.5 0 C183.95 1.12, 190.42 3.09, 189 8.5 M189 8.5 C188.68 14.56, 188.52 21.01, 189 25.5 M189 8.5 C188.47 12.28, 188.83 16.87, 189 25.5 M189 25.5 C188.3 32.82, 184.46 32.16, 180.5 34 M189 25.5 C188.99 29.21, 184.91 31.84, 180.5 34 M180.5 34 C128.79 33.2, 80.44 33.99, 8.5 34 M180.5 34 C120.58 32.61, 58.74 32.09, 8.5 34 M8.5 34 C0.98 35.44, 0.71 31.04, 0 25.5 M8.5 34 C1.88 35.56, -1.57 31.46, 0 25.5 M0 25.5 C1.32 21.67, -1.4 17.66, 0 8.5 M0 25.5 C-0.68 21.01, 0.74 17.76, 0 8.5 M0 8.5 C0.44 4.58, 2.59 1.04, 8.5 0 M0 8.5 C-1.69 3.67, 3.79 -0.95, 8.5 0" stroke="#f08c00" stroke-width="1" fill="none"></path></g><g transform="translate(180.30861493056864 153.37927585234934) rotate(0 30.175979614257812 10)"><text x="0" y="14.016" font-family="Virgil, Segoe UI Emoji" font-size="16px" fill="#f08c00" text-anchor="start" style="white-space: pre;" direction="ltr" dominant-baseline="alphabetic"> db call</text></g><g stroke-linecap="round" transform="translate(172.15232296192698 254.03492818757582) rotate(0 103.17263657557623 15)"><path d="M7.5 0 C62.47 1, 114.88 -0.89, 198.85 0 M7.5 0 C45.11 -0.8, 85.27 -1.18, 198.85 0 M198.85 0 C205.72 -1.92, 208.28 2.31, 206.35 7.5 M198.85 0 C203 -0.43, 205.16 1.65, 206.35 7.5 M206.35 7.5 C205.02 12.19, 205.24 17.21, 206.35 22.5 M206.35 7.5 C206.21 12.6, 205.81 18.27, 206.35 22.5 M206.35 22.5 C206.16 25.7, 204.96 28.28, 198.85 30 M206.35 22.5 C204.33 27.39, 202.74 31.19, 198.85 30 M198.85 30 C149.7 29.51, 100.02 29.23, 7.5 30 M198.85 30 C127.22 30.56, 55.75 30.01, 7.5 30 M7.5 30 C2.08 30.39, 1.26 29.1, 0 22.5 M7.5 30 C3.74 28.15, 2.24 25.88, 0 22.5 M0 22.5 C-1.18 19.51, -0.03 14.32, 0 7.5 M0 22.5 C-0.53 16.96, 0.33 10.57, 0 7.5 M0 7.5 C-0.78 3.52, 0.67 -0.17, 7.5 0 M0 7.5 C1.63 3.34, 1.74 -1.16, 7.5 0" stroke="#f08c00" stroke-width="1" fill="none"></path></g><g transform="translate(177.15232296192698 259.0349281875758) rotate(0 66.75196075439453 10)"><text x="0" y="14.016" font-family="Virgil, Segoe UI Emoji" font-size="16px" fill="#f08c00" text-anchor="start" style="white-space: pre;" direction="ltr" dominant-baseline="alphabetic"> microservice call</text></g><g stroke-linecap="round" transform="translate(171.58027086740185 306.0735230196651) rotate(0 101.14748818635394 15)"><path d="M7.5 0 C54.91 3.04, 100.6 3.68, 194.79 0 M7.5 0 C45.3 -0.01, 83.33 -0.2, 194.79 0 M194.79 0 C200.62 -1.39, 200.88 0.87, 202.29 7.5 M194.79 0 C199.14 -1.53, 201.49 4.4, 202.29 7.5 M202.29 7.5 C200.88 9.9, 200.75 13.79, 202.29 22.5 M202.29 7.5 C201.72 10.61, 202.02 14.18, 202.29 22.5 M202.29 22.5 C201.38 26.17, 200.92 29.49, 194.79 30 M202.29 22.5 C200.49 25.72, 197.67 31.66, 194.79 30 M194.79 30 C133.34 27.86, 69.44 28.81, 7.5 30 M194.79 30 C135.51 30.69, 76.12 30.79, 7.5 30 M7.5 30 C2.17 31.91, -1.66 26.12, 0 22.5 M7.5 30 C4.44 30.18, 0.51 29.51, 0 22.5 M0 22.5 C0.47 18.8, -0.7 13.28, 0 7.5 M0 22.5 C0.67 17.51, -0.11 11.6, 0 7.5 M0 7.5 C0.35 1.18, 0.74 -0.69, 7.5 0 M0 7.5 C-0.49 0.65, 1.42 -2.14, 7.5 0" stroke="#f08c00" stroke-width="1" fill="none"></path></g><g transform="translate(176.58027086740185 311.0735230196651) rotate(0 95.60794830322266 10)"><text x="0" y="14.016" font-family="Virgil, Segoe UI Emoji" font-size="16px" fill="#f08c00" text-anchor="start" style="white-space: pre;" direction="ltr" dominant-baseline="alphabetic"> return HTTP response </text></g><g stroke-linecap="round"><g transform="translate(101.66810039527263 87.82397414872617) rotate(0 1.109902817327793 122.84333826581513)"><path d="M0 0 C-1.23 96.08, -0.5 192.54, 2.22 245.69 M0 0 C0.83 63.93, 1.76 128.64, 2.22 245.69" stroke="#f08c00" stroke-width="1" fill="none"></path></g><g transform="translate(101.66810039527263 87.82397414872617) rotate(0 1.109902817327793 122.84333826581513)"><path d="M-6.46 222.24 C-3.46 230.65, -0.22 239.59, 2.22 245.69 M-6.46 222.24 C-4.79 227.65, -2.09 233.96, 2.22 245.69" stroke="#f08c00" stroke-width="1" fill="none"></path></g><g transform="translate(101.66810039527263 87.82397414872617) rotate(0 1.109902817327793 122.84333826581513)"><path d="M10.64 222.15 C6.91 230.76, 3.41 239.73, 2.22 245.69 M10.64 222.15 C7.81 227.46, 6.02 233.8, 2.22 245.69" stroke="#f08c00" stroke-width="1" fill="none"></path></g></g><mask></mask><g stroke-linecap="round"><g transform="translate(380.9937609285462 163.3125403192763) rotate(0 13.680981254364497 47.25368538053152)"><path d="M0 0 C3.15 2.69, 14.34 7.28, 18.9 16.15 C23.46 25.02, 28.98 40.16, 27.36 53.22 C25.74 66.28, 12.2 87.63, 9.17 94.51" stroke="#f08c00" stroke-width="1.5" fill="none" stroke-dasharray="1.5 7"></path></g><g transform="translate(380.9937609285462 163.3125403192763) rotate(0 13.680981254364497 47.25368538053152)"><path d="M9.17 94.51 L9.85 79.52 L21.08 85.4 L9.17 94.51" stroke="none" stroke-width="0" fill="#f08c00" fill-rule="evenodd"></path><path d="M9.17 94.51 C9.4 89.36, 9.64 84.21, 9.85 79.52 M9.85 79.52 C14.01 81.7, 18.17 83.87, 21.08 85.4 M21.08 85.4 C17.97 87.78, 14.85 90.17, 9.17 94.51 M9.17 94.51 C9.17 94.51, 9.17 94.51, 9.17 94.51" stroke="#f08c00" stroke-width="1.5" fill="none"></path></g></g><mask></mask><g stroke-linecap="round"><g transform="translate(383.64099134063235 269.46265464174985) rotate(0 8.25275390328079 18.692861006925)"><path d="M0 0 C2.75 2.13, 16.11 6.56, 16.51 12.79 C16.9 19.02, 4.73 33.29, 2.38 37.39" stroke="#f08c00" stroke-width="1.5" fill="none" stroke-dasharray="1.5 7"></path></g><g transform="translate(383.64099134063235 269.46265464174985) rotate(0 8.25275390328079 18.692861006925)"><path d="M2.38 37.39 L4.85 23.42 L14.66 30.3 L2.38 37.39" stroke="none" stroke-width="0" fill="#f08c00" fill-rule="evenodd"></path><path d="M2.38 37.39 C3.27 32.37, 4.15 27.35, 4.85 23.42 M4.85 23.42 C7.52 25.29, 10.18 27.16, 14.66 30.3 M14.66 30.3 C10.44 32.73, 6.22 35.17, 2.38 37.39 M2.38 37.39 C2.38 37.39, 2.38 37.39, 2.38 37.39" stroke="#f08c00" stroke-width="1.5" fill="none"></path></g></g><mask></mask><g stroke-linecap="round"><g transform="translate(378.7365666350138 79.76655351410375) rotate(0 16.655460325375316 66.20318042098614)"><path d="M0 0 C5.55 10, 31.9 37.95, 33.31 60.01 C34.72 82.08, 12.61 120.34, 8.47 132.41" stroke="#ffffff" stroke-width="1.5" fill="none" stroke-dasharray="1.5 7"></path></g><g transform="translate(378.7365666350138 79.76655351410375) rotate(0 16.655460325375316 66.20318042098614)"><path d="M8.47 132.41 L8.2 117.41 L19.79 122.56 L8.47 132.41" stroke="none" stroke-width="0" fill="#ffffff" fill-rule="evenodd"></path><path d="M8.47 132.41 C8.38 127.11, 8.28 121.81, 8.2 117.41 M8.2 117.41 C10.6 118.48, 13 119.54, 19.79 122.56 M19.79 122.56 C15.34 126.43, 10.88 130.31, 8.47 132.41 M8.47 132.41 C8.47 132.41, 8.47 132.41, 8.47 132.41" stroke="#ffffff" stroke-width="1.5" fill="none"></path></g></g><mask></mask><g stroke-linecap="round"><g transform="translate(386.8424583312494 215.63154886194218) rotate(0 21.638469398813868 75.43281767822589)"><path d="M0 0 C5.66 3.27, 26.73 7.26, 33.95 19.61 C41.16 31.96, 48.8 52.22, 43.28 74.09 C37.76 95.97, 7.91 138.07, 0.83 150.87" stroke="#ffffff" stroke-width="1.5" fill="none" stroke-dasharray="1.5 7"></path></g><g transform="translate(386.8424583312494 215.63154886194218) rotate(0 21.638469398813868 75.43281767822589)"><path d="M0.83 150.87 L2.63 135.97 L13.39 142.67 L0.83 150.87" stroke="none" stroke-width="0" fill="#ffffff" fill-rule="evenodd"></path><path d="M0.83 150.87 C1.25 147.37, 1.68 143.87, 2.63 135.97 M2.63 135.97 C5.03 137.47, 7.43 138.96, 13.39 142.67 M13.39 142.67 C10.28 144.7, 7.17 146.73, 0.83 150.87 M0.83 150.87 C0.83 150.87, 0.83 150.87, 0.83 150.87" stroke="#ffffff" stroke-width="1.5" fill="none"></path></g></g><mask></mask><g transform="translate(24.08278434625663 15.845566932162797) rotate(0 38.11997985839844 10)"><text x="0" y="14.016" font-family="Virgil, Segoe UI Emoji" font-size="16px" fill="#ffffff" text-anchor="start" style="white-space: pre;" direction="ltr" dominant-baseline="alphabetic">Request 1</text></g><g transform="translate(10 91.87123249875299) rotate(0 38.11997985839844 10)"><text x="0" y="14.016" font-family="Virgil, Segoe UI Emoji" font-size="16px" fill="#f08c00" text-anchor="start" style="white-space: pre;" direction="ltr" dominant-baseline="alphabetic">Request 2</text></g></svg>
