<svg version="1.1" xmlns="http://www.w3.org/2000/svg" viewBox="0 0 418.8979192427132 437.031135518813" width="837.7958384854264" height="874.062271037626">
  <!-- svg-source:excalidraw -->
  
  <defs>
    <style class="style-fonts">
      @font-face {
        font-family: "Virgil";
        src: url("https://excalidraw.com/Virgil.woff2");
      }
      @font-face {
        font-family: "Cascadia";
        src: url("https://excalidraw.com/Cascadia.woff2");
      }
      @font-face {
        font-family: "Assistant";
        src: url("https://app.excalidraw.com//dist/excalidraw-assets/Assistant-Regular.woff2");
      }
    </style>
    
  </defs>
  <rect x="0" y="0" width="418.8979192427132" height="437.031135518813" fill="transparent"></rect><g stroke-linecap="round" transform="translate(169.82641776901528 48.602359225573764) rotate(0 94.5 17)"><path d="M8.5 0 C65.91 2.31, 121.25 0.9, 180.5 0 M8.5 0 C59.45 -0.39, 110.27 -0.24, 180.5 0 M180.5 0 C187.74 1.02, 188.32 3.31, 189 8.5 M180.5 0 C185.52 2.09, 188.69 4.08, 189 8.5 M189 8.5 C189.78 13.77, 189.91 16.44, 189 25.5 M189 8.5 C189.23 13.07, 188.93 17.28, 189 25.5 M189 25.5 C189.21 29.95, 185.32 33.6, 180.5 34 M189 25.5 C189.68 32.55, 185.06 36.15, 180.5 34 M180.5 34 C140.64 35.49, 98.5 33.16, 8.5 34 M180.5 34 C127.35 32.54, 75.11 32.57, 8.5 34 M8.5 34 C2.92 32.88, -1.46 30.82, 0 25.5 M8.5 34 C4.4 34.8, 0.18 31.31, 0 25.5 M0 25.5 C-1.15 19.23, -1.47 12.27, 0 8.5 M0 25.5 C0.06 22.62, 0.01 18.62, 0 8.5 M0 8.5 C0.28 4.43, 3.17 0.62, 8.5 0 M0 8.5 C0.55 4.96, 4.88 0.99, 8.5 0" stroke="#ffffff" stroke-width="1" fill="none"></path></g><g transform="translate(196.01447471481606 55.602359225573764) rotate(0 68.31194305419922 10)"><text x="68.31194305419922" y="14.016" font-family="Virgil, Segoe UI Emoji" font-size="16px" fill="#ffffff" text-anchor="middle" style="white-space: pre;" direction="ltr" dominant-baseline="alphabetic">request (app.get)</text></g><g stroke-linecap="round" transform="translate(206.24664693064733 93.38939434313374) rotate(0 94.5 17)"><path d="M8.5 0 C70.72 -0.52, 134.02 1.1, 180.5 0 M8.5 0 C66.32 -0.29, 122.23 -0.56, 180.5 0 M180.5 0 C185.61 1.82, 188.73 3.92, 189 8.5 M180.5 0 C184.61 -1.73, 187.43 4.06, 189 8.5 M189 8.5 C188.63 15.68, 188.12 21.66, 189 25.5 M189 8.5 C189.06 12.98, 188.61 18.33, 189 25.5 M189 25.5 C189.59 32.37, 185.21 35.87, 180.5 34 M189 25.5 C187.6 32.21, 187.62 35.5, 180.5 34 M180.5 34 C125.58 31.71, 68.89 32.39, 8.5 34 M180.5 34 C133.35 33.04, 85.4 33.43, 8.5 34 M8.5 34 C4.2 34.7, 0.15 31.3, 0 25.5 M8.5 34 C4.45 36.28, 2.18 29.84, 0 25.5 M0 25.5 C-1.24 19.84, 0.6 15.25, 0 8.5 M0 25.5 C0.13 19.39, 0.15 12.19, 0 8.5 M0 8.5 C0.48 4.68, 4.61 0.86, 8.5 0 M0 8.5 C1.53 2.89, 2.39 -0.89, 8.5 0" stroke="#ffffff" stroke-width="1" fill="none"></path></g><g transform="translate(211.24664693064733 100.38939434313374) rotate(0 30.175979614257812 10)"><text x="0" y="14.016" font-family="Virgil, Segoe UI Emoji" font-size="16px" fill="#ffffff" text-anchor="start" style="white-space: pre;" direction="ltr" dominant-baseline="alphabetic"> db call</text></g><g stroke-linecap="round" transform="translate(202.0864784784535 237.0036409289039) rotate(0 103.17263657557623 15)"><path d="M7.5 0 C81.81 -2.18, 154.56 -2.06, 198.85 0 M7.5 0 C81.61 -1.79, 156.4 -0.5, 198.85 0 M198.85 0 C205.4 1.23, 206.4 1.94, 206.35 7.5 M198.85 0 C204.87 -1.33, 206.76 2.37, 206.35 7.5 M206.35 7.5 C205.35 11.1, 205.96 16.41, 206.35 22.5 M206.35 7.5 C205.82 13.24, 206.75 18.8, 206.35 22.5 M206.35 22.5 C206.75 27.83, 201.92 30.18, 198.85 30 M206.35 22.5 C205.62 25.89, 203.91 29.41, 198.85 30 M198.85 30 C122.14 28.62, 47.34 31.44, 7.5 30 M198.85 30 C135.48 31.12, 71.66 29.55, 7.5 30 M7.5 30 C2.53 28.47, -0.75 25.88, 0 22.5 M7.5 30 C1.78 30.64, 0.01 29.78, 0 22.5 M0 22.5 C1.1 18.33, 0.37 14.02, 0 7.5 M0 22.5 C0.37 16.64, -0.28 10.44, 0 7.5 M0 7.5 C-0.12 0.72, 2.03 -0.44, 7.5 0 M0 7.5 C1.7 1.4, 4.28 0.46, 7.5 0" stroke="#ffffff" stroke-width="1" fill="none"></path></g><g transform="translate(207.0864784784535 242.0036409289039) rotate(0 66.75196075439453 10)"><text x="0" y="14.016" font-family="Virgil, Segoe UI Emoji" font-size="16px" fill="#ffffff" text-anchor="start" style="white-space: pre;" direction="ltr" dominant-baseline="alphabetic"> microservice call</text></g><g stroke-linecap="round" transform="translate(201.09732581207118 391.993256506285) rotate(0 101.14748818635394 15)"><path d="M7.5 0 C59.69 -0.1, 115.96 2.83, 194.79 0 M7.5 0 C75.62 -0.05, 143.02 0.47, 194.79 0 M194.79 0 C199.44 -1.1, 202.51 1.28, 202.29 7.5 M194.79 0 C198.82 -0.46, 202.97 3.89, 202.29 7.5 M202.29 7.5 C203.12 12.22, 203.41 15.36, 202.29 22.5 M202.29 7.5 C201.91 11.72, 202.17 16.8, 202.29 22.5 M202.29 22.5 C204.19 27.04, 199.88 28.88, 194.79 30 M202.29 22.5 C200.62 27.1, 201.36 30.8, 194.79 30 M194.79 30 C139.17 33.21, 78.42 31.35, 7.5 30 M194.79 30 C152.63 28.76, 111.09 29.48, 7.5 30 M7.5 30 C2.39 31.34, 0.28 29.1, 0 22.5 M7.5 30 C2.88 30.71, 0.55 29.62, 0 22.5 M0 22.5 C-0.03 16.37, -0.65 10.74, 0 7.5 M0 22.5 C0.59 18.98, 0.61 16.32, 0 7.5 M0 7.5 C-0.2 4.4, 2.48 -1.03, 7.5 0 M0 7.5 C0.95 1.18, 1.89 -0.93, 7.5 0" stroke="#ffffff" stroke-width="1" fill="none"></path></g><g transform="translate(206.09732581207118 396.993256506285) rotate(0 95.60794830322266 10)"><text x="0" y="14.016" font-family="Virgil, Segoe UI Emoji" font-size="16px" fill="#ffffff" text-anchor="start" style="white-space: pre;" direction="ltr" dominant-baseline="alphabetic"> return HTTP response </text></g><g stroke-linecap="round" transform="translate(173.77702428422617 138.9218337728904) rotate(0 94.5 17)"><path d="M8.5 0 C49.27 -0.27, 88.09 1.33, 180.5 0 M8.5 0 C57.61 -0.59, 105.32 0.28, 180.5 0 M180.5 0 C186.69 1.66, 190.5 3.59, 189 8.5 M180.5 0 C185.71 -2.26, 187.8 4.38, 189 8.5 M189 8.5 C189.27 13.55, 187.45 17.07, 189 25.5 M189 8.5 C188.5 13.13, 189.29 17.79, 189 25.5 M189 25.5 C187.58 29.54, 185.6 32.67, 180.5 34 M189 25.5 C188.2 33.07, 184.2 31.88, 180.5 34 M180.5 34 C127.1 32.87, 75.65 34.17, 8.5 34 M180.5 34 C143.25 34.43, 106.51 33.25, 8.5 34 M8.5 34 C3.96 33.49, -1.57 29.62, 0 25.5 M8.5 34 C0.71 35.66, 0.81 31.03, 0 25.5 M0 25.5 C0.1 20.75, 0.21 17.78, 0 8.5 M0 25.5 C0.73 18.44, -0.23 13.4, 0 8.5 M0 8.5 C-1.66 1.45, 4.52 0.15, 8.5 0 M0 8.5 C0.51 4.84, 2.55 1.2, 8.5 0" stroke="#f08c00" stroke-width="1" fill="none"></path></g><g transform="translate(199.96508123002695 145.9218337728904) rotate(0 68.31194305419922 10)"><text x="68.31194305419922" y="14.016" font-family="Virgil, Segoe UI Emoji" font-size="16px" fill="#f08c00" text-anchor="middle" style="white-space: pre;" direction="ltr" dominant-baseline="alphabetic">request (app.get)</text></g><g stroke-linecap="round" transform="translate(205.7089380602024 183.60085134174983) rotate(0 94.5 17)"><path d="M8.5 0 C48.46 -0.05, 89.21 0.95, 180.5 0 M8.5 0 C51.19 0.24, 94.11 -0.21, 180.5 0 M180.5 0 C185.77 -1.97, 187.96 4.18, 189 8.5 M180.5 0 C183.95 1.12, 190.42 3.09, 189 8.5 M189 8.5 C188.68 14.56, 188.52 21.01, 189 25.5 M189 8.5 C188.47 12.28, 188.83 16.87, 189 25.5 M189 25.5 C188.3 32.82, 184.46 32.16, 180.5 34 M189 25.5 C188.99 29.21, 184.91 31.84, 180.5 34 M180.5 34 C128.79 33.2, 80.44 33.99, 8.5 34 M180.5 34 C120.58 32.61, 58.74 32.09, 8.5 34 M8.5 34 C0.98 35.44, 0.71 31.04, 0 25.5 M8.5 34 C1.88 35.56, -1.57 31.46, 0 25.5 M0 25.5 C1.32 21.67, -1.4 17.66, 0 8.5 M0 25.5 C-0.68 21.01, 0.74 17.76, 0 8.5 M0 8.5 C0.44 4.58, 2.59 1.04, 8.5 0 M0 8.5 C-1.69 3.67, 3.79 -0.95, 8.5 0" stroke="#f08c00" stroke-width="1" fill="none"></path></g><g transform="translate(210.7089380602024 190.60085134174983) rotate(0 30.175979614257812 10)"><text x="0" y="14.016" font-family="Virgil, Segoe UI Emoji" font-size="16px" fill="#f08c00" text-anchor="start" style="white-space: pre;" direction="ltr" dominant-baseline="alphabetic"> db call</text></g><g stroke-linecap="round" transform="translate(202.55264609156075 291.2565036769763) rotate(0 103.17263657557623 15)"><path d="M7.5 0 C62.47 1, 114.88 -0.89, 198.85 0 M7.5 0 C45.11 -0.8, 85.27 -1.18, 198.85 0 M198.85 0 C205.72 -1.92, 208.28 2.31, 206.35 7.5 M198.85 0 C203 -0.43, 205.16 1.65, 206.35 7.5 M206.35 7.5 C205.02 12.19, 205.24 17.21, 206.35 22.5 M206.35 7.5 C206.21 12.6, 205.81 18.27, 206.35 22.5 M206.35 22.5 C206.16 25.7, 204.96 28.28, 198.85 30 M206.35 22.5 C204.33 27.39, 202.74 31.19, 198.85 30 M198.85 30 C149.7 29.51, 100.02 29.23, 7.5 30 M198.85 30 C127.22 30.56, 55.75 30.01, 7.5 30 M7.5 30 C2.08 30.39, 1.26 29.1, 0 22.5 M7.5 30 C3.74 28.15, 2.24 25.88, 0 22.5 M0 22.5 C-1.18 19.51, -0.03 14.32, 0 7.5 M0 22.5 C-0.53 16.96, 0.33 10.57, 0 7.5 M0 7.5 C-0.78 3.52, 0.67 -0.17, 7.5 0 M0 7.5 C1.63 3.34, 1.74 -1.16, 7.5 0" stroke="#f08c00" stroke-width="1" fill="none"></path></g><g transform="translate(207.55264609156075 296.2565036769763) rotate(0 66.75196075439453 10)"><text x="0" y="14.016" font-family="Virgil, Segoe UI Emoji" font-size="16px" fill="#f08c00" text-anchor="start" style="white-space: pre;" direction="ltr" dominant-baseline="alphabetic"> microservice call</text></g><g stroke-linecap="round" transform="translate(201.9805939970356 343.203799814112) rotate(0 101.14748818635394 15)"><path d="M7.5 0 C54.91 3.04, 100.6 3.68, 194.79 0 M7.5 0 C45.3 -0.01, 83.33 -0.2, 194.79 0 M194.79 0 C200.62 -1.39, 200.88 0.87, 202.29 7.5 M194.79 0 C199.14 -1.53, 201.49 4.4, 202.29 7.5 M202.29 7.5 C200.88 9.9, 200.75 13.79, 202.29 22.5 M202.29 7.5 C201.72 10.61, 202.02 14.18, 202.29 22.5 M202.29 22.5 C201.38 26.17, 200.92 29.49, 194.79 30 M202.29 22.5 C200.49 25.72, 197.67 31.66, 194.79 30 M194.79 30 C133.34 27.86, 69.44 28.81, 7.5 30 M194.79 30 C135.51 30.69, 76.12 30.79, 7.5 30 M7.5 30 C2.17 31.91, -1.66 26.12, 0 22.5 M7.5 30 C4.44 30.18, 0.51 29.51, 0 22.5 M0 22.5 C0.47 18.8, -0.7 13.28, 0 7.5 M0 22.5 C0.67 17.51, -0.11 11.6, 0 7.5 M0 7.5 C0.35 1.18, 0.74 -0.69, 7.5 0 M0 7.5 C-0.49 0.65, 1.42 -2.14, 7.5 0" stroke="#f08c00" stroke-width="1" fill="none"></path></g><g transform="translate(206.9805939970356 348.203799814112) rotate(0 95.60794830322266 10)"><text x="0" y="14.016" font-family="Virgil, Segoe UI Emoji" font-size="16px" fill="#f08c00" text-anchor="start" style="white-space: pre;" direction="ltr" dominant-baseline="alphabetic"> return HTTP response </text></g><g stroke-linecap="round" transform="translate(112.7414647210212 41.16328787746477) rotate(0 11.431999206542969 192.93392382067412)"><path d="M5.72 0 C9.14 0, 12.57 0, 17.15 0 C20.96 0, 22.86 1.91, 22.86 5.72 C22.86 85.89, 22.86 166.07, 22.86 380.15 C22.86 383.96, 20.96 385.87, 17.15 385.87 C14.21 385.87, 11.26 385.87, 5.72 385.87 C1.91 385.87, 0 383.96, 0 380.15 C0 240.33, 0 100.51, 0 5.72 C0 1.91, 1.91 0, 5.72 0" stroke="none" stroke-width="0" fill="#ffffff"></path><path d="M5.72 0 C9.09 0, 12.47 0, 17.15 0 M5.72 0 C8.44 0, 11.17 0, 17.15 0 M17.15 0 C20.96 0, 22.86 1.91, 22.86 5.72 M17.15 0 C20.96 0, 22.86 1.91, 22.86 5.72 M22.86 5.72 C22.86 102.98, 22.86 200.25, 22.86 380.15 M22.86 5.72 C22.86 93.12, 22.86 180.52, 22.86 380.15 M22.86 380.15 C22.86 383.96, 20.96 385.87, 17.15 385.87 M22.86 380.15 C22.86 383.96, 20.96 385.87, 17.15 385.87 M17.15 385.87 C12.84 385.87, 8.52 385.87, 5.72 385.87 M17.15 385.87 C13.84 385.87, 10.53 385.87, 5.72 385.87 M5.72 385.87 C1.91 385.87, 0 383.96, 0 380.15 M5.72 385.87 C1.91 385.87, 0 383.96, 0 380.15 M0 380.15 C0 239.58, 0 99, 0 5.72 M0 380.15 C0 237.27, 0 94.39, 0 5.72 M0 5.72 C0 1.91, 1.91 0, 5.72 0 M0 5.72 C0 1.91, 1.91 0, 5.72 0" stroke="#ffffff" stroke-width="4" fill="none"></path></g><g stroke-linecap="round" transform="translate(75.503770339315 127.585110875542) rotate(0 12.451620346743084 120.99663877697151)"><path d="M6.23 0 C9.01 0, 11.79 0, 18.68 0 C22.83 0, 24.9 2.08, 24.9 6.23 C24.9 56.86, 24.9 107.5, 24.9 235.77 C24.9 239.92, 22.83 241.99, 18.68 241.99 C15.44 241.99, 12.21 241.99, 6.23 241.99 C2.08 241.99, 0 239.92, 0 235.77 C0 178.61, 0 121.46, 0 6.23 C0 2.08, 2.08 0, 6.23 0" stroke="none" stroke-width="0" fill="#ffd8a8"></path><path d="M6.23 0 C10.96 0, 15.7 0, 18.68 0 M6.23 0 C11 0, 15.77 0, 18.68 0 M18.68 0 C22.83 0, 24.9 2.08, 24.9 6.23 M18.68 0 C22.83 0, 24.9 2.08, 24.9 6.23 M24.9 6.23 C24.9 68.76, 24.9 131.29, 24.9 235.77 M24.9 6.23 C24.9 82.54, 24.9 158.86, 24.9 235.77 M24.9 235.77 C24.9 239.92, 22.83 241.99, 18.68 241.99 M24.9 235.77 C24.9 239.92, 22.83 241.99, 18.68 241.99 M18.68 241.99 C14.72 241.99, 10.77 241.99, 6.23 241.99 M18.68 241.99 C13.94 241.99, 9.19 241.99, 6.23 241.99 M6.23 241.99 C2.08 241.99, 0 239.92, 0 235.77 M6.23 241.99 C2.08 241.99, 0 239.92, 0 235.77 M0 235.77 C0 189.69, 0 143.62, 0 6.23 M0 235.77 C0 174.54, 0 113.31, 0 6.23 M0 6.23 C0 2.08, 2.08 0, 6.23 0 M0 6.23 C0 2.08, 2.08 0, 6.23 0" stroke="#f08c00" stroke-width="1" fill="none"></path></g><g stroke-linecap="round"><g transform="translate(200.79905600368284 359.506620731197) rotate(0 -49.65583854029842 -16.952646007951046)"><path d="M0 0 C-16.55 -5.65, -82.76 -28.25, -99.31 -33.91 M0 0 C-16.55 -5.65, -82.76 -28.25, -99.31 -33.91" stroke="#f08c00" stroke-width="1" fill="none"></path></g><g transform="translate(200.79905600368284 359.506620731197) rotate(0 -49.65583854029842 -16.952646007951046)"><path d="M-99.31 -33.91 L-84.4 -35.51 L-88.49 -23.51 L-99.31 -33.91" stroke="none" stroke-width="0" fill="#f08c00" fill-rule="evenodd"></path><path d="M-99.31 -33.91 C-95.22 -34.35, -91.13 -34.79, -84.4 -35.51 M-99.31 -33.91 C-95.23 -34.35, -91.14 -34.79, -84.4 -35.51 M-84.4 -35.51 C-86.01 -30.79, -87.63 -26.06, -88.49 -23.51 M-84.4 -35.51 C-85.53 -32.19, -86.67 -28.86, -88.49 -23.51 M-88.49 -23.51 C-92.03 -26.91, -95.57 -30.31, -99.31 -33.91 M-88.49 -23.51 C-91.51 -26.41, -94.52 -29.3, -99.31 -33.91 M-99.31 -33.91 C-99.31 -33.91, -99.31 -33.91, -99.31 -33.91 M-99.31 -33.91 C-99.31 -33.91, -99.31 -33.91, -99.31 -33.91" stroke="#f08c00" stroke-width="1" fill="none"></path></g></g><mask></mask><g stroke-linecap="round"><g transform="translate(201.4107572598714 299.1790889383187) rotate(0 -49.19630177569911 -1.9368207980738816)"><path d="M0 0 C-16.4 -0.65, -81.99 -3.23, -98.39 -3.87 M0 0 C-16.4 -0.65, -81.99 -3.23, -98.39 -3.87" stroke="#f08c00" stroke-width="1" fill="none"></path></g><g transform="translate(201.4107572598714 299.1790889383187) rotate(0 -49.19630177569911 -1.9368207980738816)"><path d="M-98.39 -3.87 L-84.56 -9.67 L-85.06 3 L-98.39 -3.87" stroke="none" stroke-width="0" fill="#f08c00" fill-rule="evenodd"></path><path d="M-98.39 -3.87 C-92.89 -6.18, -87.4 -8.48, -84.56 -9.67 M-98.39 -3.87 C-95.13 -5.24, -91.87 -6.61, -84.56 -9.67 M-84.56 -9.67 C-84.71 -5.8, -84.86 -1.93, -85.06 3 M-84.56 -9.67 C-84.67 -6.89, -84.78 -4.11, -85.06 3 M-85.06 3 C-90.12 0.39, -95.17 -2.22, -98.39 -3.87 M-85.06 3 C-89.84 0.53, -94.63 -1.93, -98.39 -3.87 M-98.39 -3.87 C-98.39 -3.87, -98.39 -3.87, -98.39 -3.87 M-98.39 -3.87 C-98.39 -3.87, -98.39 -3.87, -98.39 -3.87" stroke="#f08c00" stroke-width="1" fill="none"></path></g></g><mask></mask><g stroke-linecap="round"><g transform="translate(206.04873096350957 201.66030702607281) rotate(0 -51.36008084609739 1.5614206470314116)"><path d="M0 0 C-17.12 0.52, -85.6 2.6, -102.72 3.12 M0 0 C-17.12 0.52, -85.6 2.6, -102.72 3.12" stroke="#f08c00" stroke-width="1" fill="none"></path></g><g transform="translate(206.04873096350957 201.66030702607281) rotate(0 -51.36008084609739 1.5614206470314116)"><path d="M-102.72 3.12 L-89.32 -3.63 L-88.94 9.05 L-102.72 3.12" stroke="none" stroke-width="0" fill="#f08c00" fill-rule="evenodd"></path><path d="M-102.72 3.12 C-99.84 1.67, -96.96 0.22, -89.32 -3.63 M-102.72 3.12 C-97.43 0.46, -92.14 -2.21, -89.32 -3.63 M-89.32 -3.63 C-89.24 -0.96, -89.16 1.71, -88.94 9.05 M-89.32 -3.63 C-89.19 0.72, -89.06 5.06, -88.94 9.05 M-88.94 9.05 C-94.01 6.87, -99.08 4.69, -102.72 3.12 M-88.94 9.05 C-92.85 7.37, -96.76 5.69, -102.72 3.12 M-102.72 3.12 C-102.72 3.12, -102.72 3.12, -102.72 3.12 M-102.72 3.12 C-102.72 3.12, -102.72 3.12, -102.72 3.12" stroke="#f08c00" stroke-width="1" fill="none"></path></g></g><mask></mask><g stroke-linecap="round"><g transform="translate(167.29243495574428 69.28937250280978) rotate(0 -15.207319289422912 4.803832999470558)"><path d="M0 0 C-5.07 1.6, -25.35 8.01, -30.41 9.61 M0 0 C-5.07 1.6, -25.35 8.01, -30.41 9.61" stroke="#ffffff" stroke-width="1" fill="none"></path></g><g transform="translate(167.29243495574428 69.28937250280978) rotate(0 -15.207319289422912 4.803832999470558)"><path d="M-30.41 9.61 L-19.36 -0.53 L-15.54 11.56 L-30.41 9.61" stroke="none" stroke-width="0" fill="#ffffff" fill-rule="evenodd"></path><path d="M-30.41 9.61 C-27.4 6.84, -24.38 4.07, -19.36 -0.53 M-30.41 9.61 C-28.03 7.42, -25.65 5.24, -19.36 -0.53 M-19.36 -0.53 C-17.86 4.2, -16.37 8.94, -15.54 11.56 M-19.36 -0.53 C-17.9 4.08, -16.45 8.69, -15.54 11.56 M-15.54 11.56 C-20 10.97, -24.45 10.39, -30.41 9.61 M-15.54 11.56 C-20.71 10.88, -25.88 10.2, -30.41 9.61 M-30.41 9.61 C-30.41 9.61, -30.41 9.61, -30.41 9.61 M-30.41 9.61 C-30.41 9.61, -30.41 9.61, -30.41 9.61" stroke="#ffffff" stroke-width="1" fill="none"></path></g></g><mask></mask><g stroke-linecap="round"><g transform="translate(205.63484354638695 115.09088447115414) rotate(0 -34.74524000947417 0.5325757205621926)"><path d="M0 0 C-11.58 0.18, -57.91 0.89, -69.49 1.07 M0 0 C-11.58 0.18, -57.91 0.89, -69.49 1.07" stroke="#ffffff" stroke-width="1" fill="none"></path></g><g transform="translate(205.63484354638695 115.09088447115414) rotate(0 -34.74524000947417 0.5325757205621926)"><path d="M-69.49 1.07 L-55.99 -5.48 L-55.8 7.2 L-69.49 1.07" stroke="none" stroke-width="0" fill="#ffffff" fill-rule="evenodd"></path><path d="M-69.49 1.07 C-64.18 -1.51, -58.86 -4.09, -55.99 -5.48 M-69.49 1.07 C-66.05 -0.6, -62.61 -2.27, -55.99 -5.48 M-55.99 -5.48 C-55.93 -1.37, -55.87 2.74, -55.8 7.2 M-55.99 -5.48 C-55.95 -2.39, -55.9 0.7, -55.8 7.2 M-55.8 7.2 C-61.08 4.83, -66.37 2.46, -69.49 1.07 M-55.8 7.2 C-60.08 5.28, -64.37 3.36, -69.49 1.07 M-69.49 1.07 C-69.49 1.07, -69.49 1.07, -69.49 1.07 M-69.49 1.07 C-69.49 1.07, -69.49 1.07, -69.49 1.07" stroke="#ffffff" stroke-width="1" fill="none"></path></g></g><mask></mask><g stroke-linecap="round"><g transform="translate(202.41504290435978 415.9139977633075) rotate(0 -31.254586572418248 -3.945625266907541)"><path d="M0 0 C-10.42 -1.32, -52.09 -6.58, -62.51 -7.89 M0 0 C-10.42 -1.32, -52.09 -6.58, -62.51 -7.89" stroke="#ffffff" stroke-width="1" fill="none"></path></g><g transform="translate(202.41504290435978 415.9139977633075) rotate(0 -31.254586572418248 -3.945625266907541)"><path d="M-62.51 -7.89 L-48.23 -12.48 L-49.82 0.1 L-62.51 -7.89" stroke="none" stroke-width="0" fill="#ffffff" fill-rule="evenodd"></path><path d="M-62.51 -7.89 C-59.27 -8.93, -56.03 -9.97, -48.23 -12.48 M-62.51 -7.89 C-58.76 -9.09, -55.02 -10.3, -48.23 -12.48 M-48.23 -12.48 C-48.58 -9.71, -48.93 -6.95, -49.82 0.1 M-48.23 -12.48 C-48.62 -9.34, -49.02 -6.21, -49.82 0.1 M-49.82 0.1 C-54.56 -2.88, -59.3 -5.87, -62.51 -7.89 M-49.82 0.1 C-53.16 -2, -56.49 -4.1, -62.51 -7.89 M-62.51 -7.89 C-62.51 -7.89, -62.51 -7.89, -62.51 -7.89 M-62.51 -7.89 C-62.51 -7.89, -62.51 -7.89, -62.51 -7.89" stroke="#ffffff" stroke-width="1" fill="none"></path></g></g><mask></mask><g stroke-linecap="round"><g transform="translate(203.02370087071677 251.17767587902506) rotate(0 -29.588385389518862 -1.5413447025804885)"><path d="M0 0 C-9.86 -0.51, -49.31 -2.57, -59.18 -3.08 M0 0 C-9.86 -0.51, -49.31 -2.57, -59.18 -3.08" stroke="#ffffff" stroke-width="1" fill="none"></path></g><g transform="translate(203.02370087071677 251.17767587902506) rotate(0 -29.588385389518862 -1.5413447025804885)"><path d="M-59.18 -3.08 L-45.27 -8.71 L-45.93 3.96 L-59.18 -3.08" stroke="none" stroke-width="0" fill="#ffffff" fill-rule="evenodd"></path><path d="M-59.18 -3.08 C-53.8 -5.26, -48.42 -7.43, -45.27 -8.71 M-59.18 -3.08 C-53.89 -5.22, -48.6 -7.36, -45.27 -8.71 M-45.27 -8.71 C-45.49 -4.44, -45.72 -0.17, -45.93 3.96 M-45.27 -8.71 C-45.53 -3.76, -45.79 1.19, -45.93 3.96 M-45.93 3.96 C-50.84 1.35, -55.75 -1.26, -59.18 -3.08 M-45.93 3.96 C-49.16 2.24, -52.39 0.52, -59.18 -3.08 M-59.18 -3.08 C-59.18 -3.08, -59.18 -3.08, -59.18 -3.08 M-59.18 -3.08 C-59.18 -3.08, -59.18 -3.08, -59.18 -3.08" stroke="#ffffff" stroke-width="1" fill="none"></path></g></g><mask></mask><g transform="translate(87.25695566966078 10) rotate(0 37.39997863769531 10)"><text x="0" y="14.016" font-family="Virgil, Segoe UI Emoji" font-size="16px" fill="#ffffff" text-anchor="start" style="white-space: pre;" direction="ltr" dominant-baseline="alphabetic">Context 1</text></g><g stroke-linecap="round" transform="translate(143.7586746865568 17.446930218374746) rotate(0 0 0)"><path d="M0 0 C0 0, 0 0, 0 0 C0 0, 0 0, 0 0 C0 0, 0 0, 0 0 C0 0, 0 0, 0 0 C0 0, 0 0, 0 0 C0 0, 0 0, 0 0 C0 0, 0 0, 0 0 C0 0, 0 0, 0 0" stroke="none" stroke-width="0" fill="#ffd8a8"></path><path d="M0 0 C0 0, 0 0, 0 0 M0 0 C0 0, 0 0, 0 0 M0 0 C0 0, 0 0, 0 0 M0 0 C0 0, 0 0, 0 0 M0 0 C0 0, 0 0, 0 0 M0 0 C0 0, 0 0, 0 0 M0 0 C0 0, 0 0, 0 0 M0 0 C0 0, 0 0, 0 0 M0 0 C0 0, 0 0, 0 0 M0 0 C0 0, 0 0, 0 0 M0 0 C0 0, 0 0, 0 0 M0 0 C0 0, 0 0, 0 0 M0 0 C0 0, 0 0, 0 0 M0 0 C0 0, 0 0, 0 0 M0 0 C0 0, 0 0, 0 0 M0 0 C0 0, 0 0, 0 0" stroke="#ffffff" stroke-width="1" fill="none"></path></g><g stroke-linecap="round"><g transform="translate(173.3424951413258 158.50645721138017) rotate(0 -35.63235899543906 7.544315492991757)"><path d="M0 0 C-11.88 2.51, -59.39 12.57, -71.26 15.09 M0 0 C-11.88 2.51, -59.39 12.57, -71.26 15.09" stroke="#f08c00" stroke-width="1" fill="none"></path></g><g transform="translate(173.3424951413258 158.50645721138017) rotate(0 -35.63235899543906 7.544315492991757)"><path d="M-71.26 15.09 L-59.28 6.07 L-56.65 18.47 L-71.26 15.09" stroke="none" stroke-width="0" fill="#f08c00" fill-rule="evenodd"></path><path d="M-71.26 15.09 C-68.38 12.92, -65.5 10.75, -59.28 6.07 M-71.26 15.09 C-66.93 11.83, -62.59 8.57, -59.28 6.07 M-59.28 6.07 C-58.39 10.25, -57.51 14.44, -56.65 18.47 M-59.28 6.07 C-58.63 9.13, -57.98 12.19, -56.65 18.47 M-56.65 18.47 C-60.19 17.66, -63.72 16.84, -71.26 15.09 M-56.65 18.47 C-59.99 17.7, -63.32 16.93, -71.26 15.09 M-71.26 15.09 C-71.26 15.09, -71.26 15.09, -71.26 15.09 M-71.26 15.09 C-71.26 15.09, -71.26 15.09, -71.26 15.09" stroke="#f08c00" stroke-width="1" fill="none"></path></g></g><mask></mask><g transform="translate(10 101.04001531780898) rotate(0 40.927978515625 10)"><text x="0" y="14.016" font-family="Virgil, Segoe UI Emoji" font-size="16px" fill="#f08c00" text-anchor="start" style="white-space: pre;" direction="ltr" dominant-baseline="alphabetic">Context 2</text></g></svg>
