<svg version="1.1" xmlns="http://www.w3.org/2000/svg" viewBox="0 0 202.68972573527662 306.7203265745766" width="405.37945147055325" height="613.4406531491531">
  <!-- svg-source:excalidraw -->
  
  <defs>
    <style class="style-fonts">
      @font-face {
        font-family: "Virgil";
        src: url("https://excalidraw.com/Virgil.woff2");
      }
      @font-face {
        font-family: "Cascadia";
        src: url("https://excalidraw.com/Cascadia.woff2");
      }
      @font-face {
        font-family: "Assistant";
        src: url("https://app.excalidraw.com//dist/excalidraw-assets/Assistant-Regular.woff2");
      }
    </style>
    
  </defs>
  <rect x="0" y="0" width="202.68972573527662" height="306.7203265745766" fill="#042f3b"></rect><g stroke-linecap="round" transform="translate(10 75.36868556762829) rotate(0 33.15448336063355 18.70169130822842)"><path d="M9.35 0 C18.21 1.76, 25.79 1.15, 56.96 0 M9.35 0 C26.64 1.04, 38.99 -1.37, 56.96 0 M56.96 0 C66.9 2.68, 65.44 1.22, 66.31 9.35 M56.96 0 C64.83 -4.48, 66.75 4.4, 66.31 9.35 M66.31 9.35 C67.6 15.07, 67.42 21.54, 66.31 28.05 M66.31 9.35 C65.54 13.05, 66.37 19, 66.31 28.05 M66.31 28.05 C65.85 32.67, 64.18 33.98, 56.96 37.4 M66.31 28.05 C66.72 33.77, 63.63 36.15, 56.96 37.4 M56.96 37.4 C47.36 33.74, 29.66 38.34, 9.35 37.4 M56.96 37.4 C41.14 37.55, 22.69 37.61, 9.35 37.4 M9.35 37.4 C5.9 34.01, 0.53 34.17, 0 28.05 M9.35 37.4 C5.3 38.39, 2.08 37.82, 0 28.05 M0 28.05 C-0.33 20.14, 2.81 15.21, 0 9.35 M0 28.05 C-1.02 23.87, 1.73 18.53, 0 9.35 M0 9.35 C0.38 -0.46, -0.29 2.32, 9.35 0 M0 9.35 C-4.01 0.61, 1.41 -0.98, 9.35 0" stroke="#ffffff" stroke-width="1" fill="none"></path></g><g stroke-linecap="round" transform="translate(123.53553166939582 74.90700310084594) rotate(0 33.15448336063355 18.70169130822842)"><path d="M9.35 0 C22.09 -0.01, 39.94 1.27, 56.96 0 M9.35 0 C28.69 0.37, 45.84 -0.42, 56.96 0 M56.96 0 C65.75 3.1, 66.95 1.13, 66.31 9.35 M56.96 0 C65.67 -2.14, 65.37 2.24, 66.31 9.35 M66.31 9.35 C63.73 11.99, 65.89 23.88, 66.31 28.05 M66.31 9.35 C68.02 15.32, 67.53 23.54, 66.31 28.05 M66.31 28.05 C62.35 35.09, 65.24 38.56, 56.96 37.4 M66.31 28.05 C65.12 36.99, 65.59 34.06, 56.96 37.4 M56.96 37.4 C45.21 33.65, 36.23 35.88, 9.35 37.4 M56.96 37.4 C45.55 38.64, 30.88 38.16, 9.35 37.4 M9.35 37.4 C3.91 35.91, 1.49 33.03, 0 28.05 M9.35 37.4 C7.69 34.46, 2.27 35.43, 0 28.05 M0 28.05 C0.34 21.07, -2.44 12.84, 0 9.35 M0 28.05 C0.79 23.02, -1.16 19.17, 0 9.35 M0 9.35 C-1.72 2.79, 3.67 1.23, 9.35 0 M0 9.35 C3.03 4.4, 7.66 -4.47, 9.35 0" stroke="#f08c00" stroke-width="1" fill="none"></path></g><g transform="translate(151.90601844799858 83.60869440907436) rotate(0 4.78399658203125 10)"><text x="4.78399658203125" y="14.016" font-family="Virgil, Segoe UI Emoji" font-size="16px" fill="#f08c00" text-anchor="middle" style="white-space: pre;" direction="ltr" dominant-baseline="alphabetic">X</text></g><g stroke-linecap="round"><g transform="translate(80.51382857257158 93.55187195162398) rotate(0 19.75006564818068 0.35514035906248864)"><path d="M-0.29 -0.99 C6.28 -0.72, 32.14 0.64, 38.91 1.06 M1.76 1.11 C8.77 1.05, 34.94 -0.63, 41.31 -0.88" stroke="#ffffff" stroke-width="1" fill="none"></path></g><g transform="translate(80.51382857257158 93.55187195162398) rotate(0 19.75006564818068 0.35514035906248864)"><path d="M41.99 -0.49 L27.94 6.91 L25.63 -5.22 L39.34 -2.13" stroke="none" stroke-width="0" fill="#ffffff" fill-rule="evenodd"></path><path d="M40.07 -1.62 C38.28 1.9, 35.43 1.91, 26.83 6.4 M42.05 -0.54 C35.6 2.01, 30.26 4.1, 28.41 6.33 M29.29 6.82 C27.82 4.15, 28.04 -0.96, 28.14 -5.91 M27.61 6.2 C27.97 2.17, 27.46 -2.3, 27.98 -6.34 M27.07 -7.19 C29.97 -5.01, 32.75 -3.77, 42.72 -0.1 M27.95 -6.52 C31.32 -4.92, 35.51 -2.95, 41.92 -1.35 M41.31 -0.88 C41.31 -0.88, 41.31 -0.88, 41.31 -0.88 M41.31 -0.88 C41.31 -0.88, 41.31 -0.88, 41.31 -0.88" stroke="#ffffff" stroke-width="1" fill="none"></path></g></g><mask></mask><g transform="translate(37.505757789945164 132.87890625) rotate(0 66.38397216796875 10)"><text x="0" y="14.016" font-family="Virgil, Segoe UI Emoji" font-size="16px" fill="#ffffff" text-anchor="start" style="white-space: pre;" direction="ltr" dominant-baseline="alphabetic">Dependency Down</text></g><g stroke-linecap="round" transform="translate(12.845227344612795 219.21010589220532) rotate(0 33.15448336063355 18.70169130822842)"><path d="M9.35 0 C27.42 -1.25, 40.33 0.21, 56.96 0 M9.35 0 C17.81 -2.03, 31.14 0.45, 56.96 0 M56.96 0 C66.97 2.24, 68.87 1.13, 66.31 9.35 M56.96 0 C61.79 -2.47, 69.25 3.12, 66.31 9.35 M66.31 9.35 C68.95 16.36, 69.09 19.6, 66.31 28.05 M66.31 9.35 C66.48 16.18, 65.91 21.63, 66.31 28.05 M66.31 28.05 C66.46 30.33, 62.78 34.9, 56.96 37.4 M66.31 28.05 C65.46 35.22, 60.33 32.99, 56.96 37.4 M56.96 37.4 C37.91 40.5, 21.89 41.68, 9.35 37.4 M56.96 37.4 C39.24 34.49, 24.65 35.58, 9.35 37.4 M9.35 37.4 C-0.37 35.54, 3.11 30.73, 0 28.05 M9.35 37.4 C6.78 34.39, 2.87 34.07, 0 28.05 M0 28.05 C1.27 24.61, 0.01 12.83, 0 9.35 M0 28.05 C1.26 25.22, -0.59 19.2, 0 9.35 M0 9.35 C0.88 2, 1.44 3.2, 9.35 0 M0 9.35 C0.7 1, 3.34 0.04, 9.35 0" stroke="#ffffff" stroke-width="1" fill="none"></path></g><g stroke-linecap="round" transform="translate(126.38075901400953 218.86951717542343) rotate(0 33.15448336063355 18.70169130822842)"><path d="M9.35 0 C21.18 0.34, 32.28 -1.34, 56.96 0 M9.35 0 C28.51 1.79, 46.92 1.75, 56.96 0 M56.96 0 C65.76 -1.99, 65.09 0.97, 66.31 9.35 M56.96 0 C66.13 0, 65.83 2.52, 66.31 9.35 M66.31 9.35 C69.41 12.7, 68.31 19.1, 66.31 28.05 M66.31 9.35 C65.72 14.77, 66.38 19.67, 66.31 28.05 M66.31 28.05 C65.89 31.78, 62.46 38.21, 56.96 37.4 M66.31 28.05 C63.45 29.87, 65.48 33.68, 56.96 37.4 M56.96 37.4 C37.42 41.55, 22.89 37.92, 9.35 37.4 M56.96 37.4 C46.96 35.54, 35.77 35.52, 9.35 37.4 M9.35 37.4 C6.23 33.84, 3.19 31.67, 0 28.05 M9.35 37.4 C5.99 37.19, 2.18 38.74, 0 28.05 M0 28.05 C0.21 19.02, -3.6 17.53, 0 9.35 M0 28.05 C-0.59 22.15, 0.1 17.87, 0 9.35 M0 9.35 C-1.67 6.32, 3.73 -1.84, 9.35 0 M0 9.35 C0.23 3.16, 5.85 -3.84, 9.35 0" stroke="#ffffff" stroke-width="1" fill="none"></path></g><g stroke-linecap="round"><g transform="translate(83.3590559171862 237.39329227620055) rotate(0 19.75006564818068 0.3874941759372632)"><path d="M-0.51 0.9 C5.9 1.06, 31.63 -0.11, 38.43 -0.01 M1.43 0.32 C8.19 0.71, 34.16 1.25, 40.58 1.11" stroke="#f08c00" stroke-width="1" fill="none"></path></g><g transform="translate(83.3590559171862 237.39329227620055) rotate(0 19.75006564818068 0.3874941759372632)"><path d="M38.69 -0.89 L26.05 5.81 L25.76 -6.87 L41.95 2.5" stroke="none" stroke-width="0" fill="#f08c00" fill-rule="evenodd"></path><path d="M41.7 -0.23 C35.46 3.92, 33.24 6.24, 27.8 8.36 M41.06 1.11 C37.07 2.51, 33.07 4.73, 27.28 7.97 M27.28 7.39 C27.15 3.4, 26.48 0.24, 25.75 -5.41 M26.57 6.79 C27.31 3.88, 27.47 1, 27.39 -5.56 M25.57 -6.55 C30.82 -2.99, 36.91 -1.61, 39.88 2.28 M27.48 -5.31 C30.28 -3.11, 33.26 -2.17, 41.19 1.18 M40.58 1.11 C40.58 1.11, 40.58 1.11, 40.58 1.11 M40.58 1.11 C40.58 1.11, 40.58 1.11, 40.58 1.11" stroke="#f08c00" stroke-width="1" fill="none"></path></g></g><mask></mask><g transform="translate(40.46817263455887 276.7203265745766) rotate(0 70.26395416259766 10)"><text x="0" y="14.016" font-family="Virgil, Segoe UI Emoji" font-size="16px" fill="#ffffff" text-anchor="start" style="white-space: pre;" direction="ltr" dominant-baseline="alphabetic">Contract Changed</text></g><g transform="translate(61.087789039945164 10) rotate(0 41.749969482421875 12.5)"><text x="0" y="17.52" font-family="Virgil, Segoe UI Emoji" font-size="20px" fill="#ffffff" text-anchor="start" style="white-space: pre;" direction="ltr" dominant-baseline="alphabetic">External</text></g></svg>