<svg version="1.1" xmlns="http://www.w3.org/2000/svg" viewBox="0 0 203.81139685071776 315.1011859495766" width="407.6227937014355" height="630.2023718991531">
  <!-- svg-source:excalidraw -->
  
  <defs>
    <style class="style-fonts">
      @font-face {
        font-family: "Virgil";
        src: url("https://excalidraw.com/Virgil.woff2");
      }
      @font-face {
        font-family: "Cascadia";
        src: url("https://excalidraw.com/Cascadia.woff2");
      }
      @font-face {
        font-family: "Assistant";
        src: url("https://app.excalidraw.com//dist/excalidraw-assets/Assistant-Regular.woff2");
      }
    </style>
    
  </defs>
  <rect x="0" y="0" width="203.81139685071776" height="315.1011859495766" fill="#042f3b"></rect><g stroke-linecap="round" transform="translate(11.798929710053926 78.89955901720532) rotate(0 33.15448336063355 18.70169130822842)"><path d="M9.35 0 C28.32 1.79, 40.64 1.82, 56.96 0 M9.35 0 C28.85 0.02, 44.91 -1.62, 56.96 0 M56.96 0 C65.2 -1.21, 68.36 1.03, 66.31 9.35 M56.96 0 C62.9 -0.82, 65.1 0.41, 66.31 9.35 M66.31 9.35 C64.36 16.9, 65.13 20.8, 66.31 28.05 M66.31 9.35 C64.8 12.47, 65.3 17.77, 66.31 28.05 M66.31 28.05 C64.33 36, 64.26 35.96, 56.96 37.4 M66.31 28.05 C69.13 32.78, 65.69 40.3, 56.96 37.4 M56.96 37.4 C48.83 37.99, 37.37 40.35, 9.35 37.4 M56.96 37.4 C39.78 36.12, 21.92 36.84, 9.35 37.4 M9.35 37.4 C3.04 38.65, -1.55 35.37, 0 28.05 M9.35 37.4 C0.46 32.96, 2.99 38.6, 0 28.05 M0 28.05 C1.22 22.3, -2.81 19.54, 0 9.35 M0 28.05 C0.07 20.83, -1.32 14.09, 0 9.35 M0 9.35 C-0.49 6.12, 1.33 1.75, 9.35 0 M0 9.35 C2.29 1.12, 0.24 -2.16, 9.35 0" stroke="#ffffff" stroke-width="1" fill="none"></path></g><g stroke-linecap="round" transform="translate(125.33446137945066 78.55897030042343) rotate(0 33.15448336063355 18.70169130822842)"><path d="M9.35 0 C19.51 1.08, 37.04 -1.61, 56.96 0 M9.35 0 C26.11 -1.3, 45.31 -0.92, 56.96 0 M56.96 0 C65.24 -2.09, 66.06 2.4, 66.31 9.35 M56.96 0 C61.98 -2.71, 62.89 2.9, 66.31 9.35 M66.31 9.35 C64.95 17.81, 63.17 18.07, 66.31 28.05 M66.31 9.35 C65.26 16.92, 65.12 25, 66.31 28.05 M66.31 28.05 C67.38 32.85, 65.64 36.09, 56.96 37.4 M66.31 28.05 C68.8 37.18, 58.65 37.78, 56.96 37.4 M56.96 37.4 C44.11 40.95, 34.1 41.6, 9.35 37.4 M56.96 37.4 C37.62 35.26, 21.8 37.1, 9.35 37.4 M9.35 37.4 C1.57 38.49, -2.31 30.42, 0 28.05 M9.35 37.4 C6.1 41.72, 0.19 35.33, 0 28.05 M0 28.05 C-2.85 26.16, 2.87 16.86, 0 9.35 M0 28.05 C-1.47 22.91, -0.21 18.66, 0 9.35 M0 9.35 C-1.79 4.86, 5.11 -1.74, 9.35 0 M0 9.35 C-2.88 0.96, 7.3 0.26, 9.35 0" stroke="#ffffff" stroke-width="1" fill="none"></path></g><g transform="translate(145.76895114877607 87.26066160865184) rotate(0 12.719993591308594 10)"><text x="12.719993591308594" y="14.016" font-family="Virgil, Segoe UI Emoji" font-size="16px" fill="#f08c00" text-anchor="middle" style="white-space: pre;" direction="ltr" dominant-baseline="alphabetic">&lt;/&gt;</text></g><g stroke-linecap="round"><g transform="translate(82.31275828262733 97.08274540120055) rotate(0 19.75006564818068 0.3874941759372632)"><path d="M0.42 0.97 C6.87 1.34, 32.47 1.55, 39.12 1.58 M-0.81 0.44 C5.41 0.52, 31.17 0.12, 37.97 -0.12" stroke="#ffffff" stroke-width="1" fill="none"></path></g><g transform="translate(82.31275828262733 97.08274540120055) rotate(0 19.75006564818068 0.3874941759372632)"><path d="M36.69 -1.63 L23.11 8.21 L22.77 -7.16 L37.39 0.43" stroke="none" stroke-width="0" fill="#ffffff" fill-rule="evenodd"></path><path d="M39.18 -0.6 C34.44 3.17, 29.44 3.84, 23.79 7.29 M37.92 -0.25 C34.18 1.17, 30.19 3.37, 24.46 6.15 M23.53 5.8 C25.68 0.74, 23.65 -3.86, 24.33 -6.76 M24.91 6.33 C24.73 2.59, 23.66 -2.1, 23.98 -5.91 M24.97 -4.65 C29.71 -4.71, 31.67 -3.68, 37.06 -0.15 M23.8 -6.86 C29.24 -3.48, 33.33 -2.02, 37.62 0.14 M37.97 -0.12 C37.97 -0.12, 37.97 -0.12, 37.97 -0.12 M37.97 -0.12 C37.97 -0.12, 37.97 -0.12, 37.97 -0.12" stroke="#ffffff" stroke-width="1" fill="none"></path></g></g><mask></mask><g transform="translate(20.9609375 137.44884219957657) rotate(0 78.16795349121094 10)"><text x="0" y="14.016" font-family="Virgil, Segoe UI Emoji" font-size="16px" fill="#ffffff" text-anchor="start" style="white-space: pre;" direction="ltr" dominant-baseline="alphabetic">Their code is buggy!</text></g><g stroke-linecap="round" transform="translate(13.966898460053926 226.55190276720532) rotate(0 33.15448336063355 18.70169130822842)"><path d="M9.35 0 C19.64 1.97, 38.47 4.55, 56.96 0 M9.35 0 C25.25 0.48, 38.89 -1.74, 56.96 0 M56.96 0 C61.23 -0.47, 66.6 0.26, 66.31 9.35 M56.96 0 C66.15 -3.05, 68.84 2.31, 66.31 9.35 M66.31 9.35 C65.58 15.75, 67.81 16.31, 66.31 28.05 M66.31 9.35 C66.14 14.52, 66 18.72, 66.31 28.05 M66.31 28.05 C66.69 38.26, 63.58 34.75, 56.96 37.4 M66.31 28.05 C64.77 30.92, 63.13 40.87, 56.96 37.4 M56.96 37.4 C45.44 41.52, 34.11 34.97, 9.35 37.4 M56.96 37.4 C39.82 35.46, 26.88 37.47, 9.35 37.4 M9.35 37.4 C1.38 37.44, 2.71 33.61, 0 28.05 M9.35 37.4 C0.57 41.98, -1.22 33.45, 0 28.05 M0 28.05 C-0.42 22.7, 3.36 11.76, 0 9.35 M0 28.05 C-0.67 20.82, -0.54 14.89, 0 9.35 M0 9.35 C-0.55 3.86, 4.51 -3.14, 9.35 0 M0 9.35 C0.25 4.06, 4.65 0.09, 9.35 0" stroke="#ffffff" stroke-width="1" fill="none"></path></g><g stroke-linecap="round" transform="translate(127.50243012945066 226.21131405042343) rotate(0 33.15448336063355 18.70169130822842)"><path d="M9.35 0 C21.3 3.5, 30.16 -0.17, 56.96 0 M9.35 0 C27.69 -1.68, 42.46 -0.73, 56.96 0 M56.96 0 C63.48 -2.85, 68.88 0.46, 66.31 9.35 M56.96 0 C65.73 -0.8, 63.82 4.52, 66.31 9.35 M66.31 9.35 C67.61 13.99, 62.67 21.49, 66.31 28.05 M66.31 9.35 C66.16 15.31, 66.48 19.72, 66.31 28.05 M66.31 28.05 C66.7 31.63, 61.85 34.48, 56.96 37.4 M66.31 28.05 C66.25 37.76, 58.71 37.76, 56.96 37.4 M56.96 37.4 C35.18 34.98, 21.28 38.55, 9.35 37.4 M56.96 37.4 C46.68 37.64, 34.98 36.85, 9.35 37.4 M9.35 37.4 C5.83 36.73, -2.21 38.27, 0 28.05 M9.35 37.4 C1.9 36.57, 2.84 32.02, 0 28.05 M0 28.05 C3.24 20.26, 2.02 15.64, 0 9.35 M0 28.05 C-0.6 21.57, -0.08 15.39, 0 9.35 M0 9.35 C1.39 -0.02, 3.33 0.82, 9.35 0 M0 9.35 C1.53 3.21, 3.97 4.47, 9.35 0" stroke="#f08c00" stroke-width="1" fill="none"></path></g><g transform="translate(147.93691989877607 234.91300535865184) rotate(0 12.719993591308594 10)"><text x="12.719993591308594" y="14.016" font-family="Virgil, Segoe UI Emoji" font-size="16px" fill="#ffffff" text-anchor="middle" style="white-space: pre;" direction="ltr" dominant-baseline="alphabetic">&lt;/&gt;</text></g><g stroke-linecap="round"><g transform="translate(84.48072703262733 244.73508915120055) rotate(0 19.75006564818068 0.3874941759372632)"><path d="M0.03 0.7 C6.61 0.93, 33.86 1.5, 40.57 1.39 M-1.41 0.02 C5 -0.09, 33.29 -0.57, 40.18 -0.4" stroke="#ffffff" stroke-width="1" fill="none"></path></g><g transform="translate(84.48072703262733 244.73508915120055) rotate(0 19.75006564818068 0.3874941759372632)"><path d="M38.97 1.44 L27.32 5.04 L27.66 -7.44 L40.85 -1.09" stroke="none" stroke-width="0" fill="#ffffff" fill-rule="evenodd"></path><path d="M41.05 0.93 C35.58 3.08, 28.55 3.87, 26.41 6.04 M40.59 -0.53 C36.71 1.19, 34.51 2.24, 26.94 6.21 M25.66 5.93 C27.61 2.79, 27.86 -0.04, 27.85 -6.62 M26.57 6.41 C26.01 3.02, 27.15 -0.29, 27.11 -7.31 M25.41 -8.22 C28.69 -5.15, 33.17 -4.62, 40.19 0.62 M26.39 -6.88 C30.86 -5.45, 34.02 -3.41, 40.46 0.23 M40.18 -0.4 C40.18 -0.4, 40.18 -0.4, 40.18 -0.4 M40.18 -0.4 C40.18 -0.4, 40.18 -0.4, 40.18 -0.4" stroke="#ffffff" stroke-width="1" fill="none"></path></g></g><mask></mask><g transform="translate(10 285.1011859495766) rotate(0 90.56793212890625 10)"><text x="30" y="14.016" font-family="Virgil, Segoe UI Emoji" font-size="16px" fill="#ffffff" text-anchor="start" style="white-space: pre;" direction="ltr" dominant-baseline="alphabetic">Issue with infra</text></g><g transform="translate(60.07277192296442 10) rotate(0 41.749969482421875 12.5)"><text x="0" y="17.52" font-family="Virgil, Segoe UI Emoji" font-size="20px" fill="#ffffff" text-anchor="start" style="white-space: pre;" direction="ltr" dominant-baseline="alphabetic">External</text></g></svg>
