<svg version="1.1" xmlns="http://www.w3.org/2000/svg" viewBox="0 0 501.371294924852 361.78679222039773" width="1002.742589849704" height="723.5735844407955">
  <!-- svg-source:excalidraw -->
  
  <defs>
    <style class="style-fonts">
      @font-face {
        font-family: "Virgil";
        src: url("https://excalidraw.com/Virgil.woff2");
      }
      @font-face {
        font-family: "Cascadia";
        src: url("https://excalidraw.com/Cascadia.woff2");
      }
      @font-face {
        font-family: "Assistant";
        src: url("https://app.excalidraw.com//dist/excalidraw-assets/Assistant-Regular.woff2");
      }
    </style>
    
  </defs>
  <rect x="0" y="0" width="501.371294924852" height="361.78679222039773" fill="#042f3b"></rect><g stroke-linecap="round" transform="translate(21.951562203982576 54.940926531827245) rotate(0 36.73733359906919 42.05848288199991)"><path d="M18.37 0 C30.74 1.85, 43.86 -0.47, 55.11 0 M18.37 0 C33.61 -0.92, 47.4 0.61, 55.11 0 M55.11 0 C64.09 -0.63, 72.27 7.97, 73.47 18.37 M55.11 0 C69.17 4.11, 73.71 5.56, 73.47 18.37 M73.47 18.37 C72.38 38.81, 74.86 52.07, 73.47 65.75 M73.47 18.37 C72.86 29.51, 72.48 40.15, 73.47 65.75 M73.47 65.75 C70.8 79.91, 65.13 82.21, 55.11 84.12 M73.47 65.75 C70.79 73.87, 65.47 86.57, 55.11 84.12 M55.11 84.12 C47.52 86.82, 41.88 81.47, 18.37 84.12 M55.11 84.12 C42.49 85.79, 29.36 83.14, 18.37 84.12 M18.37 84.12 C2.46 84.34, 0.42 77.47, 0 65.75 M18.37 84.12 C2.18 86.44, 3.51 76.64, 0 65.75 M0 65.75 C1.15 50.54, -0.94 39.35, 0 18.37 M0 65.75 C1.09 50.74, 0.7 36.02, 0 18.37 M0 18.37 C-1.93 9.22, 2.62 -2.61, 18.37 0 M0 18.37 C-1.8 5.58, 3.4 -2.85, 18.37 0" stroke="#ffffff" stroke-width="1" fill="none"></path></g><g stroke-linecap="round"><g transform="translate(34.89496067268101 72.63060379533226) rotate(0 25.618923514432026 0)"><path d="M-0.22 1.1 C0 1.01, 1.31 0.22, 2.41 0.02 C3.52 -0.18, 5.03 -0.21, 6.42 -0.1 C7.82 0.01, 9.37 0.6, 10.78 0.68 C12.19 0.76, 13.07 0.6, 14.91 0.38 C16.74 0.17, 19.58 -0.34, 21.79 -0.6 C24.01 -0.87, 26.14 -1.28, 28.18 -1.19 C30.22 -1.11, 32.47 -0.31, 34.01 -0.1 C35.55 0.11, 36.01 0.14, 37.42 0.08 C38.83 0.03, 40.91 -0.37, 42.47 -0.43 C44.03 -0.48, 45.35 -0.36, 46.76 -0.25 C48.17 -0.14, 50.18 0.26, 50.94 0.23 M-1.79 0.63 C-1.28 0.71, 3.58 1.48, 4.8 1.57 C6.01 1.66, 4.46 1.68, 5.5 1.16 C6.55 0.65, 9.2 -1.49, 11.08 -1.52 C12.95 -1.55, 14.8 0.44, 16.75 0.97 C18.7 1.51, 20.81 1.78, 22.76 1.7 C24.7 1.62, 26.64 0.86, 28.42 0.5 C30.2 0.13, 31.65 -0.2, 33.43 -0.49 C35.2 -0.78, 37.45 -1.16, 39.08 -1.26 C40.71 -1.36, 41.84 -1.41, 43.21 -1.1 C44.58 -0.79, 45.66 0.43, 47.3 0.6 C48.94 0.78, 52.32 0.27, 53.03 -0.07" stroke="#ffffff" stroke-width="1" fill="none"></path></g></g><mask></mask><g stroke-linecap="round"><g transform="translate(34.31399067069833 84.8159404706098) rotate(0 25.618923514432026 0)"><path d="M-0.31 0.77 C0.4 1.03, 3.02 0.48, 4.16 0.53 C5.29 0.59, 5.52 1.19, 6.5 1.1 C7.48 1.01, 8.6 0.22, 10.06 0.02 C11.52 -0.18, 13.15 -0.21, 15.27 -0.1 C17.38 0.01, 20.58 0.6, 22.75 0.68 C24.92 0.76, 26.69 0.6, 28.29 0.38 C29.88 0.17, 30.82 -0.34, 32.32 -0.6 C33.82 -0.87, 35.44 -1.28, 37.28 -1.19 C39.12 -1.11, 41.95 -0.31, 43.36 -0.1 C44.77 0.11, 44.42 0.14, 45.72 0.08 C47.03 0.03, 50.2 -0.37, 51.18 -0.43 M1.73 0.13 C2.38 0.12, 3.15 -1.18, 3.8 -1.31 C4.45 -1.44, 4.59 -1.07, 5.62 -0.66 C6.65 -0.26, 8.03 0.99, 9.98 1.14 C11.93 1.29, 14.93 0.43, 17.3 0.24 C19.67 0.05, 22.33 0.16, 24.21 0 C26.09 -0.17, 26.87 -0.55, 28.58 -0.76 C30.3 -0.97, 32.8 -1.46, 34.51 -1.26 C36.22 -1.06, 37.79 0.35, 38.86 0.46 C39.93 0.57, 39.77 -0.71, 40.91 -0.6 C42.05 -0.49, 44.24 1.19, 45.71 1.11 C47.19 1.03, 48.68 -0.69, 49.74 -1.07" stroke="#ffffff" stroke-width="1" fill="none"></path></g></g><mask></mask><g stroke-linecap="round"><g transform="translate(34.57840329690225 98.80107636533239) rotate(0 25.618923514432026 0)"><path d="M0.37 0.66 C0.51 0.47, 1 -0.88, 1.9 -1.07 C2.79 -1.26, 4.28 -0.48, 5.73 -0.47 C7.18 -0.46, 9.03 -1.24, 10.62 -1.03 C12.21 -0.82, 13.06 0.51, 15.26 0.77 C17.45 1.03, 21.53 0.48, 23.77 0.53 C26.02 0.59, 27.26 1.19, 28.73 1.1 C30.19 1.01, 31.05 0.22, 32.55 0.02 C34.06 -0.18, 36.07 -0.21, 37.74 -0.1 C39.42 0.01, 41.3 0.6, 42.62 0.68 C43.95 0.76, 44.4 0.6, 45.69 0.38 C46.98 0.17, 49.59 -0.34, 50.38 -0.6 M-0.9 -0.04 C-0.49 -0.13, 2.51 -0.2, 4.01 -0.09 C5.51 0.02, 6.97 0.66, 8.1 0.6 C9.24 0.54, 9.3 -0.63, 10.83 -0.47 C12.36 -0.31, 15.4 1.52, 17.28 1.56 C19.16 1.6, 20.12 -0.02, 22.12 -0.23 C24.11 -0.43, 27.13 0.35, 29.25 0.33 C31.38 0.32, 33.14 0.01, 34.86 -0.31 C36.58 -0.62, 38.15 -1.69, 39.58 -1.54 C41.01 -1.39, 42.43 0.07, 43.44 0.59 C44.46 1.1, 44.21 1.89, 45.66 1.57 C47.12 1.25, 51.41 -1.25, 52.18 -1.34" stroke="#ffffff" stroke-width="1" fill="none"></path></g></g><mask></mask><g stroke-linecap="round"><g transform="translate(33.04405705223871 110.53564261327529) rotate(0 25.618923514432026 0)"><path d="M-0.09 -0.46 C0.53 -0.23, 2.96 0.85, 3.96 0.99 C4.95 1.13, 4.66 0.52, 5.89 0.38 C7.12 0.23, 9.77 0.22, 11.33 0.14 C12.89 0.07, 13.5 -0.19, 15.25 -0.08 C17.01 0.02, 19.41 0.97, 21.88 0.79 C24.36 0.61, 28.2 -0.87, 30.11 -1.15 C32.01 -1.43, 31.94 -0.99, 33.33 -0.91 C34.71 -0.84, 36.92 -0.72, 38.41 -0.69 C39.9 -0.67, 41.03 -0.69, 42.28 -0.76 C43.52 -0.84, 44.31 -1.32, 45.87 -1.14 C47.44 -0.97, 50.74 0.28, 51.68 0.29 M-1.6 -1.74 C-1.07 -1.8, 1.83 -0.6, 3.49 -0.61 C5.15 -0.61, 6.95 -2.09, 8.35 -1.77 C9.76 -1.45, 10.44 0.98, 11.93 1.32 C13.41 1.66, 15.45 0.46, 17.28 0.26 C19.11 0.07, 21.15 0.11, 22.89 0.16 C24.63 0.21, 26.12 0.88, 27.7 0.56 C29.28 0.24, 30.84 -1.84, 32.38 -1.73 C33.92 -1.62, 35.17 1.2, 36.93 1.22 C38.68 1.24, 41.41 -1.28, 42.92 -1.61 C44.42 -1.94, 44.68 -1.03, 45.94 -0.76 C47.21 -0.49, 49.5 -0.31, 50.51 0.01" stroke="#ffffff" stroke-width="1" fill="none"></path></g></g><mask></mask><g stroke-linecap="round"><g transform="translate(11.407768248138382 136.49884042092663) rotate(356.7411821350301 17.438432284209284 -4.625816114373265)" fill-rule="evenodd"><path d="M0.68 -0.5 C4.26 -2.93, 16.55 -13.84, 22.02 -16.41 C27.48 -18.98, 31.69 -17.53, 33.46 -15.89 C35.24 -14.25, 34.37 -6.66, 32.66 -6.56 C30.94 -6.47, 23.13 -15.03, 23.17 -15.31 C23.22 -15.58, 35.59 -12.19, 32.94 -8.21 C30.3 -4.23, 12.43 7.14, 7.31 8.59 C2.2 10.04, 3.86 1.81, 2.26 0.49" stroke="none" stroke-width="0" fill="#ffffff" fill-rule="evenodd"></path><path d="M-0.11 -0.2 C3.27 -2.75, 15.08 -12.59, 20.87 -15.31 C26.66 -18.03, 33.08 -17.78, 34.62 -16.53 C36.16 -15.29, 31.82 -7.99, 30.1 -7.86 C28.39 -7.73, 24.37 -15.85, 24.33 -15.74 C24.3 -15.63, 32.68 -11.02, 29.87 -7.2 C27.06 -3.39, 12.26 6.15, 7.48 7.16 C2.7 8.16, 2.57 -0.13, 1.2 -1.16 M-1.63 -1.35 C2.08 -4.23, 17.28 -14.12, 23.17 -17.01 C29.06 -19.89, 32.63 -20.35, 33.72 -18.67 C34.81 -16.99, 31.48 -7.53, 29.72 -6.92 C27.96 -6.3, 22.98 -14.74, 23.15 -14.97 C23.32 -15.21, 33.8 -12.33, 30.76 -8.31 C27.72 -4.28, 9.89 7.55, 4.9 9.2 C-0.09 10.84, 1.48 3.06, 0.8 1.56" stroke="#1e1e1e" stroke-width="1" fill="none"></path></g></g><mask></mask><g transform="translate(25.608038914164354 155.54427824183176) rotate(0 26.13597869873047 10)"><text x="0" y="14.016" font-family="Virgil, Segoe UI Emoji" font-size="16px" fill="#ffffff" text-anchor="start" style="white-space: pre;" direction="ltr" dominant-baseline="alphabetic">Report</text></g><g transform="translate(236.02447922394367 133.47159346106582) rotate(0 17.57598876953125 10)"><text x="0" y="14.016" font-family="Virgil, Segoe UI Emoji" font-size="16px" fill="#ffffff" text-anchor="start" style="white-space: pre;" direction="ltr" dominant-baseline="alphabetic">Logs</text></g><g stroke-linecap="round" transform="translate(377.20744917453067 44.580928819778364) rotate(0 57.08192287516067 37.976469542465566)"><path d="M18.99 0 C39.7 -1.68, 62.15 0.87, 95.18 0 M18.99 0 C40.1 -1.02, 59.31 -0.23, 95.18 0 M95.18 0 C106.14 0.09, 114.5 6.36, 114.16 18.99 M95.18 0 C108.25 1.11, 115.1 6.01, 114.16 18.99 M114.16 18.99 C113.58 32.35, 114.93 47.59, 114.16 56.96 M114.16 18.99 C113.69 32.87, 114.36 45.95, 114.16 56.96 M114.16 56.96 C115.27 71.04, 106.56 76.43, 95.18 75.95 M114.16 56.96 C114.16 67.81, 108.96 74.52, 95.18 75.95 M95.18 75.95 C73.97 75.34, 54.81 74.48, 18.99 75.95 M95.18 75.95 C78.15 75.4, 62.2 75.21, 18.99 75.95 M18.99 75.95 C4.64 77.94, 0.91 69.96, 0 56.96 M18.99 75.95 C7.79 74.92, -1.83 69.76, 0 56.96 M0 56.96 C-1.96 45.82, -1.84 38.29, 0 18.99 M0 56.96 C0.1 46.32, 0.97 37.47, 0 18.99 M0 18.99 C-1 6.35, 5.53 -1.38, 18.99 0 M0 18.99 C0.2 7.91, 5.39 -2.14, 18.99 0" stroke="#ffffff" stroke-width="1" fill="none"></path></g><g stroke-linecap="round"><g transform="translate(396.22048398008064 56.186952268939876) rotate(0 -0.0975097277569148 13.5368266502187)"><path d="M0.29 0.13 C0.11 4.64, -0.56 22.68, -0.55 27.26 M-0.22 -0.28 C-0.27 4.05, 0.42 21.88, 0.5 26.39" stroke="#ffffff" stroke-width="1" fill="none"></path></g></g><mask></mask><g stroke-linecap="round"><g transform="translate(390.7877991478981 76.54945986215716) rotate(0 21.329866003505686 0.03559878949886297)"><path d="M-0.18 0.05 C6.91 -0.01, 35.02 0.25, 42.15 0.19 M0.73 -0.4 C8.01 -0.41, 36.21 -0.79, 43.12 -0.71" stroke="#ffffff" stroke-width="1" fill="none"></path></g></g><mask></mask><g stroke-linecap="round"><g transform="translate(397.8133104761082 70.6513995010082) rotate(0 17.52160446963353 -5.861597422276645)"><path d="M0.33 -0.32 C1.23 -1.64, 2.63 -7.27, 5.34 -7.61 C8.06 -7.95, 12.87 -1.6, 16.62 -2.37 C20.37 -3.15, 24.76 -11.68, 27.86 -12.26 C30.96 -12.85, 34.07 -6.97, 35.21 -5.89 M-0.16 0.7 C0.92 -0.78, 3.41 -7.93, 6.39 -8.34 C9.37 -8.75, 14.14 -1.14, 17.7 -1.76 C21.27 -2.38, 24.97 -11.38, 27.79 -12.04 C30.61 -12.7, 33.39 -6.68, 34.63 -5.72" stroke="#ffffff" stroke-width="1" fill="none"></path></g></g><mask></mask><g stroke-linecap="round" transform="translate(446.6165041944678 54.01532270949701) rotate(0 14.343047743289844 14.035754700038297)"><path d="M17.65 0.17 C20.64 0.74, 24.41 3.37, 26.19 5.88 C27.97 8.39, 28.55 12.28, 28.34 15.23 C28.13 18.19, 26.89 21.55, 24.93 23.61 C22.96 25.68, 19.59 27.34, 16.55 27.64 C13.51 27.93, 9.4 26.97, 6.68 25.41 C3.95 23.84, 1.09 21.06, 0.18 18.26 C-0.73 15.45, -0.15 11.3, 1.21 8.57 C2.58 5.85, 5.56 3.29, 8.36 1.9 C11.15 0.5, 16.37 0.36, 17.97 0.21 C19.58 0.06, 18.11 0.68, 18 1.01 M14.16 -0.35 C16.97 -0.5, 20.81 1.15, 23.25 3.09 C25.69 5.03, 28.21 8.49, 28.79 11.31 C29.38 14.13, 28.38 17.47, 26.77 19.99 C25.16 22.5, 21.9 25.24, 19.16 26.39 C16.41 27.55, 13.03 27.62, 10.3 26.9 C7.57 26.17, 4.34 24.52, 2.77 22.04 C1.2 19.56, 0.51 15.1, 0.87 12.02 C1.24 8.94, 2.82 5.52, 4.95 3.57 C7.08 1.62, 12.04 0.85, 13.63 0.32 C15.22 -0.2, 14.53 0.28, 14.48 0.4" stroke="none" stroke-width="0" fill="#ffffff"></path><path d="M12.83 0.33 C15.81 -0.07, 20.2 1.07, 22.8 2.66 C25.41 4.24, 27.64 6.94, 28.46 9.84 C29.28 12.75, 29.06 17.31, 27.72 20.09 C26.39 22.87, 23.19 25.27, 20.44 26.52 C17.7 27.77, 14.24 28.28, 11.24 27.59 C8.25 26.9, 4.34 24.8, 2.46 22.38 C0.58 19.97, -0.26 16.22, -0.03 13.12 C0.2 10.02, 1.67 5.91, 3.84 3.78 C6.01 1.66, 11.43 0.87, 12.99 0.37 C14.55 -0.12, 13.1 0.56, 13.21 0.8 M15.41 -0.09 C18.17 -0.13, 21.28 1.17, 23.43 3.26 C25.58 5.36, 27.81 9.47, 28.32 12.49 C28.83 15.5, 28.14 18.86, 26.48 21.33 C24.82 23.8, 21.24 26.25, 18.36 27.29 C15.48 28.33, 11.96 28.61, 9.21 27.59 C6.45 26.56, 3.34 23.84, 1.82 21.16 C0.31 18.47, -0.4 14.53, 0.13 11.49 C0.65 8.45, 2.48 4.84, 4.98 2.92 C7.48 0.99, 13.43 0.46, 15.1 -0.05 C16.78 -0.56, 15.12 -0.3, 15.05 -0.15" stroke="#ffffff" stroke-width="1" fill="none"></path></g><g stroke-linecap="round"><g transform="translate(448.99553358094454 59.223466867346815) rotate(0 6.86149168017846 2.1307119425878227)" fill-rule="evenodd"><path d="M0 0 C0.54 -0.56, 2.05 -2.55, 3.23 -3.34 C4.41 -4.13, 5.45 -4.31, 7.08 -4.75 C8.71 -5.18, 11.94 -6.62, 13.04 -5.95 C14.15 -5.27, 13.87 -3.4, 13.72 -0.71 C13.58 1.99, 14.29 9.8, 12.19 10.21 C10.08 10.61, 2.95 3.14, 1.1 1.72" stroke="none" stroke-width="0" fill="#a5d8ff" fill-rule="evenodd"></path><path d="M0 0 C0.54 -0.56, 2.05 -2.55, 3.23 -3.34 C4.41 -4.13, 5.45 -4.31, 7.08 -4.75 C8.71 -5.18, 11.94 -6.62, 13.04 -5.95 C14.15 -5.27, 13.87 -3.4, 13.72 -0.71 C13.58 1.99, 14.29 9.8, 12.19 10.21 C10.08 10.61, 2.95 3.14, 1.1 1.72 M0 0 C0.54 -0.56, 2.05 -2.55, 3.23 -3.34 C4.41 -4.13, 5.45 -4.31, 7.08 -4.75 C8.71 -5.18, 11.94 -6.62, 13.04 -5.95 C14.15 -5.27, 13.87 -3.4, 13.72 -0.71 C13.58 1.99, 14.29 9.8, 12.19 10.21 C10.08 10.61, 2.95 3.14, 1.1 1.72" stroke="#1971c2" stroke-width="1" fill="none"></path></g></g><mask></mask><g stroke-linecap="round"><g transform="translate(394.58737476012084 94.85189670951195) rotate(0 20.588523639804407 -0.9193907070425666)"><path d="M0.23 -0.13 C1.01 -0.48, 2.18 -1.75, 5 -1.72 C7.82 -1.69, 14 0.11, 17.15 0.05 C20.29 0, 21.57 -2.07, 23.85 -2.06 C26.13 -2.06, 28.38 0.11, 30.83 0.07 C33.28 0.04, 36.74 -2.29, 38.54 -2.29 C40.34 -2.28, 41.22 -0.32, 41.62 0.09 M-0.31 -0.68 C0.36 -1.21, 1.65 -2.65, 4.53 -2.47 C7.4 -2.29, 13.68 0.49, 16.94 0.39 C20.19 0.28, 21.61 -3.03, 24.06 -3.1 C26.5 -3.17, 29.1 -0.09, 31.61 -0.02 C34.13 0.05, 37.66 -2.63, 39.14 -2.68 C40.62 -2.73, 40.27 -0.83, 40.47 -0.33" stroke="#ffffff" stroke-width="1" fill="none"></path></g></g><mask></mask><g stroke-linecap="round"><g transform="translate(395.48337866692054 101.60811626325903) rotate(0 20.588523639804407 -0.9193907070425666)"><path d="M0.33 0.96 C1.5 0.55, 2.96 -2.6, 5.89 -2.67 C8.83 -2.75, 15.08 0.3, 17.95 0.51 C20.82 0.71, 20.89 -1.29, 23.11 -1.43 C25.33 -1.57, 28.55 -0.15, 31.26 -0.34 C33.98 -0.54, 37.88 -2.59, 39.4 -2.61 C40.93 -2.64, 40.18 -0.81, 40.42 -0.5 M-0.96 0.42 C0.23 0.18, 2.26 -1.64, 5.38 -1.41 C8.5 -1.18, 14.81 2.14, 17.75 1.79 C20.7 1.44, 21.05 -3.15, 23.05 -3.53 C25.06 -3.9, 27.38 -0.41, 29.8 -0.45 C32.22 -0.48, 35.76 -3.49, 37.57 -3.75 C39.38 -4, 40.32 -2.36, 40.66 -1.96" stroke="#ffffff" stroke-width="1" fill="none"></path></g></g><mask></mask><g stroke-linecap="round"><g transform="translate(394.4417829418808 108.87169439880836) rotate(0 20.588523639804407 -0.9193907070425666)"><path d="M0.53 -0.89 C1.37 -1.34, 1.15 -2.73, 3.93 -2.32 C6.71 -1.92, 13.77 1.61, 17.2 1.53 C20.63 1.44, 21.98 -2.67, 24.5 -2.83 C27.02 -3, 30.06 0.33, 32.32 0.54 C34.58 0.75, 36.56 -1.27, 38.05 -1.56 C39.53 -1.85, 40.55 -1.41, 41.2 -1.22 M-0.65 1.25 C0.64 0.96, 3.16 -0.62, 6.04 -0.88 C8.92 -1.14, 13.41 -0.12, 16.6 -0.31 C19.79 -0.5, 22.71 -2.21, 25.18 -2 C27.65 -1.8, 29.08 0.92, 31.41 0.9 C33.74 0.87, 37.42 -2.09, 39.16 -2.14 C40.9 -2.19, 41.49 0.39, 41.86 0.6" stroke="#ffffff" stroke-width="1" fill="none"></path></g></g><mask></mask><g transform="translate(451.69604981958673 90.94431569345761) rotate(0 10.815994262695312 10)"><text x="0" y="14.016" font-family="Virgil, Segoe UI Emoji" font-size="16px" fill="#ffffff" text-anchor="start" style="white-space: pre;" direction="ltr" dominant-baseline="alphabetic">42</text></g><g transform="translate(397.54546465761814 130.54832859686258) rotate(0 37.93598175048828 10)"><text x="0" y="14.016" font-family="Virgil, Segoe UI Emoji" font-size="16px" fill="#ffffff" text-anchor="start" style="white-space: pre;" direction="ltr" dominant-baseline="alphabetic">Monitoring</text></g><g stroke-linecap="round" transform="translate(189.27275204702255 10) rotate(0 36.73733359906919 42.05848288199991)"><path d="M18.37 0 C30.17 -1.59, 49.52 2.25, 55.11 0 M18.37 0 C33.23 0.77, 45.59 -0.9, 55.11 0 M55.11 0 C67.4 2.11, 72.88 2.63, 73.47 18.37 M55.11 0 C65.61 2.66, 71.35 4.99, 73.47 18.37 M73.47 18.37 C75.91 33.97, 75.88 48.08, 73.47 65.75 M73.47 18.37 C74.13 33.56, 73.61 51.8, 73.47 65.75 M73.47 65.75 C75.81 80.56, 66.12 80.21, 55.11 84.12 M73.47 65.75 C73.46 78.65, 70.87 88.05, 55.11 84.12 M55.11 84.12 C49.42 81.59, 34.49 80.25, 18.37 84.12 M55.11 84.12 C44.03 85.71, 35.72 82.22, 18.37 84.12 M18.37 84.12 C7.2 87.59, 1.86 76.54, 0 65.75 M18.37 84.12 C9.46 83.07, 0.83 79.39, 0 65.75 M0 65.75 C-0.75 49.83, -2.66 26.68, 0 18.37 M0 65.75 C-0.86 54.29, -1.7 41.4, 0 18.37 M0 18.37 C-3.44 5.04, 8.24 -0.05, 18.37 0 M0 18.37 C-2.82 1.77, 3.9 1.41, 18.37 0" stroke="#ffffff" stroke-width="1" fill="none"></path></g><g stroke-linecap="round"><g transform="translate(202.21615051572098 27.689677263504564) rotate(0 25.618923514432026 0)"><path d="M-0.59 1.1 C0.11 1.31, 2.22 0.95, 3.6 0.69 C4.97 0.43, 6.3 -0.39, 7.65 -0.46 C9 -0.52, 10.3 0.34, 11.71 0.3 C13.12 0.25, 14.3 -0.76, 16.13 -0.7 C17.95 -0.65, 20.56 0.69, 22.66 0.63 C24.77 0.57, 27.09 -1.06, 28.77 -1.05 C30.44 -1.04, 31.27 0.57, 32.72 0.69 C34.18 0.82, 35.91 -0.32, 37.49 -0.3 C39.06 -0.27, 40.81 0.73, 42.19 0.87 C43.56 1, 44.08 0.58, 45.73 0.53 C47.37 0.47, 50.94 0.51, 52.05 0.52 M1.3 0.63 C1.95 0.55, 1.93 -1.06, 2.94 -1.07 C3.96 -1.07, 5.78 0.19, 7.38 0.62 C8.97 1.06, 11.24 1.77, 12.5 1.55 C13.76 1.34, 13.02 -0.41, 14.95 -0.68 C16.88 -0.96, 21.69 -0.31, 24.08 -0.08 C26.48 0.16, 28.09 0.59, 29.32 0.72 C30.55 0.85, 29.81 0.53, 31.46 0.72 C33.1 0.9, 37.3 1.8, 39.18 1.83 C41.07 1.85, 41.69 0.88, 42.78 0.87 C43.87 0.86, 44.34 1.87, 45.72 1.79 C47.11 1.7, 50.42 0.65, 51.07 0.36" stroke="#ffffff" stroke-width="1" fill="none"></path></g></g><mask></mask><g stroke-linecap="round"><g transform="translate(201.63518051373921 39.87501393878301) rotate(0 25.618923514432026 0)"><path d="M0.56 0.69 C1.32 0.43, 2.77 -0.39, 3.97 -0.46 C5.17 -0.52, 6.54 0.34, 7.75 0.3 C8.96 0.25, 9.94 -0.76, 11.24 -0.7 C12.55 -0.65, 13.71 0.69, 15.58 0.63 C17.45 0.57, 20.32 -1.06, 22.47 -1.05 C24.62 -1.04, 26.8 0.57, 28.49 0.69 C30.18 0.82, 31.09 -0.32, 32.62 -0.3 C34.16 -0.27, 36.16 0.73, 37.7 0.87 C39.25 1, 40.33 0.58, 41.9 0.53 C43.48 0.47, 45.41 0.51, 47.16 0.52 C48.92 0.52, 51.9 0.6, 52.42 0.58 M-0.6 0.01 C0.13 0.43, 2.16 0.55, 3.51 0.84 C4.86 1.14, 6.15 1.9, 7.53 1.77 C8.9 1.63, 10.69 0.1, 11.79 0.03 C12.89 -0.04, 12.12 1.19, 14.12 1.35 C16.12 1.52, 21.33 1.3, 23.79 1.02 C26.25 0.75, 27.03 0.02, 28.89 -0.29 C30.76 -0.59, 33.2 -0.83, 34.97 -0.79 C36.74 -0.75, 38.28 -0.25, 39.51 -0.06 C40.74 0.13, 40.95 0.04, 42.35 0.35 C43.75 0.66, 46.37 1.75, 47.91 1.77 C49.46 1.79, 51.27 0.79, 51.63 0.46" stroke="#ffffff" stroke-width="1" fill="none"></path></g></g><mask></mask><g stroke-linecap="round"><g transform="translate(201.89959313994314 53.86014983350469) rotate(0 25.618923514432026 0)"><path d="M0.93 -0.46 C1.52 -0.52, 3.01 0.34, 4.06 0.3 C5.12 0.25, 6.18 -0.76, 7.28 -0.7 C8.39 -0.65, 9.35 0.69, 10.7 0.63 C12.05 0.57, 13.47 -1.06, 15.39 -1.05 C17.3 -1.04, 20.03 0.57, 22.19 0.69 C24.36 0.82, 26.62 -0.32, 28.39 -0.3 C30.16 -0.27, 31.33 0.73, 32.84 0.87 C34.34 1, 35.67 0.58, 37.42 0.53 C39.17 0.47, 41.66 0.51, 43.34 0.52 C45.03 0.52, 46.37 0.6, 47.53 0.58 C48.69 0.56, 49.56 0.63, 50.31 0.4 M-0.04 -1.74 C0.43 -2.25, 2.52 -2, 3.66 -1.67 C4.8 -1.34, 5.6 0.23, 6.81 0.24 C8.03 0.26, 9.78 -1.35, 10.95 -1.59 C12.12 -1.83, 11.75 -1.47, 13.82 -1.21 C15.89 -0.94, 20.88 0.12, 23.37 0.02 C25.85 -0.08, 27.37 -1.96, 28.74 -1.8 C30.12 -1.64, 29.91 0.78, 31.63 0.98 C33.36 1.18, 37.54 -0.47, 39.08 -0.58 C40.62 -0.69, 39.92 0.54, 40.88 0.33 C41.83 0.13, 42.95 -1.77, 44.81 -1.79 C46.68 -1.82, 50.76 -0.39, 52.08 0.18" stroke="#ffffff" stroke-width="1" fill="none"></path></g></g><mask></mask><g stroke-linecap="round"><g transform="translate(200.3652468952796 65.5947160814485) rotate(0 25.618923514432026 0)"><path d="M1.03 0.3 C1.47 0.25, 2.65 -0.76, 3.6 -0.7 C4.55 -0.65, 5.58 0.69, 6.73 0.63 C7.89 0.57, 9.11 -1.06, 10.5 -1.05 C11.9 -1.04, 13.18 0.57, 15.11 0.69 C17.04 0.82, 19.85 -0.32, 22.1 -0.3 C24.34 -0.27, 26.86 0.73, 28.61 0.87 C30.35 1, 30.85 0.58, 32.56 0.53 C34.27 0.47, 37 0.51, 38.86 0.52 C40.72 0.52, 42.61 0.6, 43.71 0.58 C44.8 0.56, 44.03 0.63, 45.42 0.4 C46.82 0.17, 51.01 -0.76, 52.07 -0.79 M0.11 -0.59 C0.37 -0.45, 1.97 0.59, 2.95 0.46 C3.92 0.33, 4.69 -1.22, 5.98 -1.38 C7.26 -1.54, 8.81 -0.96, 10.66 -0.49 C12.5 -0.02, 14.97 1.62, 17.06 1.45 C19.15 1.28, 21.21 -1.24, 23.22 -1.49 C25.22 -1.74, 27.13 -0.35, 29.07 -0.02 C31.01 0.3, 33.44 0.56, 34.87 0.46 C36.29 0.37, 36.52 -0.59, 37.61 -0.6 C38.71 -0.6, 40.16 0.07, 41.44 0.43 C42.71 0.8, 43.65 1.93, 45.26 1.59 C46.87 1.25, 49.93 -1.28, 51.09 -1.62" stroke="#ffffff" stroke-width="1" fill="none"></path></g></g><mask></mask><g stroke-linecap="round" transform="translate(217.88988306272404 17.478795789044398) rotate(0 36.73733359906919 42.05848288199991)"><path d="M18.37 0 C29.51 -4.67, 42.13 -2.19, 55.11 0 C63.05 -0.86, 78.05 6.06, 73.47 18.37 C75.67 33.76, 68.72 45.45, 73.47 65.75 C69.18 76.13, 68.84 85.51, 55.11 84.12 C39.72 81.81, 31.35 82.94, 18.37 84.12 C7.18 85.62, -4.96 79.18, 0 65.75 C-1.16 44.81, -3.84 31.46, 0 18.37 C3.31 7.86, 10.19 3.17, 18.37 0" stroke="none" stroke-width="0" fill="#042f3b"></path><path d="M18.37 0 C31.75 3.04, 47.79 1.4, 55.11 0 M18.37 0 C31.66 -0.62, 40.78 0.23, 55.11 0 M55.11 0 C65.45 -1.36, 69.58 8.6, 73.47 18.37 M55.11 0 C68.75 0.9, 72.67 4.13, 73.47 18.37 M73.47 18.37 C75.63 27.94, 73.66 42.74, 73.47 65.75 M73.47 18.37 C70.91 36.03, 72.18 49.33, 73.47 65.75 M73.47 65.75 C75.24 81.65, 70.68 86.73, 55.11 84.12 M73.47 65.75 C74.31 74.16, 70.28 88.66, 55.11 84.12 M55.11 84.12 C41.37 80.38, 29.4 81.18, 18.37 84.12 M55.11 84.12 C46.62 82.82, 35.64 84.86, 18.37 84.12 M18.37 84.12 C9.74 88, -2.1 80.74, 0 65.75 M18.37 84.12 C9.18 80.43, -4.1 80.73, 0 65.75 M0 65.75 C1.7 50.52, -0.5 37.48, 0 18.37 M0 65.75 C-0.34 50.99, 0.83 38.19, 0 18.37 M0 18.37 C-2.78 9, 3.16 1.92, 18.37 0 M0 18.37 C4.17 10.7, 6.94 0.37, 18.37 0" stroke="#ffffff" stroke-width="1" fill="none"></path></g><g stroke-linecap="round"><g transform="translate(230.83328153142247 35.16847305254896) rotate(0 25.618923514432026 0)"><path d="M0.86 0.79 C1.48 0.81, 2.44 0.45, 3.4 0.13 C4.37 -0.19, 5.25 -0.99, 6.65 -1.15 C8.05 -1.3, 10.36 -0.94, 11.8 -0.79 C13.24 -0.65, 13.59 -0.34, 15.3 -0.28 C17.02 -0.22, 20 -0.58, 22.08 -0.41 C24.16 -0.24, 25.87 0.64, 27.78 0.74 C29.69 0.85, 31.86 0.45, 33.54 0.23 C35.22 0.02, 36.37 -0.33, 37.83 -0.52 C39.3 -0.71, 40.98 -1.15, 42.33 -0.92 C43.68 -0.68, 44.65 0.67, 45.94 0.86 C47.24 1.06, 49.32 0.35, 50.08 0.27 M-0.14 0.15 C0.37 0.39, 1.65 1.84, 2.65 1.74 C3.65 1.64, 4.8 -0.12, 5.85 -0.43 C6.91 -0.74, 7.06 -0.17, 8.97 -0.1 C10.89 -0.04, 14.98 0.22, 17.35 -0.04 C19.72 -0.3, 21.45 -1.64, 23.19 -1.66 C24.93 -1.69, 26.22 -0.49, 27.81 -0.21 C29.39 0.07, 30.72 -0.27, 32.71 0.02 C34.69 0.3, 38 1.18, 39.71 1.48 C41.42 1.78, 41.94 2.29, 42.99 1.81 C44.05 1.34, 44.6 -1.05, 46.05 -1.36 C47.51 -1.66, 51 -0.2, 51.71 -0.01" stroke="#ffffff" stroke-width="1" fill="none"></path></g></g><mask></mask><g stroke-linecap="round"><g transform="translate(230.2523115294407 47.35380972782741) rotate(0 25.618923514432026 0)"><path d="M0.37 0.13 C0.72 -0.19, 1.72 -0.99, 2.97 -1.15 C4.21 -1.3, 6.6 -0.94, 7.84 -0.79 C9.08 -0.65, 9.23 -0.34, 10.42 -0.28 C11.61 -0.22, 13.15 -0.58, 14.99 -0.41 C16.84 -0.24, 19.1 0.64, 21.48 0.74 C23.87 0.85, 27.39 0.45, 29.31 0.23 C31.22 0.02, 31.54 -0.33, 32.97 -0.52 C34.39 -0.71, 36.32 -1.15, 37.84 -0.92 C39.37 -0.68, 40.9 0.67, 42.12 0.86 C43.34 1.06, 43.79 0.35, 45.19 0.27 C46.58 0.2, 49.65 0.51, 50.49 0.42 M-0.9 -0.84 C-0.78 -1.13, 0.56 -0.37, 1.99 -0.21 C3.41 -0.05, 6.24 -0.04, 7.66 0.11 C9.08 0.26, 8.99 0.73, 10.53 0.67 C12.06 0.62, 14.92 -0.14, 16.88 -0.23 C18.84 -0.33, 20.07 0.22, 22.28 0.1 C24.49 -0.03, 28.55 -0.78, 30.14 -0.99 C31.74 -1.19, 30.23 -1.44, 31.83 -1.13 C33.43 -0.82, 37.92 0.55, 39.73 0.88 C41.54 1.21, 41.82 0.78, 42.68 0.87 C43.54 0.95, 43.29 1.51, 44.9 1.4 C46.51 1.29, 51.5 0.66, 52.34 0.22" stroke="#ffffff" stroke-width="1" fill="none"></path></g></g><mask></mask><g stroke-linecap="round"><g transform="translate(230.5167241556428 61.33894562254909) rotate(0 25.618923514432026 0)"><path d="M-0.07 -1.15 C0.56 -1.3, 3.07 -0.94, 4.15 -0.79 C5.24 -0.65, 5.46 -0.34, 6.46 -0.28 C7.45 -0.22, 8.79 -0.58, 10.11 -0.41 C11.43 -0.24, 12.25 0.64, 14.4 0.74 C16.55 0.85, 20.62 0.45, 23.01 0.23 C25.4 0.02, 27.07 -0.33, 28.74 -0.52 C30.4 -0.71, 31.5 -1.15, 32.98 -0.92 C34.46 -0.68, 36.24 0.67, 37.64 0.86 C39.03 1.06, 40.04 0.35, 41.36 0.27 C42.69 0.2, 44.12 0.51, 45.59 0.42 C47.07 0.33, 49.44 -0.39, 50.21 -0.28 M-1.56 0.87 C-1.02 0.84, 2.61 0.33, 3.79 0.33 C4.98 0.33, 4.51 0.86, 5.55 0.89 C6.6 0.91, 8.32 0.37, 10.06 0.48 C11.79 0.59, 14.16 1.72, 15.97 1.53 C17.79 1.33, 18.74 -0.68, 20.96 -0.68 C23.17 -0.68, 27.45 1.7, 29.27 1.52 C31.08 1.35, 30.16 -1.47, 31.85 -1.74 C33.54 -2, 37.8 -0.35, 39.41 -0.07 C41.03 0.22, 40.5 -0.32, 41.52 -0.04 C42.54 0.24, 43.79 1.77, 45.52 1.63 C47.25 1.49, 51.19 -0.72, 51.91 -0.86" stroke="#ffffff" stroke-width="1" fill="none"></path></g></g><mask></mask><g stroke-linecap="round"><g transform="translate(228.98237791098109 73.0735118704929) rotate(0 25.618923514432026 0)"><path d="M1.12 -0.79 C1.59 -0.65, 1.93 -0.34, 2.77 -0.28 C3.61 -0.22, 5.02 -0.58, 6.15 -0.41 C7.27 -0.24, 7.88 0.64, 9.51 0.74 C11.14 0.85, 13.78 0.45, 15.93 0.23 C18.08 0.02, 20.3 -0.33, 22.44 -0.52 C24.58 -0.71, 27.03 -1.15, 28.75 -0.92 C30.47 -0.68, 31.42 0.67, 32.77 0.86 C34.13 1.06, 35.38 0.35, 36.88 0.27 C38.38 0.2, 40.37 0.51, 41.77 0.42 C43.18 0.33, 43.91 -0.39, 45.32 -0.28 C46.72 -0.18, 49.25 1.1, 50.19 1.07 M0.25 1.41 C0.54 1.83, 0.88 1.23, 1.69 1.11 C2.49 0.99, 3.84 1.12, 5.08 0.69 C6.33 0.27, 7.55 -1.43, 9.15 -1.42 C10.74 -1.41, 12.22 0.21, 14.65 0.75 C17.08 1.29, 21.3 1.8, 23.74 1.83 C26.18 1.86, 27.99 1.06, 29.29 0.92 C30.59 0.78, 30.04 1.29, 31.54 0.98 C33.03 0.66, 36.49 -0.84, 38.26 -0.97 C40.03 -1.1, 41 -0.06, 42.14 0.19 C43.28 0.44, 43.47 0.38, 45.1 0.55 C46.72 0.72, 50.9 1.55, 51.89 1.2" stroke="#ffffff" stroke-width="1" fill="none"></path></g></g><mask></mask><g stroke-linecap="round" transform="translate(198.1287787577603 30.60327861422047) rotate(0 36.73733359906919 42.05848288199991)"><path d="M18.37 0 C30.58 5.66, 37.07 5.35, 55.11 0 C70.6 3.84, 76.91 6.17, 73.47 18.37 C77.46 33.83, 70.26 48.43, 73.47 65.75 C69 79.91, 67.69 87.1, 55.11 84.12 C40.97 88.22, 29.97 80.24, 18.37 84.12 C2.04 83.21, -5.32 77.05, 0 65.75 C5.27 58.46, -4.21 47.88, 0 18.37 C0.98 1.85, 3.82 3.95, 18.37 0" stroke="none" stroke-width="0" fill="#042f3b"></path><path d="M18.37 0 C25.92 2.65, 35.59 2.94, 55.11 0 M18.37 0 C29.25 0.3, 38.09 1.6, 55.11 0 M55.11 0 C67.64 -3.3, 69.68 8.39, 73.47 18.37 M55.11 0 C66 0.13, 72.75 6.4, 73.47 18.37 M73.47 18.37 C70.5 31.71, 72.58 51.16, 73.47 65.75 M73.47 18.37 C72.91 27.49, 75.16 36.96, 73.47 65.75 M73.47 65.75 C74.86 81.38, 69.88 86.49, 55.11 84.12 M73.47 65.75 C72.58 81.48, 69.25 80.12, 55.11 84.12 M55.11 84.12 C42.07 80.94, 26.31 86.64, 18.37 84.12 M55.11 84.12 C46.27 85.85, 38.47 84.43, 18.37 84.12 M18.37 84.12 C4.84 87.17, -2.71 80.84, 0 65.75 M18.37 84.12 C2.58 86.88, -2.3 76.66, 0 65.75 M0 65.75 C-0.85 54.48, -2.98 36.11, 0 18.37 M0 65.75 C1.45 51.26, -0.78 34.74, 0 18.37 M0 18.37 C-1.47 2.6, 2.75 1.66, 18.37 0 M0 18.37 C-2.65 8.09, 10.22 0.47, 18.37 0" stroke="#ffffff" stroke-width="1" fill="none"></path></g><g stroke-linecap="round"><g transform="translate(211.07217722645873 48.292955877725035) rotate(0 25.618923514432026 0)"><path d="M0.81 0.68 C1.45 0.58, 2.96 -0.46, 3.93 -0.58 C4.89 -0.69, 5.3 -0.13, 6.59 0 C7.87 0.13, 10.04 0.02, 11.65 0.18 C13.27 0.34, 14.44 1.15, 16.29 0.96 C18.13 0.76, 20.81 -0.94, 22.73 -0.99 C24.65 -1.04, 26.13 0.51, 27.81 0.68 C29.49 0.85, 31.15 0.14, 32.82 0.03 C34.5 -0.07, 36.19 0.02, 37.85 0.07 C39.51 0.12, 41.4 0.53, 42.8 0.35 C44.2 0.18, 44.93 -0.86, 46.24 -0.98 C47.55 -1.09, 49.71 -0.32, 50.65 -0.35 M-0.23 0 C0.33 0.05, 2.45 0.44, 3.45 0.66 C4.45 0.88, 4.26 1.2, 5.75 1.32 C7.25 1.44, 10.84 1.89, 12.41 1.37 C13.98 0.85, 13.23 -1.76, 15.19 -1.81 C17.16 -1.85, 22.08 0.86, 24.19 1.11 C26.3 1.36, 26.62 -0.07, 27.85 -0.31 C29.09 -0.54, 29.63 -0.13, 31.61 -0.29 C33.59 -0.45, 37.72 -1.34, 39.74 -1.27 C41.76 -1.21, 42.59 -0.04, 43.72 0.08 C44.84 0.21, 45.03 -0.33, 46.51 -0.5 C47.99 -0.68, 51.59 -1.22, 52.59 -0.96" stroke="#ffffff" stroke-width="1" fill="none"></path></g></g><mask></mask><g stroke-linecap="round"><g transform="translate(210.49120722447697 60.478292553003484) rotate(0 25.618923514432026 0)"><path d="M0.89 -0.58 C1.24 -0.69, 1.77 -0.13, 2.9 0 C4.04 0.13, 6.27 0.02, 7.69 0.18 C9.11 0.34, 10.07 1.15, 11.4 0.96 C12.73 0.76, 13.97 -0.94, 15.65 -0.99 C17.34 -1.04, 19.35 0.51, 21.51 0.68 C23.67 0.85, 26.68 0.14, 28.59 0.03 C30.5 -0.07, 31.37 0.02, 32.99 0.07 C34.61 0.12, 36.75 0.53, 38.32 0.35 C39.89 0.18, 41.18 -0.86, 42.42 -0.98 C43.66 -1.09, 44.18 -0.32, 45.76 -0.35 C47.34 -0.38, 50.83 -1.27, 51.89 -1.18 M-0.1 1.74 C0.01 1.77, 0.63 1.56, 1.89 1.54 C3.14 1.51, 5.74 2.03, 7.43 1.59 C9.12 1.15, 10.89 -0.64, 12.03 -1.09 C13.16 -1.54, 12.51 -1.3, 14.22 -1.12 C15.94 -0.94, 19.85 0.03, 22.33 0 C24.8 -0.03, 27.46 -1.25, 29.05 -1.29 C30.64 -1.33, 30.57 -0.31, 31.86 -0.23 C33.15 -0.16, 34.91 -1.17, 36.79 -0.85 C38.67 -0.52, 41.63 1.5, 43.13 1.72 C44.63 1.94, 44.49 0.5, 45.77 0.45 C47.05 0.4, 49.64 1.6, 50.82 1.44" stroke="#ffffff" stroke-width="1" fill="none"></path></g></g><mask></mask><g stroke-linecap="round"><g transform="translate(210.75561985067907 74.46342844772516) rotate(0 25.618923514432026 0)"><path d="M-0.13 0 C0.39 0.13, 2.74 0.02, 4.01 0.18 C5.27 0.34, 6.31 1.15, 7.44 0.96 C8.57 0.76, 9.6 -0.94, 10.77 -0.99 C11.93 -1.04, 12.51 0.51, 14.43 0.68 C16.35 0.85, 19.91 0.14, 22.3 0.03 C24.68 -0.07, 26.9 0.02, 28.76 0.07 C30.62 0.12, 31.92 0.53, 33.45 0.35 C34.98 0.18, 36.52 -0.86, 37.94 -0.98 C39.35 -1.09, 40.42 -0.32, 41.94 -0.35 C43.45 -0.38, 45.3 -1.27, 47 -1.18 C48.7 -1.09, 51.55 0.05, 52.13 0.2 M-1.66 -1.05 C-1.29 -0.65, 2.11 1.78, 3.57 1.81 C5.02 1.84, 5.8 -0.51, 7.05 -0.88 C8.3 -1.25, 9.56 -0.79, 11.06 -0.41 C12.55 -0.02, 13.94 1.53, 16.02 1.43 C18.1 1.33, 21.31 -0.54, 23.52 -0.99 C25.74 -1.43, 27.79 -1.43, 29.3 -1.24 C30.81 -1.04, 30.81 -0.14, 32.57 0.2 C34.33 0.53, 38.23 0.99, 39.87 0.79 C41.5 0.59, 41.09 -0.72, 42.39 -0.99 C43.69 -1.25, 46.2 -0.96, 47.66 -0.81 C49.13 -0.66, 50.75 -0.04, 51.19 -0.11" stroke="#ffffff" stroke-width="1" fill="none"></path></g></g><mask></mask><g stroke-linecap="round"><g transform="translate(209.22127360601735 86.19799469566897) rotate(0 25.618923514432026 0)"><path d="M0.97 0.18 C1.62 0.34, 2.78 1.15, 3.75 0.96 C4.73 0.76, 5.84 -0.94, 6.8 -0.99 C7.77 -1.04, 8.14 0.51, 9.54 0.68 C10.94 0.85, 13.06 0.14, 15.21 0.03 C17.36 -0.07, 20.12 0.02, 22.46 0.07 C24.79 0.12, 27.45 0.53, 29.22 0.35 C30.99 0.18, 31.7 -0.86, 33.07 -0.98 C34.44 -1.09, 35.77 -0.32, 37.45 -0.35 C39.14 -0.38, 41.54 -1.27, 43.18 -1.18 C44.81 -1.09, 46.03 0.05, 47.24 0.2 C48.46 0.35, 49.71 -0.18, 50.48 -0.27 M0.02 -0.78 C0.59 -0.94, 2.17 -0.76, 3.18 -0.66 C4.19 -0.56, 5.08 -0.05, 6.08 -0.19 C7.08 -0.34, 7.34 -1.62, 9.19 -1.52 C11.05 -1.41, 14.79 0.35, 17.22 0.44 C19.65 0.54, 21.64 -0.72, 23.77 -0.93 C25.91 -1.14, 28.64 -0.66, 30.01 -0.81 C31.38 -0.96, 30.47 -2.25, 31.99 -1.83 C33.51 -1.4, 37.08 1.2, 39.13 1.74 C41.18 2.28, 42.8 1.49, 44.29 1.41 C45.77 1.34, 46.69 1.67, 48.03 1.29 C49.37 0.92, 51.6 -0.39, 52.32 -0.83" stroke="#ffffff" stroke-width="1" fill="none"></path></g></g><mask></mask><g stroke-linecap="round" transform="translate(225.59901712438477 40.89652017180788) rotate(0 36.73733359906919 42.05848288199991)"><path d="M18.37 0 C34.16 4.71, 38.43 1.37, 55.11 0 C67.46 5.53, 78.9 5.88, 73.47 18.37 C72.57 31.76, 70.85 35.64, 73.47 65.75 C71.08 80.9, 71.67 81.81, 55.11 84.12 C41.41 83.94, 40.47 82.41, 18.37 84.12 C3.93 87.36, -5.08 78.94, 0 65.75 C-1.96 58.17, -3.5 35.77, 0 18.37 C2.09 11.21, 11.47 -1.69, 18.37 0" stroke="none" stroke-width="0" fill="#042f3b"></path><path d="M18.37 0 C29.5 4.13, 42.56 0.51, 55.11 0 M18.37 0 C31.15 -0.69, 42.88 -0.46, 55.11 0 M55.11 0 C67.1 1.69, 70.85 9.37, 73.47 18.37 M55.11 0 C65.16 -2.69, 76.47 7.98, 73.47 18.37 M73.47 18.37 C74.71 34.94, 77.01 51.51, 73.47 65.75 M73.47 18.37 C73.62 35.59, 72.07 51.23, 73.47 65.75 M73.47 65.75 C71.44 79.15, 68.89 81.35, 55.11 84.12 M73.47 65.75 C70.27 78.9, 67.22 86.9, 55.11 84.12 M55.11 84.12 C42.63 80.22, 31.52 85.12, 18.37 84.12 M55.11 84.12 C46.57 85.85, 40.11 85.37, 18.37 84.12 M18.37 84.12 C6.97 85.06, -1.04 79.65, 0 65.75 M18.37 84.12 C4.5 81.16, 0.07 79.79, 0 65.75 M0 65.75 C-0.45 57.92, -0.89 48.08, 0 18.37 M0 65.75 C-0.03 52.66, 0.07 34.89, 0 18.37 M0 18.37 C-2.89 3.85, 3.62 -2.83, 18.37 0 M0 18.37 C1.1 6.7, 2.12 -4.1, 18.37 0" stroke="#ffffff" stroke-width="1" fill="none"></path></g><g stroke-linecap="round"><g transform="translate(238.5424155930832 58.58619743531244) rotate(0 25.618923514432026 0)"><path d="M1.11 -0.03 C1.74 0.13, 2.11 0.48, 3.06 0.66 C4 0.84, 5.53 1.17, 6.77 1.06 C8.02 0.95, 9.22 0.13, 10.53 -0.02 C11.84 -0.18, 12.62 0.02, 14.63 0.11 C16.64 0.2, 20.32 0.36, 22.57 0.51 C24.83 0.65, 26.48 1.17, 28.16 0.97 C29.83 0.77, 30.83 -0.62, 32.61 -0.7 C34.38 -0.78, 37.11 0.44, 38.82 0.48 C40.53 0.53, 41.48 -0.42, 42.87 -0.42 C44.27 -0.43, 45.77 0.21, 47.22 0.47 C48.66 0.74, 50.76 1.15, 51.53 1.16 M0.23 -1.09 C0.76 -1.25, 1.15 -1.18, 2.12 -1.12 C3.09 -1.06, 4.6 -1.09, 6.03 -0.73 C7.46 -0.36, 8.98 0.85, 10.7 1.07 C12.41 1.28, 14.12 0.78, 16.33 0.56 C18.53 0.34, 21.94 -0.2, 23.95 -0.27 C25.96 -0.34, 26.55 0.33, 28.39 0.14 C30.22 -0.05, 33.41 -1.28, 34.94 -1.41 C36.47 -1.54, 36.08 -0.7, 37.56 -0.64 C39.04 -0.59, 42.09 -1.49, 43.83 -1.1 C45.57 -0.71, 46.92 1.3, 47.99 1.7 C49.07 2.11, 49.54 1.63, 50.27 1.35" stroke="#ffffff" stroke-width="1" fill="none"></path></g></g><mask></mask><g stroke-linecap="round"><g transform="translate(237.96144559110144 70.77153411059089) rotate(0 25.618923514432026 0)"><path d="M0.02 0.66 C0.35 0.84, 2 1.17, 3.09 1.06 C4.18 0.95, 5.46 0.13, 6.57 -0.02 C7.68 -0.18, 8.26 0.02, 9.74 0.11 C11.23 0.2, 13.47 0.36, 15.49 0.51 C17.51 0.65, 19.71 1.17, 21.86 0.97 C24.01 0.77, 26.36 -0.62, 28.37 -0.7 C30.39 -0.78, 32.29 0.44, 33.96 0.48 C35.63 0.53, 36.82 -0.42, 38.39 -0.42 C39.96 -0.43, 42.02 0.21, 43.39 0.47 C44.77 0.74, 45.24 1.15, 46.64 1.16 C48.05 1.17, 51.11 0.66, 51.82 0.55 M-1.43 -0.04 C-1.35 -0.17, 0.97 -0.73, 2.17 -0.51 C3.36 -0.28, 4.5 0.98, 5.72 1.28 C6.95 1.58, 8.12 1.29, 9.5 1.27 C10.88 1.25, 11.75 1.3, 13.98 1.17 C16.21 1.03, 20.4 0.43, 22.86 0.44 C25.32 0.46, 26.97 1.25, 28.72 1.24 C30.46 1.24, 31.98 0.33, 33.34 0.4 C34.71 0.46, 35.63 1.65, 36.9 1.63 C38.17 1.61, 39.25 0.69, 40.96 0.27 C42.66 -0.16, 45.49 -0.93, 47.11 -0.9 C48.74 -0.88, 50.07 0.28, 50.71 0.41" stroke="#ffffff" stroke-width="1" fill="none"></path></g></g><mask></mask><g stroke-linecap="round"><g transform="translate(238.22585821730354 84.75667000531257) rotate(0 25.618923514432026 0)"><path d="M0.05 1.06 C0.53 0.95, 1.93 0.13, 2.88 -0.02 C3.84 -0.18, 4.5 0.02, 5.78 0.11 C7.07 0.2, 9.11 0.36, 10.61 0.51 C12.11 0.65, 12.87 1.17, 14.78 0.97 C16.69 0.77, 19.59 -0.62, 22.08 -0.7 C24.57 -0.78, 27.82 0.44, 29.73 0.48 C31.63 0.53, 32 -0.42, 33.53 -0.42 C35.06 -0.43, 37.36 0.21, 38.91 0.47 C40.46 0.74, 41.48 1.15, 42.82 1.16 C44.15 1.17, 45.58 0.66, 46.93 0.55 C48.28 0.43, 50.15 0.47, 50.91 0.46 M-1.38 0.57 C-1.08 0.6, 0.26 1.35, 1.86 1.5 C3.45 1.65, 6.69 2.03, 8.19 1.49 C9.68 0.94, 9.42 -1.24, 10.81 -1.78 C12.21 -2.33, 14.49 -2.34, 16.55 -1.79 C18.62 -1.23, 21.43 1.35, 23.19 1.55 C24.95 1.75, 25.54 -0.18, 27.12 -0.61 C28.7 -1.03, 30.92 -0.98, 32.69 -0.99 C34.45 -1, 35.85 -1.05, 37.69 -0.66 C39.54 -0.28, 42.1 0.91, 43.74 1.32 C45.38 1.73, 46.02 1.99, 47.56 1.82 C49.1 1.64, 52.27 0.59, 52.98 0.28" stroke="#ffffff" stroke-width="1" fill="none"></path></g></g><mask></mask><g stroke-linecap="round"><g transform="translate(236.69151197264182 96.49123625325637) rotate(0 25.618923514432026 0)"><path d="M-0.15 -0.02 C0.19 -0.18, 0.97 0.02, 2.1 0.11 C3.23 0.2, 5.35 0.36, 6.64 0.51 C7.94 0.65, 8.5 1.17, 9.89 0.97 C11.28 0.77, 12.74 -0.62, 14.99 -0.7 C17.25 -0.78, 21.05 0.44, 23.43 0.48 C25.81 0.53, 27.53 -0.42, 29.3 -0.42 C31.06 -0.43, 32.54 0.21, 34.04 0.47 C35.55 0.74, 36.82 1.15, 38.33 1.16 C39.84 1.17, 41.83 0.66, 43.11 0.55 C44.39 0.43, 44.62 0.47, 46.02 0.46 C47.41 0.46, 50.73 0.57, 51.48 0.51 M-1.69 -1.08 C-0.98 -0.51, 3.06 1.79, 4.32 1.71 C5.57 1.63, 4.94 -1.1, 5.84 -1.57 C6.74 -2.03, 7.89 -1.22, 9.73 -1.07 C11.57 -0.92, 14.91 -0.81, 16.88 -0.68 C18.86 -0.55, 19.39 -0.69, 21.59 -0.3 C23.8 0.09, 28.14 1.55, 30.12 1.67 C32.1 1.78, 32.36 0.59, 33.47 0.38 C34.59 0.17, 35.03 0.39, 36.82 0.39 C38.6 0.39, 42.62 0.16, 44.18 0.38 C45.74 0.6, 45.16 1.69, 46.17 1.69 C47.17 1.69, 49.49 0.75, 50.2 0.35" stroke="#ffffff" stroke-width="1" fill="none"></path></g></g><mask></mask><g stroke-linecap="round"><g transform="translate(85.37473925384711 213.65169824463192) rotate(0 11.631605641948227 15.488944046762981)" fill-rule="evenodd"><path d="M0 0 C-0.05 6.13, -0.64 33.62, -0.32 36.77 C0.01 39.92, -2.34 23.1, 1.95 18.9 C6.24 14.7, 26.09 15.69, 25.41 11.57 C24.73 7.46, 2.45 -2.9, -2.15 -5.79" stroke="none" stroke-width="0" fill="#ffffff" fill-rule="evenodd"></path><path d="M0 0 C-0.05 6.13, -0.64 33.62, -0.32 36.77 C0.01 39.92, -2.34 23.1, 1.95 18.9 C6.24 14.7, 26.09 15.69, 25.41 11.57 C24.73 7.46, 2.45 -2.9, -2.15 -5.79 M0 0 C-0.05 6.13, -0.64 33.62, -0.32 36.77 C0.01 39.92, -2.34 23.1, 1.95 18.9 C6.24 14.7, 26.09 15.69, 25.41 11.57 C24.73 7.46, 2.45 -2.9, -2.15 -5.79" stroke="#ffffff" stroke-width="1" fill="none"></path></g></g><mask></mask><g stroke-linecap="round"><g transform="translate(133.90212680830973 223.998447358646) rotate(0 15.590214593098608 11.409523933161609)"><path d="M0 0 C-0.37 -0.63, -3.24 -2.11, -2.21 -3.8 C-1.18 -5.48, 4.07 -10.1, 6.17 -10.12 C8.28 -10.14, 8.69 -4.98, 10.4 -3.91 C12.12 -2.84, 14.78 -2.54, 16.47 -3.7 C18.16 -4.85, 18.51 -10.51, 20.54 -10.86 C22.56 -11.21, 27.85 -7.56, 28.61 -5.81 C29.38 -4.06, 25 -1.95, 25.13 -0.35 C25.26 1.26, 27.66 3.32, 29.39 3.84 C31.12 4.35, 34.19 1.29, 35.51 2.76 C36.83 4.23, 37.76 11, 37.32 12.65 C36.88 14.29, 33.88 11.42, 32.88 12.65 C31.89 13.87, 30.9 18.31, 31.37 20.02 C31.83 21.72, 35.95 21.4, 35.67 22.89 C35.38 24.37, 31.44 28.45, 29.67 28.93 C27.9 29.4, 26.68 25.8, 25.05 25.74 C23.42 25.68, 20.75 27.35, 19.89 28.54 C19.03 29.73, 21.56 32.03, 19.91 32.89 C18.26 33.74, 11.73 34.32, 10.01 33.68 C8.29 33.04, 10.32 30.36, 9.61 29.05 C8.91 27.74, 6.95 26.07, 5.8 25.81 C4.64 25.56, 4.16 28.06, 2.69 27.53 C1.22 27, -2.61 24.05, -3.02 22.63 C-3.43 21.22, -0.05 20.64, 0.25 19.04 C0.56 17.45, -0.11 14.2, -1.17 13.05 C-2.24 11.9, -5.34 13.36, -6.14 12.14 C-6.93 10.92, -6.82 6.79, -5.94 5.73 C-5.07 4.66, -1.88 6.68, -0.89 5.73 C0.1 4.77, -0.15 0.95, 0 0 M0 0 C-0.37 -0.63, -3.24 -2.11, -2.21 -3.8 C-1.18 -5.48, 4.07 -10.1, 6.17 -10.12 C8.28 -10.14, 8.69 -4.98, 10.4 -3.91 C12.12 -2.84, 14.78 -2.54, 16.47 -3.7 C18.16 -4.85, 18.51 -10.51, 20.54 -10.86 C22.56 -11.21, 27.85 -7.56, 28.61 -5.81 C29.38 -4.06, 25 -1.95, 25.13 -0.35 C25.26 1.26, 27.66 3.32, 29.39 3.84 C31.12 4.35, 34.19 1.29, 35.51 2.76 C36.83 4.23, 37.76 11, 37.32 12.65 C36.88 14.29, 33.88 11.42, 32.88 12.65 C31.89 13.87, 30.9 18.31, 31.37 20.02 C31.83 21.72, 35.95 21.4, 35.67 22.89 C35.38 24.37, 31.44 28.45, 29.67 28.93 C27.9 29.4, 26.68 25.8, 25.05 25.74 C23.42 25.68, 20.75 27.35, 19.89 28.54 C19.03 29.73, 21.56 32.03, 19.91 32.89 C18.26 33.74, 11.73 34.32, 10.01 33.68 C8.29 33.04, 10.32 30.36, 9.61 29.05 C8.91 27.74, 6.95 26.07, 5.8 25.81 C4.64 25.56, 4.16 28.06, 2.69 27.53 C1.22 27, -2.61 24.05, -3.02 22.63 C-3.43 21.22, -0.05 20.64, 0.25 19.04 C0.56 17.45, -0.11 14.2, -1.17 13.05 C-2.24 11.9, -5.34 13.36, -6.14 12.14 C-6.93 10.92, -6.82 6.79, -5.94 5.73 C-5.07 4.66, -1.88 6.68, -0.89 5.73 C0.1 4.77, -0.15 0.95, 0 0" stroke="#ffffff" stroke-width="1" fill="none"></path></g></g><mask></mask><g stroke-linecap="round" transform="translate(138.91265731380008 225.61929089444993) rotate(0 10.327721377431317 11.148399383846481)"><path d="M20.66 11.15 C20.66 11.79, 20.6 12.45, 20.5 13.08 C20.39 13.72, 20.24 14.35, 20.03 14.96 C19.83 15.57, 19.57 16.16, 19.27 16.72 C18.97 17.28, 18.62 17.82, 18.24 18.31 C17.85 18.81, 17.42 19.27, 16.97 19.69 C16.51 20.1, 16.01 20.48, 15.49 20.8 C14.97 21.13, 14.42 21.4, 13.86 21.62 C13.3 21.85, 12.71 22.02, 12.12 22.13 C11.53 22.24, 10.93 22.3, 10.33 22.3 C9.73 22.3, 9.12 22.24, 8.53 22.13 C7.95 22.02, 7.36 21.85, 6.8 21.62 C6.23 21.4, 5.68 21.13, 5.16 20.8 C4.65 20.48, 4.15 20.1, 3.69 19.69 C3.23 19.27, 2.8 18.81, 2.42 18.31 C2.03 17.82, 1.68 17.28, 1.38 16.72 C1.08 16.16, 0.83 15.57, 0.62 14.96 C0.42 14.35, 0.26 13.72, 0.16 13.08 C0.05 12.45, 0 11.79, 0 11.15 C0 10.5, 0.05 9.85, 0.16 9.21 C0.26 8.58, 0.42 7.94, 0.62 7.34 C0.83 6.73, 1.08 6.13, 1.38 5.57 C1.68 5.02, 2.03 4.48, 2.42 3.98 C2.8 3.49, 3.23 3.02, 3.69 2.61 C4.15 2.19, 4.65 1.82, 5.16 1.49 C5.68 1.17, 6.23 0.89, 6.8 0.67 C7.36 0.45, 7.95 0.28, 8.53 0.17 C9.12 0.06, 9.73 0, 10.33 0 C10.93 0, 11.53 0.06, 12.12 0.17 C12.71 0.28, 13.3 0.45, 13.86 0.67 C14.42 0.89, 14.97 1.17, 15.49 1.49 C16.01 1.82, 16.51 2.19, 16.97 2.61 C17.42 3.02, 17.85 3.49, 18.24 3.98 C18.62 4.48, 18.97 5.02, 19.27 5.57 C19.57 6.13, 19.83 6.73, 20.03 7.34 C20.24 7.94, 20.39 8.58, 20.5 9.21 C20.6 9.85, 20.63 10.83, 20.66 11.15 C20.68 11.47, 20.68 10.83, 20.66 11.15" stroke="#ffffff" stroke-width="1" fill="none"></path></g><g transform="translate(60.72665050070373 265.31546446265156) rotate(0 63.409934997558594 25)"><text x="0" y="17.52" font-family="Virgil, Segoe UI Emoji" font-size="20px" fill="#ffffff" text-anchor="start" style="white-space: pre;" direction="ltr" dominant-baseline="alphabetic">Configuration</text><text x="0" y="42.519999999999996" font-family="Virgil, Segoe UI Emoji" font-size="20px" fill="#ffffff" text-anchor="start" style="white-space: pre;" direction="ltr" dominant-baseline="alphabetic"></text></g><g transform="translate(51.757605447910464 300.1449255925763) rotate(0 72.15732140609998 13.056848276079108)"><text x="0" y="9.15023927187626" font-family="Virgil, Segoe UI Emoji" font-size="10.445478620863309px" fill="#ffffff" text-anchor="start" style="white-space: pre;" direction="ltr" dominant-baseline="alphabetic">(Feature flags, AB Testing,</text><text x="0" y="22.207087547955396" font-family="Virgil, Segoe UI Emoji" font-size="10.445478620863309px" fill="#ffffff" text-anchor="start" style="white-space: pre;" direction="ltr" dominant-baseline="alphabetic">Env vars)</text></g><g stroke-linecap="round" transform="translate(409.0015763832034 190.24659319296234) rotate(0 16.1421335942332 5.153151344659136)"><path d="M32.28 5.15 C32.28 5.45, 32.2 5.75, 32.04 6.05 C31.88 6.34, 31.63 6.64, 31.31 6.92 C30.99 7.2, 30.59 7.47, 30.12 7.73 C29.65 7.99, 29.11 8.24, 28.51 8.47 C27.91 8.69, 27.23 8.91, 26.52 9.1 C25.8 9.29, 25.02 9.47, 24.21 9.62 C23.4 9.77, 22.54 9.89, 21.66 10 C20.79 10.1, 19.87 10.18, 18.95 10.23 C18.03 10.28, 17.08 10.31, 16.14 10.31 C15.21 10.31, 14.26 10.28, 13.34 10.23 C12.42 10.18, 11.5 10.1, 10.62 10 C9.74 9.89, 8.88 9.77, 8.07 9.62 C7.26 9.47, 6.48 9.29, 5.77 9.1 C5.05 8.91, 4.38 8.69, 3.78 8.47 C3.18 8.24, 2.63 7.99, 2.16 7.73 C1.7 7.47, 1.29 7.2, 0.97 6.92 C0.65 6.64, 0.41 6.34, 0.25 6.05 C0.08 5.75, 0 5.45, 0 5.15 C0 4.85, 0.08 4.55, 0.25 4.26 C0.41 3.96, 0.65 3.67, 0.97 3.39 C1.29 3.11, 1.7 2.83, 2.16 2.58 C2.63 2.32, 3.18 2.07, 3.78 1.84 C4.38 1.61, 5.05 1.4, 5.77 1.21 C6.48 1.01, 7.26 0.84, 8.07 0.69 C8.88 0.54, 9.74 0.41, 10.62 0.31 C11.5 0.21, 12.42 0.13, 13.34 0.08 C14.26 0.03, 15.21 0, 16.14 0 C17.08 0, 18.03 0.03, 18.95 0.08 C19.87 0.13, 20.79 0.21, 21.66 0.31 C22.54 0.41, 23.4 0.54, 24.21 0.69 C25.02 0.84, 25.8 1.01, 26.52 1.21 C27.23 1.4, 27.91 1.61, 28.51 1.84 C29.11 2.07, 29.65 2.32, 30.12 2.58 C30.59 2.83, 30.99 3.11, 31.31 3.39 C31.63 3.67, 31.88 3.96, 32.04 4.26 C32.2 4.55, 32.24 5, 32.28 5.15 C32.33 5.3, 32.33 5, 32.28 5.15" stroke="#ffffff" stroke-width="1" fill="none"></path></g><g stroke-linecap="round"><g transform="translate(408.7384884103776 196.29221989159214) rotate(0 16.118882328139534 24.689764216893764)"><path d="M0 0 C-0.12 6.4, -1.65 30.44, -0.73 38.4 C0.18 46.36, 1.98 45.94, 5.49 47.77 C8.99 49.6, 15.87 50.65, 20.29 49.38 C24.7 48.11, 29.85 48.14, 31.96 40.18 C34.07 32.21, 32.8 8.01, 32.97 1.57 M0 0 C-0.12 6.4, -1.65 30.44, -0.73 38.4 C0.18 46.36, 1.98 45.94, 5.49 47.77 C8.99 49.6, 15.87 50.65, 20.29 49.38 C24.7 48.11, 29.85 48.14, 31.96 40.18 C34.07 32.21, 32.8 8.01, 32.97 1.57" stroke="#ffffff" stroke-width="1" fill="none"></path></g></g><mask></mask><g stroke-linecap="round"><g transform="translate(408.5400420523665 208.4563640452352) rotate(0 16.704208750559246 1.271190468297391)"><path d="M0 0 C1.26 0.6, 4.47 2.84, 7.57 3.6 C10.68 4.36, 15.02 4.87, 18.63 4.57 C22.25 4.28, 26.81 2.93, 29.27 1.82 C31.74 0.72, 32.72 -1.39, 33.41 -2.03 M0 0 C1.26 0.6, 4.47 2.84, 7.57 3.6 C10.68 4.36, 15.02 4.87, 18.63 4.57 C22.25 4.28, 26.81 2.93, 29.27 1.82 C31.74 0.72, 32.72 -1.39, 33.41 -2.03" stroke="#ffffff" stroke-width="1" fill="none"></path></g></g><mask></mask><g stroke-linecap="round"><g transform="translate(408.0457915259549 220.86154485497218) rotate(0 16.704208750559246 1.271190468297391)"><path d="M0 0 C1.26 0.6, 4.47 2.84, 7.57 3.6 C10.68 4.36, 15.02 4.87, 18.63 4.57 C22.25 4.28, 26.81 2.93, 29.27 1.82 C31.74 0.72, 32.72 -1.39, 33.41 -2.03 M0 0 C1.26 0.6, 4.47 2.84, 7.57 3.6 C10.68 4.36, 15.02 4.87, 18.63 4.57 C22.25 4.28, 26.81 2.93, 29.27 1.82 C31.74 0.72, 32.72 -1.39, 33.41 -2.03" stroke="#ffffff" stroke-width="1" fill="none"></path></g></g><mask></mask><g stroke-linecap="round"><g transform="translate(408.0202582884276 230.86282280408068) rotate(0 16.704208750559246 1.271190468297391)"><path d="M0 0 C1.26 0.6, 4.47 2.84, 7.57 3.6 C10.68 4.36, 15.02 4.87, 18.63 4.57 C22.25 4.28, 26.81 2.93, 29.27 1.82 C31.74 0.72, 32.72 -1.39, 33.41 -2.03 M0 0 C1.26 0.6, 4.47 2.84, 7.57 3.6 C10.68 4.36, 15.02 4.87, 18.63 4.57 C22.25 4.28, 26.81 2.93, 29.27 1.82 C31.74 0.72, 32.72 -1.39, 33.41 -2.03" stroke="#ffffff" stroke-width="1" fill="none"></path></g></g><mask></mask><g stroke-linecap="round" transform="translate(451.0361475338632 191.81231509554527) rotate(0 16.1421335942332 5.153151344659136)"><path d="M32.28 5.15 C32.28 5.45, 32.2 5.75, 32.04 6.05 C31.88 6.34, 31.63 6.64, 31.31 6.92 C30.99 7.2, 30.59 7.47, 30.12 7.73 C29.65 7.99, 29.11 8.24, 28.51 8.47 C27.91 8.69, 27.23 8.91, 26.52 9.1 C25.8 9.29, 25.02 9.47, 24.21 9.62 C23.4 9.77, 22.54 9.89, 21.66 10 C20.79 10.1, 19.87 10.18, 18.95 10.23 C18.03 10.28, 17.08 10.31, 16.14 10.31 C15.21 10.31, 14.26 10.28, 13.34 10.23 C12.42 10.18, 11.5 10.1, 10.62 10 C9.74 9.89, 8.88 9.77, 8.07 9.62 C7.26 9.47, 6.48 9.29, 5.77 9.1 C5.05 8.91, 4.38 8.69, 3.78 8.47 C3.18 8.24, 2.63 7.99, 2.16 7.73 C1.7 7.47, 1.29 7.2, 0.97 6.92 C0.65 6.64, 0.41 6.34, 0.25 6.05 C0.08 5.75, 0 5.45, 0 5.15 C0 4.85, 0.08 4.55, 0.25 4.26 C0.41 3.96, 0.65 3.67, 0.97 3.39 C1.29 3.11, 1.7 2.83, 2.16 2.58 C2.63 2.32, 3.18 2.07, 3.78 1.84 C4.38 1.61, 5.05 1.4, 5.77 1.21 C6.48 1.01, 7.26 0.84, 8.07 0.69 C8.88 0.54, 9.74 0.41, 10.62 0.31 C11.5 0.21, 12.42 0.13, 13.34 0.08 C14.26 0.03, 15.21 0, 16.14 0 C17.08 0, 18.03 0.03, 18.95 0.08 C19.87 0.13, 20.79 0.21, 21.66 0.31 C22.54 0.41, 23.4 0.54, 24.21 0.69 C25.02 0.84, 25.8 1.01, 26.52 1.21 C27.23 1.4, 27.91 1.61, 28.51 1.84 C29.11 2.07, 29.65 2.32, 30.12 2.58 C30.59 2.83, 30.99 3.11, 31.31 3.39 C31.63 3.67, 31.88 3.96, 32.04 4.26 C32.2 4.55, 32.24 5, 32.28 5.15 C32.33 5.3, 32.33 5, 32.28 5.15" stroke="#ffffff" stroke-width="1" fill="none"></path></g><g stroke-linecap="round"><g transform="translate(450.77305956103555 197.85794179417553) rotate(0 16.118882328139534 24.689764216893764)"><path d="M0 0 C-0.12 6.4, -1.65 30.44, -0.73 38.4 C0.18 46.36, 1.98 45.94, 5.49 47.77 C8.99 49.6, 15.87 50.65, 20.29 49.38 C24.7 48.11, 29.85 48.14, 31.96 40.18 C34.07 32.21, 32.8 8.01, 32.97 1.57 M0 0 C-0.12 6.4, -1.65 30.44, -0.73 38.4 C0.18 46.36, 1.98 45.94, 5.49 47.77 C8.99 49.6, 15.87 50.65, 20.29 49.38 C24.7 48.11, 29.85 48.14, 31.96 40.18 C34.07 32.21, 32.8 8.01, 32.97 1.57" stroke="#ffffff" stroke-width="1" fill="none"></path></g></g><mask></mask><g stroke-linecap="round"><g transform="translate(450.57461320302536 210.0220859478186) rotate(0 16.704208750559246 1.271190468297391)"><path d="M0 0 C1.26 0.6, 4.47 2.84, 7.57 3.6 C10.68 4.36, 15.02 4.87, 18.63 4.57 C22.25 4.28, 26.81 2.93, 29.27 1.82 C31.74 0.72, 32.72 -1.39, 33.41 -2.03 M0 0 C1.26 0.6, 4.47 2.84, 7.57 3.6 C10.68 4.36, 15.02 4.87, 18.63 4.57 C22.25 4.28, 26.81 2.93, 29.27 1.82 C31.74 0.72, 32.72 -1.39, 33.41 -2.03" stroke="#ffffff" stroke-width="1" fill="none"></path></g></g><mask></mask><g stroke-linecap="round"><g transform="translate(450.08036267661373 222.42726675755512) rotate(0 16.704208750559246 1.271190468297391)"><path d="M0 0 C1.26 0.6, 4.47 2.84, 7.57 3.6 C10.68 4.36, 15.02 4.87, 18.63 4.57 C22.25 4.28, 26.81 2.93, 29.27 1.82 C31.74 0.72, 32.72 -1.39, 33.41 -2.03 M0 0 C1.26 0.6, 4.47 2.84, 7.57 3.6 C10.68 4.36, 15.02 4.87, 18.63 4.57 C22.25 4.28, 26.81 2.93, 29.27 1.82 C31.74 0.72, 32.72 -1.39, 33.41 -2.03" stroke="#ffffff" stroke-width="1" fill="none"></path></g></g><mask></mask><g stroke-linecap="round"><g transform="translate(450.05482943908646 232.42854470666407) rotate(0 16.704208750559246 1.271190468297391)"><path d="M0 0 C1.26 0.6, 4.47 2.84, 7.57 3.6 C10.68 4.36, 15.02 4.87, 18.63 4.57 C22.25 4.28, 26.81 2.93, 29.27 1.82 C31.74 0.72, 32.72 -1.39, 33.41 -2.03 M0 0 C1.26 0.6, 4.47 2.84, 7.57 3.6 C10.68 4.36, 15.02 4.87, 18.63 4.57 C22.25 4.28, 26.81 2.93, 29.27 1.82 C31.74 0.72, 32.72 -1.39, 33.41 -2.03" stroke="#ffffff" stroke-width="1" fill="none"></path></g></g><mask></mask><g transform="translate(423.7013961474049 264.2652005114487) rotate(0 22.423980712890625 20)"><text x="0" y="14.016" font-family="Virgil, Segoe UI Emoji" font-size="16px" fill="#ffffff" text-anchor="start" style="white-space: pre;" direction="ltr" dominant-baseline="alphabetic">Data</text><text x="0" y="34.016" font-family="Virgil, Segoe UI Emoji" font-size="16px" fill="#ffffff" text-anchor="start" style="white-space: pre;" direction="ltr" dominant-baseline="alphabetic">(DBs)</text></g><g stroke-linecap="round" transform="translate(257.6205252301079 212.27346926132714) rotate(0 36.9143672268101 15)"><path d="M7.5 0 C25.65 0, 43.79 0, 66.33 0 C71.33 0, 73.83 2.5, 73.83 7.5 C73.83 11.45, 73.83 15.4, 73.83 22.5 C73.83 27.5, 71.33 30, 66.33 30 C50.99 30, 35.65 30, 7.5 30 C2.5 30, 0 27.5, 0 22.5 C0 19.17, 0 15.85, 0 7.5 C0 2.5, 2.5 0, 7.5 0" stroke="none" stroke-width="0" fill="#042f3b"></path><path d="M7.5 0 C23.01 0, 38.51 0, 66.33 0 M7.5 0 C29.98 0, 52.46 0, 66.33 0 M66.33 0 C71.33 0, 73.83 2.5, 73.83 7.5 M66.33 0 C71.33 0, 73.83 2.5, 73.83 7.5 M73.83 7.5 C73.83 12.4, 73.83 17.29, 73.83 22.5 M73.83 7.5 C73.83 13.19, 73.83 18.87, 73.83 22.5 M73.83 22.5 C73.83 27.5, 71.33 30, 66.33 30 M73.83 22.5 C73.83 27.5, 71.33 30, 66.33 30 M66.33 30 C49.52 30, 32.7 30, 7.5 30 M66.33 30 C44.14 30, 21.96 30, 7.5 30 M7.5 30 C2.5 30, 0 27.5, 0 22.5 M7.5 30 C2.5 30, 0 27.5, 0 22.5 M0 22.5 C0 17.53, 0 12.56, 0 7.5 M0 22.5 C0 16.56, 0 10.62, 0 7.5 M0 7.5 C0 2.5, 2.5 0, 7.5 0 M0 7.5 C0 2.5, 2.5 0, 7.5 0" stroke="#ffffff" stroke-width="1" fill="none"></path></g><g transform="translate(276.1269105843594 217.27346926132714) rotate(0 18.407981872558594 10)"><text x="18.407981872558594" y="14.016" font-family="Virgil, Segoe UI Emoji" font-size="16px" fill="#ffffff" text-anchor="middle" style="white-space: pre;" direction="ltr" dominant-baseline="alphabetic">v1.0.1</text></g><g stroke-linecap="round" transform="translate(257.6205252301079 235.18574017810715) rotate(0 36.9143672268101 15)"><path d="M7.5 0 C25.81 0, 44.11 0, 66.33 0 C71.33 0, 73.83 2.5, 73.83 7.5 C73.83 12.94, 73.83 18.38, 73.83 22.5 C73.83 27.5, 71.33 30, 66.33 30 C48.54 30, 30.75 30, 7.5 30 C2.5 30, 0 27.5, 0 22.5 C0 18.71, 0 14.93, 0 7.5 C0 2.5, 2.5 0, 7.5 0" stroke="none" stroke-width="0" fill="#042f3b"></path><path d="M7.5 0 C25.52 0, 43.54 0, 66.33 0 M7.5 0 C28.39 0, 49.29 0, 66.33 0 M66.33 0 C71.33 0, 73.83 2.5, 73.83 7.5 M66.33 0 C71.33 0, 73.83 2.5, 73.83 7.5 M73.83 7.5 C73.83 11.7, 73.83 15.9, 73.83 22.5 M73.83 7.5 C73.83 11.7, 73.83 15.9, 73.83 22.5 M73.83 22.5 C73.83 27.5, 71.33 30, 66.33 30 M73.83 22.5 C73.83 27.5, 71.33 30, 66.33 30 M66.33 30 C42.86 30, 19.38 30, 7.5 30 M66.33 30 C54.3 30, 42.27 30, 7.5 30 M7.5 30 C2.5 30, 0 27.5, 0 22.5 M7.5 30 C2.5 30, 0 27.5, 0 22.5 M0 22.5 C0 17.56, 0 12.62, 0 7.5 M0 22.5 C0 17.99, 0 13.49, 0 7.5 M0 7.5 C0 2.5, 2.5 0, 7.5 0 M0 7.5 C0 2.5, 2.5 0, 7.5 0" stroke="#ffffff" stroke-width="1" fill="none"></path></g><g transform="translate(272.5989107064297 240.18574017810715) rotate(0 21.93598175048828 10)"><text x="21.93598175048828" y="14.016" font-family="Virgil, Segoe UI Emoji" font-size="16px" fill="#ffffff" text-anchor="middle" style="white-space: pre;" direction="ltr" dominant-baseline="alphabetic">v1.0.2</text></g><g stroke-linecap="round" transform="translate(257.6205252301079 258.48988457136556) rotate(0 36.9143672268101 15)"><path d="M7.5 0 C23.92 0, 40.34 0, 66.33 0 C71.33 0, 73.83 2.5, 73.83 7.5 C73.83 11.39, 73.83 15.27, 73.83 22.5 C73.83 27.5, 71.33 30, 66.33 30 C44.38 30, 22.43 30, 7.5 30 C2.5 30, 0 27.5, 0 22.5 C0 19.49, 0 16.49, 0 7.5 C0 2.5, 2.5 0, 7.5 0" stroke="none" stroke-width="0" fill="#042f3b"></path><path d="M7.5 0 C24.82 0, 42.13 0, 66.33 0 M7.5 0 C30.06 0, 52.61 0, 66.33 0 M66.33 0 C71.33 0, 73.83 2.5, 73.83 7.5 M66.33 0 C71.33 0, 73.83 2.5, 73.83 7.5 M73.83 7.5 C73.83 12.55, 73.83 17.59, 73.83 22.5 M73.83 7.5 C73.83 12.76, 73.83 18.02, 73.83 22.5 M73.83 22.5 C73.83 27.5, 71.33 30, 66.33 30 M73.83 22.5 C73.83 27.5, 71.33 30, 66.33 30 M66.33 30 C43.93 30, 21.53 30, 7.5 30 M66.33 30 C43.06 30, 19.79 30, 7.5 30 M7.5 30 C2.5 30, 0 27.5, 0 22.5 M7.5 30 C2.5 30, 0 27.5, 0 22.5 M0 22.5 C0 18.02, 0 13.54, 0 7.5 M0 22.5 C0 18.76, 0 15.01, 0 7.5 M0 7.5 C0 2.5, 2.5 0, 7.5 0 M0 7.5 C0 2.5, 2.5 0, 7.5 0" stroke="#ffffff" stroke-width="1" fill="none"></path></g><g transform="translate(272.5989107064297 263.48988457136556) rotate(0 21.93598175048828 10)"><text x="21.93598175048828" y="14.016" font-family="Virgil, Segoe UI Emoji" font-size="16px" fill="#ffffff" text-anchor="middle" style="white-space: pre;" direction="ltr" dominant-baseline="alphabetic">v1.2.0</text></g><g transform="translate(276.0229066781094 300.9174423250656) rotate(0 18.511985778808594 10)"><text x="0" y="14.016" font-family="Virgil, Segoe UI Emoji" font-size="16px" fill="#ffffff" text-anchor="start" style="white-space: pre;" direction="ltr" dominant-baseline="alphabetic">Code</text></g><g transform="translate(239.94056554161125 324.5712564749174) rotate(0 54.59432691530674 13.607767872740169)"><text x="0" y="9.536323725216304" font-family="Virgil, Segoe UI Emoji" font-size="10.886214298192128px" fill="#ffffff" text-anchor="start" style="white-space: pre;" direction="ltr" dominant-baseline="alphabetic">(Infra as Code,</text><text x="0" y="23.144091597956464" font-family="Virgil, Segoe UI Emoji" font-size="10.886214298192128px" fill="#ffffff" text-anchor="start" style="white-space: pre;" direction="ltr" dominant-baseline="alphabetic">Deployments History)</text></g></svg>