<svg version="1.1" xmlns="http://www.w3.org/2000/svg" viewBox="0 0 159.27992248535156 330.59647730996176" width="318.5598449707031" height="661.1929546199235">
  <!-- svg-source:excalidraw -->
  
  <defs>
    <style class="style-fonts">
      @font-face {
        font-family: "Virgil";
        src: url("https://excalidraw.com/Virgil.woff2");
      }
      @font-face {
        font-family: "Cascadia";
        src: url("https://excalidraw.com/Cascadia.woff2");
      }
      @font-face {
        font-family: "Assistant";
        src: url("https://app.excalidraw.com//dist/excalidraw-assets/Assistant-Regular.woff2");
      }
    </style>
    
  </defs>
  <rect x="0" y="0" width="159.27992248535156" height="330.59647730996176" fill="#042f3b"></rect><g stroke-linecap="round" transform="translate(29.66176879253544 71.97850433338044) rotate(0 49.978192450139886 29.82326679262769)"><path d="M14.91 0 C32.11 1.12, 57.02 -3.83, 85.04 0 M14.91 0 C33.69 1.73, 51.4 0.44, 85.04 0 M85.04 0 C95.72 0.13, 101.62 2.68, 99.96 14.91 M85.04 0 C95.34 -3.86, 102.62 1.82, 99.96 14.91 M99.96 14.91 C98.07 30.36, 103.85 39.65, 99.96 44.73 M99.96 14.91 C98.79 22.16, 99.71 26.02, 99.96 44.73 M99.96 44.73 C99.49 52.27, 95.57 59.71, 85.04 59.65 M99.96 44.73 C95.75 56.26, 93.75 63.74, 85.04 59.65 M85.04 59.65 C68.84 60.61, 51.35 60, 14.91 59.65 M85.04 59.65 C64.4 60.6, 38.81 58.18, 14.91 59.65 M14.91 59.65 C8.68 62.33, -0.86 52.78, 0 44.73 M14.91 59.65 C6.61 55.17, 0.44 55.96, 0 44.73 M0 44.73 C1.35 31.37, 1.15 18.81, 0 14.91 M0 44.73 C-1.5 35.46, -0.61 28.58, 0 14.91 M0 14.91 C-0.46 3.35, 5.96 -3.42, 14.91 0 M0 14.91 C0.41 4.45, 5.41 -1.25, 14.91 0" stroke="#ffffff" stroke-width="1" fill="none"></path></g><g transform="translate(66.91996765136719 91.80177112600813) rotate(0 12.719993591308594 10)"><text x="12.719993591308594" y="14.016" font-family="Virgil, Segoe UI Emoji" font-size="16px" fill="#f08c00" text-anchor="middle" style="white-space: pre;" direction="ltr" dominant-baseline="alphabetic">&lt;/&gt;</text></g><g transform="translate(10 148.3166347945703) rotate(0 69.63996124267578 10)"><text x="0" y="14.016" font-family="Virgil, Segoe UI Emoji" font-size="16px" fill="#ffffff" text-anchor="start" style="white-space: pre;" direction="ltr" dominant-baseline="alphabetic">Our code is buggy</text></g><g stroke-linecap="round" transform="translate(30.829470293132545 207.73872236758416) rotate(0 48.81049094954278 28.5774344130366)"><path d="M14.29 0 C37.73 0.94, 63.58 2.9, 83.33 0 M14.29 0 C33.18 -0.36, 51.64 -0.43, 83.33 0 M83.33 0 C94.46 -1.52, 100.93 4.52, 97.62 14.29 M83.33 0 C90.33 -2.95, 99.63 0.93, 97.62 14.29 M97.62 14.29 C100.36 21.18, 99.28 31.46, 97.62 42.87 M97.62 14.29 C97.36 18.94, 98.71 25.87, 97.62 42.87 M97.62 42.87 C97.3 52.04, 96.73 57.08, 83.33 57.15 M97.62 42.87 C94.32 54.43, 89.18 61.22, 83.33 57.15 M83.33 57.15 C66.02 61.46, 46.78 59.32, 14.29 57.15 M83.33 57.15 C58.99 56.54, 34.22 54.86, 14.29 57.15 M14.29 57.15 C7.72 57.85, 1.3 55.69, 0 42.87 M14.29 57.15 C0.41 59.49, -1.76 52.03, 0 42.87 M0 42.87 C2.45 38.14, -3.25 30.18, 0 14.29 M0 42.87 C0.76 34.28, 0.41 20.33, 0 14.29 M0 14.29 C-3.05 4.04, 6.62 -2.35, 14.29 0 M0 14.29 C-1.94 9.2, 3.92 -4.13, 14.29 0" stroke="#f08c00" stroke-width="1" fill="none"></path></g><g transform="translate(66.91996765136628 226.316156780621) rotate(0 12.719993591308594 10)"><text x="12.719993591308594" y="14.016" font-family="Virgil, Segoe UI Emoji" font-size="16px" fill="#ffffff" text-anchor="middle" style="white-space: pre;" direction="ltr" dominant-baseline="alphabetic">&lt;/&gt;</text></g><g transform="translate(34.727996826171875 280.59647730996176) rotate(0 44.911964416503906 20)"><text x="0" y="14.016" font-family="Virgil, Segoe UI Emoji" font-size="16px" fill="#ffffff" text-anchor="start" style="white-space: pre;" direction="ltr" dominant-baseline="alphabetic">Issue with</text><text x="20" y="34.016" font-family="Virgil, Segoe UI Emoji" font-size="16px" fill="#ffffff" text-anchor="start" style="white-space: pre;" direction="ltr" dominant-baseline="alphabetic">infra</text></g><g transform="translate(40.12998962402344 10) rotate(0 39.509971618652344 12.5)"><text x="0" y="17.52" font-family="Virgil, Segoe UI Emoji" font-size="20px" fill="#ffffff" text-anchor="start" style="white-space: pre;" direction="ltr" dominant-baseline="alphabetic">Internal</text></g></svg>
